STARTFONT 2.1
COMMENT
COMMENT Converted from OpenType font "Montserrat-Bold.otf" by "otf2bdf 3.0".
COMMENT
FONT -FreeType-Montserrat-Bold-R-Normal--25-180-100-100-P-149-ISO10646-1
SIZE 18 100 100
FONTBOUNDINGBOX 64 34 -22 -7
STARTPROPERTIES 19
FOUNDRY "FreeType"
FAMILY_NAME "Montserrat"
WEIGHT_NAME "Bold"
SLANT "R"
SETWIDTH_NAME "Normal"
ADD_STYLE_NAME ""
PIXEL_SIZE 25
POINT_SIZE 180
RESOLUTION_X 100
RESOLUTION_Y 100
SPACING "P"
AVERAGE_WIDTH 149
CHARSET_REGISTRY "ISO10646"
CHARSET_ENCODING "1"
FONT_ASCENT 24
FONT_DESCENT 6
COPYRIGHT "Copyright 2011 The Montserrat Project Authors (https://github.com/JulietaUla/Montserrat)"
_OTF_FONTFILE "Montserrat-Bold.otf"
_OTF_PSNAME "Montserrat-Bold"
ENDPROPERTIES
CHARS 969
STARTCHAR 0000
ENCODING 0
SWIDTH 0 0
DWIDTH 0 0
BBX 0 0 0 0
BITMAP
ENDCHAR
STARTCHAR 000D
ENCODING 13
SWIDTH 280 0
DWIDTH 7 0
BBX 0 0 0 0
BITMAP
ENDCHAR
STARTCHAR 0020
ENCODING 32
SWIDTH 280 0
DWIDTH 7 0
BBX 0 0 0 0
BITMAP
ENDCHAR
STARTCHAR 0021
ENCODING 33
SWIDTH 280 0
DWIDTH 7 0
BBX 5 18 1 0
BITMAP
F8
F8
F8
78
78
78
78
70
70
70
70
70
00
00
78
F8
F8
70
ENDCHAR
STARTCHAR 0022
ENCODING 34
SWIDTH 440 0
DWIDTH 11 0
BBX 9 7 1 11
BITMAP
F780
E780
E780
E780
E380
E300
E300
ENDCHAR
STARTCHAR 0023
ENCODING 35
SWIDTH 720 0
DWIDTH 18 0
BBX 17 18 0 0
BITMAP
070E00
070E00
070C00
071C00
7FFF80
7FFF80
7FFF80
061C00
0E1C00
0E1C00
0E1800
FFFF80
FFFF80
FFFF80
0C3800
0C3800
1C3800
1C3800
ENDCHAR
STARTCHAR 0024
ENCODING 36
SWIDTH 640 0
DWIDTH 16 0
BBX 14 24 1 -3
BITMAP
0300
0300
0300
0FE0
3FF8
7FF8
FF78
F300
F300
FB00
7F00
7FE0
1FF8
03FC
037C
033C
433C
FB7C
FFF8
FFF0
1FC0
0300
0300
0300
ENDCHAR
STARTCHAR 0025
ENCODING 37
SWIDTH 880 0
DWIDTH 22 0
BBX 20 18 1 0
BITMAP
3C0380
7E0700
E70700
C30E00
C31C00
C31C00
C33800
E77000
7E73C0
3CE7E0
01CE70
01CC30
038C30
070C30
070C30
0E0E70
1C07E0
1C03C0
ENDCHAR
STARTCHAR 0026
ENCODING 38
SWIDTH 720 0
DWIDTH 18 0
BBX 17 18 1 0
BITMAP
07C000
1FF000
3FF000
3C7000
3C7000
3CF000
1FF000
1FC000
1F8000
3FC700
7BE700
F1FF00
F07E00
F03E00
F87F00
7FFF80
3FF700
1FC200
ENDCHAR
STARTCHAR 0027
ENCODING 39
SWIDTH 240 0
DWIDTH 6 0
BBX 4 7 1 11
BITMAP
F0
E0
E0
E0
E0
E0
E0
ENDCHAR
STARTCHAR 0028
ENCODING 40
SWIDTH 360 0
DWIDTH 9 0
BBX 6 24 2 -5
BITMAP
1C
3C
38
78
78
70
F0
F0
F0
F0
F0
F0
F0
F0
F0
F0
F0
F0
78
78
78
3C
3C
1C
ENDCHAR
STARTCHAR 0029
ENCODING 41
SWIDTH 360 0
DWIDTH 9 0
BBX 7 24 0 -5
BITMAP
70
78
78
3C
3C
3C
1E
1E
1E
1E
1E
1E
1E
1E
1E
1E
1E
1E
3C
3C
3C
78
78
F0
ENDCHAR
STARTCHAR 002A
ENCODING 42
SWIDTH 440 0
DWIDTH 11 0
BBX 11 10 0 9
BITMAP
0E00
0E00
6EC0
7FC0
3F80
3F80
FFE0
6EC0
4E00
0E00
ENDCHAR
STARTCHAR 002B
ENCODING 43
SWIDTH 600 0
DWIDTH 15 0
BBX 11 11 2 4
BITMAP
0E00
0E00
0E00
0E00
FFE0
FFE0
FFE0
0E00
0E00
0E00
0E00
ENDCHAR
STARTCHAR 002C
ENCODING 44
SWIDTH 280 0
DWIDTH 7 0
BBX 5 8 1 -4
BITMAP
F0
F8
F8
F0
70
70
60
E0
ENDCHAR
STARTCHAR 002D
ENCODING 45
SWIDTH 400 0
DWIDTH 10 0
BBX 7 3 1 6
BITMAP
FE
FE
FE
ENDCHAR
STARTCHAR 002E
ENCODING 46
SWIDTH 280 0
DWIDTH 7 0
BBX 5 5 1 0
BITMAP
70
F8
F8
F8
70
ENDCHAR
STARTCHAR 002F
ENCODING 47
SWIDTH 400 0
DWIDTH 10 0
BBX 12 24 -1 -3
BITMAP
00F0
00F0
00E0
01E0
01C0
01C0
03C0
0380
0380
0780
0700
0700
0F00
0E00
1E00
1E00
1C00
3C00
3C00
3800
7800
7800
7000
F000
ENDCHAR
STARTCHAR 0030
ENCODING 48
SWIDTH 680 0
DWIDTH 17 0
BBX 15 18 1 0
BITMAP
07C0
1FF0
3FF8
7EFC
783C
F83E
F01E
F01E
F01E
F01E
F01E
F01E
F83E
783C
7EFC
3FF8
1FF0
07C0
ENDCHAR
STARTCHAR 0031
ENCODING 49
SWIDTH 400 0
DWIDTH 10 0
BBX 8 18 0 0
BITMAP
FF
FF
FF
0F
0F
0F
0F
0F
0F
0F
0F
0F
0F
0F
0F
0F
0F
0F
ENDCHAR
STARTCHAR 0032
ENCODING 50
SWIDTH 600 0
DWIDTH 15 0
BBX 14 18 0 0
BITMAP
0FC0
3FF0
7FF8
FDF8
3078
0078
0078
0078
00F8
01F0
03E0
07C0
0F80
1F00
3E00
7FFC
7FFC
7FFC
ENDCHAR
STARTCHAR 0033
ENCODING 51
SWIDTH 600 0
DWIDTH 15 0
BBX 14 18 0 0
BITMAP
7FF8
7FF8
7FF8
00F0
01E0
03E0
07C0
07C0
07F0
07F8
007C
003C
003C
407C
7CF8
FFF8
7FF0
1FC0
ENDCHAR
STARTCHAR 0034
ENCODING 52
SWIDTH 680 0
DWIDTH 17 0
BBX 16 18 1 0
BITMAP
00F0
01E0
03E0
03C0
0780
0F00
1F00
1E00
3C78
7C78
7878
FFFF
FFFF
FFFF
0078
0078
0078
0078
ENDCHAR
STARTCHAR 0035
ENCODING 53
SWIDTH 600 0
DWIDTH 15 0
BBX 13 18 1 0
BITMAP
7FF0
7FF0
7FF0
7800
7800
7800
7800
7FC0
7FF0
7FF8
00F8
0078
0078
4078
F9F8
FFF0
FFE0
3F80
ENDCHAR
STARTCHAR 0036
ENCODING 54
SWIDTH 640 0
DWIDTH 16 0
BBX 14 18 1 0
BITMAP
03F0
0FFC
3FF8
3F38
7C00
7800
F000
F3E0
FFF8
FFFC
FC7C
F83C
F03C
783C
7C7C
3FF8
1FF0
07E0
ENDCHAR
STARTCHAR 0037
ENCODING 55
SWIDTH 640 0
DWIDTH 16 0
BBX 14 18 1 0
BITMAP
FFFC
FFFC
FFFC
E078
E078
E0F0
00F0
01F0
01E0
03E0
03C0
03C0
0780
0780
0F80
0F00
1F00
1E00
ENDCHAR
STARTCHAR 0038
ENCODING 56
SWIDTH 680 0
DWIDTH 17 0
BBX 15 18 1 0
BITMAP
0FC0
3FF0
7FF8
787C
783C
783C
787C
7FF8
3FF0
7FF8
F87C
F03E
F01E
F03E
F87C
7FFC
3FF8
0FE0
ENDCHAR
STARTCHAR 0039
ENCODING 57
SWIDTH 640 0
DWIDTH 16 0
BBX 14 18 1 0
BITMAP
1F80
3FE0
7FF0
F8F8
F078
E07C
F07C
F8FC
FFFC
7FFC
1F3C
003C
0078
00F8
63F0
7FE0
FFC0
3F00
ENDCHAR
STARTCHAR 003A
ENCODING 58
SWIDTH 280 0
DWIDTH 7 0
BBX 5 14 1 0
BITMAP
70
F8
F8
F0
70
00
00
00
00
70
F8
F8
F8
70
ENDCHAR
STARTCHAR 003B
ENCODING 59
SWIDTH 280 0
DWIDTH 7 0
BBX 5 17 1 -3
BITMAP
70
F8
F8
F0
70
00
00
00
00
70
F8
F8
F8
70
70
60
E0
ENDCHAR
STARTCHAR 003C
ENCODING 60
SWIDTH 600 0
DWIDTH 15 0
BBX 11 12 2 3
BITMAP
0020
00E0
07E0
3FC0
FF00
F800
F000
FE00
7FC0
0FE0
01E0
0060
ENDCHAR
STARTCHAR 003D
ENCODING 61
SWIDTH 600 0
DWIDTH 15 0
BBX 11 9 2 4
BITMAP
FFE0
FFE0
FFE0
0000
0000
0000
FFE0
FFE0
FFE0
ENDCHAR
STARTCHAR 003E
ENCODING 62
SWIDTH 600 0
DWIDTH 15 0
BBX 11 12 2 3
BITMAP
8000
F000
FC00
7F80
1FE0
03E0
01E0
0FE0
7FC0
FE00
F000
C000
ENDCHAR
STARTCHAR 003F
ENCODING 63
SWIDTH 600 0
DWIDTH 15 0
BBX 13 18 0 0
BITMAP
0FC0
3FF0
7FF8
FCF8
3078
0078
0078
00F0
01E0
03C0
03C0
0780
0000
0000
0780
07C0
07C0
0380
ENDCHAR
STARTCHAR 0040
ENCODING 64
SWIDTH 1040 0
DWIDTH 26 0
BBX 24 23 1 -5
BITMAP
00FF00
03FFE0
0FC3F0
1E0078
3C001C
3879CE
71FFCE
71FFC6
E3C3C7
E383C7
E781C7
E781C7
E781C7
E381C7
E3C3C6
73FFFE
71FEFC
387878
3C0000
1E0000
0FE780
03FFC0
00FF00
ENDCHAR
STARTCHAR 0041
ENCODING 65
SWIDTH 760 0
DWIDTH 19 0
BBX 19 18 0 0
BITMAP
01F000
01F000
03F800
03F800
03BC00
07BC00
07BC00
0F1E00
0F1E00
1E0F00
1E0F00
1FFF80
3FFF80
3FFF80
7803C0
7803C0
F801E0
F001E0
ENDCHAR
STARTCHAR 0042
ENCODING 66
SWIDTH 760 0
DWIDTH 19 0
BBX 16 18 2 0
BITMAP
FFF0
FFFC
FFFE
F03E
F01E
F01E
F03E
FFFC
FFFC
FFFE
F01F
F00F
F00F
F00F
F01F
FFFE
FFFE
FFF8
ENDCHAR
STARTCHAR 0043
ENCODING 67
SWIDTH 720 0
DWIDTH 18 0
BBX 16 18 1 0
BITMAP
03F8
0FFE
1FFF
3FBF
7C06
7800
F800
F000
F000
F000
F000
F800
7800
7C06
3FBF
1FFF
0FFE
03F8
ENDCHAR
STARTCHAR 0044
ENCODING 68
SWIDTH 840 0
DWIDTH 21 0
BBX 18 18 2 0
BITMAP
FFF000
FFFC00
FFFE00
F07F00
F00F80
F00780
F00780
F007C0
F003C0
F003C0
F007C0
F00780
F00780
F00F80
F07F00
FFFE00
FFFC00
FFE000
ENDCHAR
STARTCHAR 0045
ENCODING 69
SWIDTH 680 0
DWIDTH 17 0
BBX 14 18 2 0
BITMAP
FFF8
FFF8
FFF8
F000
F000
F000
F000
FFF0
FFF0
FFF0
F000
F000
F000
F000
F000
FFFC
FFFC
FFFC
ENDCHAR
STARTCHAR 0046
ENCODING 70
SWIDTH 640 0
DWIDTH 16 0
BBX 13 18 2 0
BITMAP
FFF8
FFF8
FFF8
F000
F000
F000
F000
F000
FFF0
FFF0
FFF0
F000
F000
F000
F000
F000
F000
F000
ENDCHAR
STARTCHAR 0047
ENCODING 71
SWIDTH 760 0
DWIDTH 19 0
BBX 17 18 1 0
BITMAP
03F800
0FFE00
1FFF00
3FFF00
7C0600
780000
F80000
F00000
F00000
F00780
F00780
F80780
780780
7C0780
3FBF80
1FFF80
0FFE00
03F800
ENDCHAR
STARTCHAR 0048
ENCODING 72
SWIDTH 800 0
DWIDTH 20 0
BBX 16 18 2 0
BITMAP
F00F
F00F
F00F
F00F
F00F
F00F
F00F
FFFF
FFFF
FFFF
F00F
F00F
F00F
F00F
F00F
F00F
F00F
F00F
ENDCHAR
STARTCHAR 0049
ENCODING 73
SWIDTH 320 0
DWIDTH 8 0
BBX 4 18 2 0
BITMAP
F0
F0
F0
F0
F0
F0
F0
F0
F0
F0
F0
F0
F0
F0
F0
F0
F0
F0
ENDCHAR
STARTCHAR 004A
ENCODING 74
SWIDTH 560 0
DWIDTH 14 0
BBX 12 18 0 0
BITMAP
7FF0
7FF0
7FF0
00F0
00F0
00F0
00F0
00F0
00F0
00F0
00F0
00F0
00F0
61E0
F3E0
FFE0
7FC0
3F00
ENDCHAR
STARTCHAR 004B
ENCODING 75
SWIDTH 760 0
DWIDTH 19 0
BBX 16 18 2 0
BITMAP
F01F
F03E
F03C
F078
F0F0
F1E0
F3C0
F7C0
FF80
FFC0
FFE0
FDF0
F8F8
F0F8
F07C
F03E
F01F
F00F
ENDCHAR
STARTCHAR 004C
ENCODING 76
SWIDTH 600 0
DWIDTH 15 0
BBX 13 18 2 0
BITMAP
F000
F000
F000
F000
F000
F000
F000
F000
F000
F000
F000
F000
F000
F000
F000
FFF8
FFF8
FFF8
ENDCHAR
STARTCHAR 004D
ENCODING 77
SWIDTH 960 0
DWIDTH 24 0
BBX 20 18 2 0
BITMAP
F000F0
F000F0
F801F0
F803F0
FC03F0
FE07F0
FE07F0
FF0FF0
FF0EF0
F79EF0
F3FCF0
F3F8F0
F1F8F0
F1F0F0
F0F0F0
F060F0
F000F0
F000F0
ENDCHAR
STARTCHAR 004E
ENCODING 78
SWIDTH 800 0
DWIDTH 20 0
BBX 16 18 2 0
BITMAP
F00F
F80F
F80F
FC0F
FE0F
FF0F
FF8F
FF8F
F7CF
F3EF
F1FF
F0FF
F0FF
F07F
F03F
F01F
F00F
F00F
ENDCHAR
STARTCHAR 004F
ENCODING 79
SWIDTH 840 0
DWIDTH 21 0
BBX 19 18 1 0
BITMAP
03F800
0FFE00
1FFF00
3FBF80
7C07C0
7803C0
F803E0
F001E0
F001E0
F001E0
F001E0
F801E0
7803C0
7C07C0
3FBF80
1FFF00
0FFE00
03F800
ENDCHAR
STARTCHAR 0050
ENCODING 80
SWIDTH 720 0
DWIDTH 18 0
BBX 15 18 2 0
BITMAP
FFE0
FFF8
FFFC
F07E
F03E
F01E
F01E
F01E
F01E
F07E
FFFC
FFF8
FFE0
F000
F000
F000
F000
F000
ENDCHAR
STARTCHAR 0051
ENCODING 81
SWIDTH 840 0
DWIDTH 21 0
BBX 20 22 1 -4
BITMAP
03F800
0FFE00
1FFF00
3FBF80
7C07C0
7803C0
F803E0
F001E0
F001E0
F001E0
F001E0
F801E0
7803E0
7C07C0
3F1F80
3FFF80
0FFE00
07FC00
00FC60
007FF0
001FE0
000FC0
ENDCHAR
STARTCHAR 0052
ENCODING 82
SWIDTH 720 0
DWIDTH 18 0
BBX 15 18 2 0
BITMAP
FFE0
FFF8
FFFC
F07E
F03E
F01E
F01E
F01E
F01E
F07E
FFFC
FFF8
FFF0
F0F0
F078
F03C
F03E
F01E
ENDCHAR
STARTCHAR 0053
ENCODING 83
SWIDTH 640 0
DWIDTH 16 0
BBX 14 18 1 0
BITMAP
0FE0
3FF8
7FF8
FC78
F000
F000
F800
FE00
7FE0
3FF8
0FFC
00FC
003C
403C
F8FC
FFF8
FFF0
1FC0
ENDCHAR
STARTCHAR 0054
ENCODING 84
SWIDTH 600 0
DWIDTH 15 0
BBX 15 18 0 0
BITMAP
FFFE
FFFE
FFFE
03C0
03C0
03C0
03C0
03C0
03C0
03C0
03C0
03C0
03C0
03C0
03C0
03C0
03C0
03C0
ENDCHAR
STARTCHAR 0055
ENCODING 85
SWIDTH 800 0
DWIDTH 20 0
BBX 16 18 2 0
BITMAP
F00F
F00F
F00F
F00F
F00F
F00F
F00F
F00F
F00F
F00F
F00F
F00F
F01F
F81E
7FFE
3FFC
1FF8
07E0
ENDCHAR
STARTCHAR 0056
ENCODING 86
SWIDTH 760 0
DWIDTH 19 0
BBX 19 18 0 0
BITMAP
F001E0
F803C0
7803C0
7C0780
3C0780
3C0780
3E0F00
1E0F00
1F1E00
0F1E00
0F3C00
07BC00
07BC00
07F800
03F800
03F000
01F000
01F000
ENDCHAR
STARTCHAR 0057
ENCODING 87
SWIDTH 1160 0
DWIDTH 29 0
BBX 27 18 1 0
BITMAP
F00F01E0
F01F01E0
F81F01E0
781F81C0
783F83C0
783F83C0
3C3BC380
3C7BC780
3C7BC780
1E71E700
1EF1EF00
1EF1EF00
0FE0EF00
0FE0FE00
0FE0FE00
0FC07E00
07C07C00
07C07C00
ENDCHAR
STARTCHAR 0058
ENCODING 88
SWIDTH 720 0
DWIDTH 18 0
BBX 17 18 0 0
BITMAP
780780
7C0F00
3E1F00
1E1E00
1F3C00
0FF800
07F800
03F000
03E000
03F000
07F800
07F800
0F7C00
1F3E00
1E1E00
3C1F00
7C0F80
F80780
ENDCHAR
STARTCHAR 0059
ENCODING 89
SWIDTH 680 0
DWIDTH 17 0
BBX 17 18 0 0
BITMAP
F00780
780F00
780F00
3C1E00
3E1E00
1E3C00
1F7800
0F7800
07F000
07F000
03E000
03E000
03C000
03C000
03C000
03C000
03C000
03C000
ENDCHAR
STARTCHAR 005A
ENCODING 90
SWIDTH 680 0
DWIDTH 17 0
BBX 15 18 1 0
BITMAP
FFFE
FFFE
FFFE
007C
0078
00F8
01F0
03E0
07C0
0780
0F80
1F00
3E00
7C00
7800
FFFE
FFFE
FFFE
ENDCHAR
STARTCHAR 005B
ENCODING 91
SWIDTH 360 0
DWIDTH 9 0
BBX 7 24 2 -5
BITMAP
FE
FE
FE
F0
F0
F0
F0
F0
F0
F0
F0
F0
F0
F0
F0
F0
F0
F0
F0
F0
F0
FE
FE
FE
ENDCHAR
STARTCHAR 005C
ENCODING 92
SWIDTH 400 0
DWIDTH 10 0
BBX 11 24 -1 -3
BITMAP
E000
F000
7000
7000
7800
3800
3C00
3C00
1C00
1E00
1E00
0E00
0F00
0F00
0700
0780
0380
0380
03C0
01C0
01C0
01E0
00E0
00E0
ENDCHAR
STARTCHAR 005D
ENCODING 93
SWIDTH 360 0
DWIDTH 9 0
BBX 7 24 0 -5
BITMAP
FE
FE
FE
1E
1E
1E
1E
1E
1E
1E
1E
1E
1E
1E
1E
1E
1E
1E
1E
1E
1E
FE
FE
FE
ENDCHAR
STARTCHAR 005E
ENCODING 94
SWIDTH 600 0
DWIDTH 15 0
BBX 11 10 2 4
BITMAP
0E00
1F00
1F00
3B80
3B80
3380
71C0
71C0
E0E0
E0E0
ENDCHAR
STARTCHAR 005F
ENCODING 95
SWIDTH 520 0
DWIDTH 13 0
BBX 12 2 0 -2
BITMAP
FFF0
FFF0
ENDCHAR
STARTCHAR 0060
ENCODING 96
SWIDTH 600 0
DWIDTH 15 0
BBX 7 4 3 15
BITMAP
F0
78
3C
0E
ENDCHAR
STARTCHAR 0061
ENCODING 97
SWIDTH 600 0
DWIDTH 15 0
BBX 13 14 1 0
BITMAP
1F80
7FE0
7FF0
60F0
0078
0078
3FF8
7FF8
F078
F078
F0F8
FFF8
7FF8
3E78
ENDCHAR
STARTCHAR 0062
ENCODING 98
SWIDTH 680 0
DWIDTH 17 0
BBX 14 19 2 0
BITMAP
F000
F000
F000
F000
F000
F7C0
FFF0
FFF8
FCFC
F03C
F03C
F03C
F03C
F03C
F03C
FC7C
FFF8
FFF0
F7C0
ENDCHAR
STARTCHAR 0063
ENCODING 99
SWIDTH 600 0
DWIDTH 15 0
BBX 13 14 1 0
BITMAP
0FC0
1FF0
7FF8
7CF8
F820
F000
F000
F000
F000
F820
7CF8
7FF8
3FF0
0FC0
ENDCHAR
STARTCHAR 0064
ENCODING 100
SWIDTH 680 0
DWIDTH 17 0
BBX 14 19 1 0
BITMAP
001C
001C
001C
001C
001C
0F9C
3FDC
7FFC
7C7C
F83C
F03C
F01C
F01C
F03C
F83C
7C7C
7FFC
3FFC
0F9C
ENDCHAR
STARTCHAR 0065
ENCODING 101
SWIDTH 640 0
DWIDTH 16 0
BBX 14 14 1 0
BITMAP
0FC0
3FF0
7FF8
7878
F03C
F03C
FFFC
FFFC
F000
F000
7C30
7FF8
3FF0
0FC0
ENDCHAR
STARTCHAR 0066
ENCODING 102
SWIDTH 400 0
DWIDTH 10 0
BBX 10 19 0 0
BITMAP
07C0
0FC0
1FC0
1E00
3C00
3C00
FFC0
FFC0
FFC0
3C00
3C00
3C00
3C00
3C00
3C00
3C00
3C00
3C00
3C00
ENDCHAR
STARTCHAR 0067
ENCODING 103
SWIDTH 720 0
DWIDTH 18 0
BBX 15 19 1 -5
BITMAP
0F9E
3FFE
7FFE
7C7E
F03E
F01E
F01E
F01E
F03E
F87E
7FFE
3FFE
1FDE
001E
003C
787C
7FF8
7FF0
1FC0
ENDCHAR
STARTCHAR 0068
ENCODING 104
SWIDTH 680 0
DWIDTH 17 0
BBX 14 19 2 0
BITMAP
F000
F000
F000
F000
F000
F7E0
FFF0
FFF8
FCF8
F078
F03C
F03C
F03C
F03C
F03C
F03C
F03C
F03C
F03C
ENDCHAR
STARTCHAR 0069
ENCODING 105
SWIDTH 320 0
DWIDTH 8 0
BBX 5 20 1 0
BITMAP
78
F8
F8
70
00
00
78
78
78
78
78
78
78
78
78
78
78
78
78
78
ENDCHAR
STARTCHAR 006A
ENCODING 106
SWIDTH 320 0
DWIDTH 8 0
BBX 8 25 -2 -5
BITMAP
0F
0F
0F
0E
00
00
0F
0F
0F
0F
0F
0F
0F
0F
0F
0F
0F
0F
0F
0F
0F
1F
FE
FE
F8
ENDCHAR
STARTCHAR 006B
ENCODING 107
SWIDTH 680 0
DWIDTH 17 0
BBX 14 19 2 0
BITMAP
F000
F000
F000
F000
F000
F07C
F0F8
F1F0
F3E0
F7C0
FF80
FF80
FFC0
FFC0
FBE0
F1F0
F0F8
F078
F07C
ENDCHAR
STARTCHAR 006C
ENCODING 108
SWIDTH 320 0
DWIDTH 8 0
BBX 4 19 2 0
BITMAP
F0
F0
F0
F0
F0
F0
F0
F0
F0
F0
F0
F0
F0
F0
F0
F0
F0
F0
F0
ENDCHAR
STARTCHAR 006D
ENCODING 109
SWIDTH 1040 0
DWIDTH 26 0
BBX 23 14 2 0
BITMAP
F7C1F0
FFF7F8
FFFFFC
FDFE7C
F07C3C
F0781E
F0781E
F0781E
F0781E
F0781E
F0781E
F0781E
F0781E
F0781E
ENDCHAR
STARTCHAR 006E
ENCODING 110
SWIDTH 680 0
DWIDTH 17 0
BBX 14 14 2 0
BITMAP
F7E0
FFF0
FFF8
FCF8
F078
F03C
F03C
F03C
F03C
F03C
F03C
F03C
F03C
F03C
ENDCHAR
STARTCHAR 006F
ENCODING 111
SWIDTH 640 0
DWIDTH 16 0
BBX 15 14 1 0
BITMAP
0FC0
1FF0
7FF8
7C7C
F03C
F03C
F01E
F01E
F03C
F83C
7C7C
7FF8
3FF0
0FC0
ENDCHAR
STARTCHAR 0070
ENCODING 112
SWIDTH 680 0
DWIDTH 17 0
BBX 14 19 2 -5
BITMAP
F7C0
FFF0
FFF8
FCFC
F03C
F03C
F03C
F03C
F03C
F03C
FC7C
FFF8
FFF0
F7C0
F000
F000
F000
F000
F000
ENDCHAR
STARTCHAR 0071
ENCODING 113
SWIDTH 680 0
DWIDTH 17 0
BBX 14 19 1 -5
BITMAP
0F9C
3FFC
7FFC
7C7C
F03C
F03C
F01C
F01C
F03C
F83C
7C7C
7FFC
3FDC
0F9C
001C
001C
001C
001C
001C
ENDCHAR
STARTCHAR 0072
ENCODING 114
SWIDTH 440 0
DWIDTH 11 0
BBX 8 14 2 0
BITMAP
F7
FF
FF
FF
F8
F0
F0
F0
F0
F0
F0
F0
F0
F0
ENDCHAR
STARTCHAR 0073
ENCODING 115
SWIDTH 520 0
DWIDTH 13 0
BBX 12 14 1 0
BITMAP
1FC0
7FE0
FFE0
F040
F000
F800
FF80
7FE0
0FE0
00F0
C0F0
FFE0
FFC0
3F80
ENDCHAR
STARTCHAR 0074
ENCODING 116
SWIDTH 440 0
DWIDTH 11 0
BBX 10 16 0 0
BITMAP
3C00
3C00
3C00
FFC0
FFC0
FFC0
3C00
3C00
3C00
3C00
3C00
3C00
3E00
1FC0
1FC0
07C0
ENDCHAR
STARTCHAR 0075
ENCODING 117
SWIDTH 680 0
DWIDTH 17 0
BBX 13 14 2 0
BITMAP
F078
F078
F078
F078
F078
F078
F078
F078
F078
F078
FDF8
7FF8
7FB8
1F38
ENDCHAR
STARTCHAR 0076
ENCODING 118
SWIDTH 600 0
DWIDTH 15 0
BBX 15 14 0 0
BITMAP
F01E
F01E
783C
783C
3C38
3C78
3C78
1EF0
1EF0
0FE0
0FE0
0FC0
07C0
07C0
ENDCHAR
STARTCHAR 0077
ENCODING 119
SWIDTH 920 0
DWIDTH 23 0
BBX 23 14 0 0
BITMAP
F03C0E
703C1E
787C1E
787E1C
387E3C
3CFE38
3CEF38
1CEF78
1DE770
1FC7F0
0FC3F0
0FC3E0
0F83E0
0781E0
ENDCHAR
STARTCHAR 0078
ENCODING 120
SWIDTH 600 0
DWIDTH 15 0
BBX 14 14 0 0
BITMAP
783C
7C78
3C78
1EF0
1FE0
0FE0
07C0
07C0
0FE0
1FF0
1EF0
3C78
787C
F83C
ENDCHAR
STARTCHAR 0079
ENCODING 121
SWIDTH 600 0
DWIDTH 15 0
BBX 15 19 0 -5
BITMAP
F01E
F01E
783C
783C
3C38
3C78
3C70
1EF0
1EF0
0FE0
0FE0
07C0
07C0
07C0
0780
4780
FF00
FE00
7C00
ENDCHAR
STARTCHAR 007A
ENCODING 122
SWIDTH 560 0
DWIDTH 14 0
BBX 12 14 1 0
BITMAP
FFF0
FFF0
FFF0
03E0
03C0
0780
0F00
1F00
3E00
3C00
7800
FFF0
FFF0
FFF0
ENDCHAR
STARTCHAR 007B
ENCODING 123
SWIDTH 400 0
DWIDTH 10 0
BBX 8 24 1 -5
BITMAP
0F
1F
1F
3E
3C
3C
3C
3C
3C
3C
3C
FC
F0
FC
3C
3C
3C
3C
3C
3C
3E
1F
1F
0F
ENDCHAR
STARTCHAR 007C
ENCODING 124
SWIDTH 320 0
DWIDTH 8 0
BBX 4 24 2 -5
BITMAP
F0
F0
F0
F0
F0
F0
F0
F0
F0
F0
F0
F0
F0
F0
F0
F0
F0
F0
F0
F0
F0
F0
F0
F0
ENDCHAR
STARTCHAR 007D
ENCODING 125
SWIDTH 400 0
DWIDTH 10 0
BBX 8 24 0 -5
BITMAP
F0
FC
FC
3C
1E
1E
1E
1E
1E
1E
1E
1F
0F
1F
1E
1E
1E
1E
1E
1E
3C
FC
FC
F0
ENDCHAR
STARTCHAR 007E
ENCODING 126
SWIDTH 600 0
DWIDTH 15 0
BBX 13 5 1 6
BITMAP
3C38
7E38
7FF0
E3F0
E1E0
ENDCHAR
STARTCHAR 00A0
ENCODING 160
SWIDTH 280 0
DWIDTH 7 0
BBX 0 0 0 0
BITMAP
ENDCHAR
STARTCHAR 00A1
ENCODING 161
SWIDTH 280 0
DWIDTH 7 0
BBX 5 17 1 -3
BITMAP
70
F8
F8
78
20
00
70
70
70
70
70
78
78
78
78
F8
F8
ENDCHAR
STARTCHAR 00A2
ENCODING 162
SWIDTH 600 0
DWIDTH 15 0
BBX 13 19 1 -3
BITMAP
0300
0300
0380
1FE0
3FF8
7FF8
FB30
F300
F300
F300
F300
F320
7B78
7FF8
3FF0
0FE0
0300
0300
0300
ENDCHAR
STARTCHAR 00A3
ENCODING 163
SWIDTH 680 0
DWIDTH 17 0
BBX 15 18 1 0
BITMAP
01FC
07FE
0FFE
1FDE
1E00
3E00
3C00
3C00
FFF0
FFF0
3C00
3C00
3C00
3C00
3C00
FFFE
FFFE
FFFE
ENDCHAR
STARTCHAR 00A4
ENCODING 164
SWIDTH 720 0
DWIDTH 18 0
BBX 16 16 1 0
BITMAP
6006
F3CE
FFFE
7FFC
3C78
381C
701C
701C
701C
781C
3C3C
3FFC
7FFE
F7DF
E00E
4004
ENDCHAR
STARTCHAR 00A5
ENCODING 165
SWIDTH 720 0
DWIDTH 18 0
BBX 18 18 0 0
BITMAP
F003C0
7803C0
7C0780
3C0F00
1E0F00
1F1E00
0F3C00
07BC00
07F800
03F000
3FFF00
3FFF00
01E000
01E000
3FFF00
3FFF00
01E000
01E000
ENDCHAR
STARTCHAR 00A6
ENCODING 166
SWIDTH 320 0
DWIDTH 8 0
BBX 4 24 2 -5
BITMAP
F0
F0
F0
F0
F0
F0
F0
F0
F0
00
00
00
00
00
00
F0
F0
F0
F0
F0
F0
F0
F0
F0
ENDCHAR
STARTCHAR 00A7
ENCODING 167
SWIDTH 520 0
DWIDTH 13 0
BBX 11 21 1 -3
BITMAP
1FC0
3FE0
7FE0
F060
F000
F800
7F00
7FC0
FFE0
E1E0
E0E0
F0E0
FFE0
7FC0
1FC0
01E0
01E0
C1E0
FFC0
FFC0
3F00
ENDCHAR
STARTCHAR 00A8
ENCODING 168
SWIDTH 600 0
DWIDTH 15 0
BBX 9 3 3 16
BITMAP
6300
F780
F780
ENDCHAR
STARTCHAR 00A9
ENCODING 169
SWIDTH 800 0
DWIDTH 20 0
BBX 18 18 1 0
BITMAP
03F000
0FFC00
180E00
300300
61E380
67F980
CFF880
CE00C0
CE00C0
CE00C0
CE00C0
CFF880
67F980
61E300
300300
180E00
0FFC00
03F000
ENDCHAR
STARTCHAR 00AA
ENCODING 170
SWIDTH 400 0
DWIDTH 10 0
BBX 8 9 1 10
BITMAP
7C
FE
47
07
7F
E7
C7
FF
73
ENDCHAR
STARTCHAR 00AB
ENCODING 171
SWIDTH 560 0
DWIDTH 14 0
BBX 12 10 1 2
BITMAP
1E70
1CF0
39E0
79C0
F3C0
F380
71C0
39E0
3CF0
1E70
ENDCHAR
STARTCHAR 00AC
ENCODING 172
SWIDTH 600 0
DWIDTH 15 0
BBX 11 7 2 3
BITMAP
FFE0
FFE0
FFE0
00E0
00E0
00E0
00E0
ENDCHAR
STARTCHAR 00AD
ENCODING 173
SWIDTH 400 0
DWIDTH 10 0
BBX 7 3 1 6
BITMAP
FE
FE
FE
ENDCHAR
STARTCHAR 00AE
ENCODING 174
SWIDTH 800 0
DWIDTH 20 0
BBX 18 18 1 0
BITMAP
03F000
0FFC00
180E00
300300
67F180
47F980
C73880
C718C0
C718C0
C7F8C0
C7F0C0
C73080
673980
671900
300300
180E00
0FFC00
03F000
ENDCHAR
STARTCHAR 00AF
ENCODING 175
SWIDTH 600 0
DWIDTH 15 0
BBX 9 2 3 16
BITMAP
FF80
FF80
ENDCHAR
STARTCHAR 00B0
ENCODING 176
SWIDTH 400 0
DWIDTH 10 0
BBX 9 9 1 9
BITMAP
3C00
7F00
E300
C380
C180
C380
E300
7E00
3C00
ENDCHAR
STARTCHAR 00B1
ENCODING 177
SWIDTH 600 0
DWIDTH 15 0
BBX 11 16 2 0
BITMAP
0E00
0E00
0E00
0E00
FFE0
FFE0
FFE0
0E00
0E00
0E00
0E00
0000
0000
FFE0
FFE0
FFE0
ENDCHAR
STARTCHAR 00B2
ENCODING 178
SWIDTH 440 0
DWIDTH 11 0
BBX 9 11 1 8
BITMAP
7E00
FF00
C700
0300
0700
0E00
1E00
3800
7000
FF80
FF80
ENDCHAR
STARTCHAR 00B3
ENCODING 179
SWIDTH 440 0
DWIDTH 11 0
BBX 9 11 1 8
BITMAP
FF00
FF00
0600
0C00
1E00
1F00
0380
0380
C780
FF00
7E00
ENDCHAR
STARTCHAR 00B4
ENCODING 180
SWIDTH 600 0
DWIDTH 15 0
BBX 7 4 5 15
BITMAP
1E
3C
78
E0
ENDCHAR
STARTCHAR 00B5
ENCODING 181
SWIDTH 680 0
DWIDTH 17 0
BBX 13 19 2 -5
BITMAP
F038
F038
F038
F038
F038
F038
F038
F038
F078
F078
FDF8
FFF8
FFF8
FF38
F000
F000
F000
F000
F000
ENDCHAR
STARTCHAR 00B6
ENCODING 182
SWIDTH 680 0
DWIDTH 17 0
BBX 15 22 0 -3
BITMAP
0FFE
3FFE
7FFE
7F8E
FF8E
FF8E
7F8E
7F8E
3F8E
1F8E
038E
038E
038E
038E
038E
038E
038E
038E
038E
038E
038E
038E
ENDCHAR
STARTCHAR 00B7
ENCODING 183
SWIDTH 320 0
DWIDTH 8 0
BBX 5 5 1 5
BITMAP
30
78
F8
78
70
ENDCHAR
STARTCHAR 00B8
ENCODING 184
SWIDTH 600 0
DWIDTH 15 0
BBX 5 6 5 -6
BITMAP
60
60
78
18
F8
F0
ENDCHAR
STARTCHAR 00B9
ENCODING 185
SWIDTH 440 0
DWIDTH 11 0
BBX 7 11 2 8
BITMAP
F8
F8
38
38
38
38
38
38
38
FE
FE
ENDCHAR
STARTCHAR 00BA
ENCODING 186
SWIDTH 440 0
DWIDTH 11 0
BBX 9 8 1 11
BITMAP
3E00
7F00
E380
C380
C380
E380
FF00
3E00
ENDCHAR
STARTCHAR 00BB
ENCODING 187
SWIDTH 560 0
DWIDTH 14 0
BBX 12 10 1 2
BITMAP
E780
F3C0
79C0
38E0
1CF0
1CF0
3CE0
79E0
73C0
E380
ENDCHAR
STARTCHAR 00BC
ENCODING 188
SWIDTH 1040 0
DWIDTH 26 0
BBX 24 18 2 0
BITMAP
F801C0
F801C0
380380
380700
380700
380E00
381C00
381C00
383838
FE7070
FE70E0
00E0E0
01C1CC
01C38C
0383FF
0703FF
07001C
0E001C
ENDCHAR
STARTCHAR 00BD
ENCODING 189
SWIDTH 1040 0
DWIDTH 26 0
BBX 23 18 2 0
BITMAP
F801C0
F801C0
380380
380700
380700
380E00
381C00
381CF8
383BFC
FE739E
FE700E
00E00E
01C01C
01C078
0380F0
0701E0
0703FE
0E03FE
ENDCHAR
STARTCHAR 00BE
ENCODING 190
SWIDTH 1040 0
DWIDTH 26 0
BBX 25 18 1 0
BITMAP
FF00E000
FF00E000
0701C000
0E038000
1C038000
1F070000
038E0000
038E1C00
C79C1C00
FF383800
7E387000
00706000
00E0E600
00E1C600
01C1FF80
0381FF80
03800E00
07000E00
ENDCHAR
STARTCHAR 00BF
ENCODING 191
SWIDTH 600 0
DWIDTH 15 0
BBX 13 18 1 -4
BITMAP
0700
0F80
0F80
0F00
0200
0000
0F00
0F00
1F00
3E00
7C00
7800
F000
F830
FCF8
7FF8
3FF0
1FC0
ENDCHAR
STARTCHAR 00C0
ENCODING 192
SWIDTH 760 0
DWIDTH 19 0
BBX 19 23 0 0
BITMAP
078000
03C000
01E000
007000
000000
01F000
01F000
03F800
03F800
03BC00
07BC00
07BC00
0F1E00
0F1E00
1E0F00
1E0F00
1FFF80
3FFF80
3FFF80
7803C0
7803C0
F801E0
F001E0
ENDCHAR
STARTCHAR 00C1
ENCODING 193
SWIDTH 760 0
DWIDTH 19 0
BBX 19 23 0 0
BITMAP
003C00
007800
00F000
01C000
000000
01F000
01F000
03F800
03F800
03BC00
07BC00
07BC00
0F1E00
0F1E00
1E0F00
1E0F00
1FFF80
3FFF80
3FFF80
7803C0
7803C0
F801E0
F001E0
ENDCHAR
STARTCHAR 00C2
ENCODING 194
SWIDTH 760 0
DWIDTH 19 0
BBX 19 23 0 0
BITMAP
01F000
03F800
03BC00
070E00
000000
01F000
01F000
03F800
03F800
03BC00
07BC00
07BC00
0F1E00
0F1E00
1E0F00
1E0F00
1FFF80
3FFF80
3FFF80
7803C0
7803C0
F801E0
F001E0
ENDCHAR
STARTCHAR 00C3
ENCODING 195
SWIDTH 760 0
DWIDTH 19 0
BBX 19 23 0 0
BITMAP
03CC00
07EC00
067C00
003800
000000
01F000
01F000
03F800
03F800
03BC00
07BC00
07BC00
0F1E00
0F1E00
1E0F00
1E0F00
1FFF80
3FFF80
3FFF80
7803C0
7803C0
F801E0
F001E0
ENDCHAR
STARTCHAR 00C4
ENCODING 196
SWIDTH 760 0
DWIDTH 19 0
BBX 19 23 0 0
BITMAP
031800
07BC00
079C00
000000
000000
01F000
01F000
03F800
03F800
03BC00
07BC00
07BC00
0F1E00
0F1E00
1E0F00
1E0F00
1FFF80
3FFF80
3FFF80
7803C0
7803C0
F801E0
F001E0
ENDCHAR
STARTCHAR 00C5
ENCODING 197
SWIDTH 760 0
DWIDTH 19 0
BBX 19 25 0 0
BITMAP
01F000
011800
031800
011800
01F000
000000
000000
01F000
01F000
03F800
03F800
03BC00
07BC00
07BC00
0F1E00
0F1E00
1E0F00
1E0F00
1FFF80
3FFF80
3FFF80
7803C0
7803C0
F801E0
F001E0
ENDCHAR
STARTCHAR 00C6
ENCODING 198
SWIDTH 1080 0
DWIDTH 27 0
BBX 26 18 0 0
BITMAP
007FFFC0
007FFFC0
00FFFFC0
00FF0000
01EF0000
01EF0000
03CF0000
038FFF00
078FFF00
0F0FFF00
0F0F0000
1FFF0000
1FFF0000
3FFF0000
3C0F0000
780FFFC0
780FFFC0
F00FFFC0
ENDCHAR
STARTCHAR 00C7
ENCODING 199
SWIDTH 720 0
DWIDTH 18 0
BBX 16 24 1 -6
BITMAP
03F8
0FFE
1FFF
3FBF
7C06
7800
F800
F000
F000
F000
F000
F800
7800
7C06
3FBF
1FFF
0FFE
03F8
00C0
01E0
0070
0070
03E0
03C0
ENDCHAR
STARTCHAR 00C8
ENCODING 200
SWIDTH 680 0
DWIDTH 17 0
BBX 14 23 2 0
BITMAP
3C00
1E00
0700
0380
0000
FFF8
FFF8
FFF8
F000
F000
F000
F000
FFF0
FFF0
FFF0
F000
F000
F000
F000
F000
FFFC
FFFC
FFFC
ENDCHAR
STARTCHAR 00C9
ENCODING 201
SWIDTH 680 0
DWIDTH 17 0
BBX 14 23 2 0
BITMAP
01E0
03C0
0780
0700
0000
FFF8
FFF8
FFF8
F000
F000
F000
F000
FFF0
FFF0
FFF0
F000
F000
F000
F000
F000
FFFC
FFFC
FFFC
ENDCHAR
STARTCHAR 00CA
ENCODING 202
SWIDTH 680 0
DWIDTH 17 0
BBX 14 23 2 0
BITMAP
0780
0FC0
1CE0
3870
0000
FFF8
FFF8
FFF8
F000
F000
F000
F000
FFF0
FFF0
FFF0
F000
F000
F000
F000
F000
FFFC
FFFC
FFFC
ENDCHAR
STARTCHAR 00CB
ENCODING 203
SWIDTH 680 0
DWIDTH 17 0
BBX 14 23 2 0
BITMAP
18E0
3CE0
1CE0
0000
0000
FFF8
FFF8
FFF8
F000
F000
F000
F000
FFF0
FFF0
FFF0
F000
F000
F000
F000
F000
FFFC
FFFC
FFFC
ENDCHAR
STARTCHAR 00CC
ENCODING 204
SWIDTH 320 0
DWIDTH 8 0
BBX 7 23 -1 0
BITMAP
F0
38
1C
0E
00
1E
1E
1E
1E
1E
1E
1E
1E
1E
1E
1E
1E
1E
1E
1E
1E
1E
1E
ENDCHAR
STARTCHAR 00CD
ENCODING 205
SWIDTH 320 0
DWIDTH 8 0
BBX 7 23 2 0
BITMAP
1E
3C
70
E0
00
F0
F0
F0
F0
F0
F0
F0
F0
F0
F0
F0
F0
F0
F0
F0
F0
F0
F0
ENDCHAR
STARTCHAR 00CE
ENCODING 206
SWIDTH 320 0
DWIDTH 8 0
BBX 10 23 -1 0
BITMAP
1E00
3F00
7380
E1C0
0000
1E00
1E00
1E00
1E00
1E00
1E00
1E00
1E00
1E00
1E00
1E00
1E00
1E00
1E00
1E00
1E00
1E00
1E00
ENDCHAR
STARTCHAR 00CF
ENCODING 207
SWIDTH 320 0
DWIDTH 8 0
BBX 8 23 0 0
BITMAP
E7
E7
E7
00
00
3C
3C
3C
3C
3C
3C
3C
3C
3C
3C
3C
3C
3C
3C
3C
3C
3C
3C
ENDCHAR
STARTCHAR 00D0
ENCODING 208
SWIDTH 840 0
DWIDTH 21 0
BBX 20 18 0 0
BITMAP
3FFC00
3FFF00
3FFF80
3C1FC0
3C03E0
3C01E0
3C01F0
FFE0F0
FFE0F0
FFE0F0
3C00F0
3C01F0
3C01E0
3C03E0
3C1FC0
3FFF80
3FFF00
3FFC00
ENDCHAR
STARTCHAR 00D1
ENCODING 209
SWIDTH 800 0
DWIDTH 20 0
BBX 16 23 2 0
BITMAP
0F18
0FB8
1DF0
00F0
0000
F00F
F80F
F80F
FC0F
FE0F
FF0F
FF8F
FF8F
F7CF
F3EF
F1FF
F0FF
F0FF
F07F
F03F
F01F
F00F
F00F
ENDCHAR
STARTCHAR 00D2
ENCODING 210
SWIDTH 840 0
DWIDTH 21 0
BBX 19 23 1 0
BITMAP
0F8000
038000
01C000
00E000
000000
03F800
0FFE00
1FFF00
3FBF80
7C07C0
7803C0
F803E0
F001E0
F001E0
F001E0
F001E0
F801E0
7803C0
7C07C0
3FBF80
1FFF00
0FFE00
03F800
ENDCHAR
STARTCHAR 00D3
ENCODING 211
SWIDTH 840 0
DWIDTH 21 0
BBX 19 23 1 0
BITMAP
001E00
003800
007000
00E000
000000
03F800
0FFE00
1FFF00
3FBF80
7C07C0
7803C0
F803E0
F001E0
F001E0
F001E0
F001E0
F801E0
7803C0
7C07C0
3FBF80
1FFF00
0FFE00
03F800
ENDCHAR
STARTCHAR 00D4
ENCODING 212
SWIDTH 840 0
DWIDTH 21 0
BBX 19 23 1 0
BITMAP
00E000
01F000
03B800
071C00
000000
03F800
0FFE00
1FFF00
3FBF80
7C07C0
7803C0
F803E0
F001E0
F001E0
F001E0
F001E0
F801E0
7803C0
7C07C0
3FBF80
1FFF00
0FFE00
03F800
ENDCHAR
STARTCHAR 00D5
ENCODING 213
SWIDTH 840 0
DWIDTH 21 0
BBX 19 23 1 0
BITMAP
038C00
07EC00
06FC00
063800
000000
03F800
0FFE00
1FFF00
3FBF80
7C07C0
7803C0
F803E0
F001E0
F001E0
F001E0
F001E0
F801E0
7803C0
7C07C0
3FBF80
1FFF00
0FFE00
03F800
ENDCHAR
STARTCHAR 00D6
ENCODING 214
SWIDTH 840 0
DWIDTH 21 0
BBX 19 22 1 0
BITMAP
079C00
07BC00
031800
000000
03F800
0FFE00
1FFF00
3FBF80
7C07C0
7803C0
F803E0
F001E0
F001E0
F001E0
F001E0
F801E0
7803C0
7C07C0
3FBF80
1FFF00
0FFE00
03F800
ENDCHAR
STARTCHAR 00D7
ENCODING 215
SWIDTH 600 0
DWIDTH 15 0
BBX 11 11 2 3
BITMAP
2080
71C0
7BC0
3F80
1F00
1F00
3F80
7FC0
F3E0
61C0
2080
ENDCHAR
STARTCHAR 00D8
ENCODING 216
SWIDTH 840 0
DWIDTH 21 0
BBX 19 20 1 -1
BITMAP
0001C0
03FB80
0FFF00
1FFF00
3FBF80
7C1FC0
781BC0
F83BE0
F071E0
F061E0
F0E1E0
F1C1E0
FB81E0
7B03C0
7F07C0
3FBF80
1FFF00
1FFE00
3BF800
700000
ENDCHAR
STARTCHAR 00D9
ENCODING 217
SWIDTH 800 0
DWIDTH 20 0
BBX 16 23 2 0
BITMAP
1E00
0F00
0380
01C0
0000
F00F
F00F
F00F
F00F
F00F
F00F
F00F
F00F
F00F
F00F
F00F
F00F
F01F
F81E
7FFE
3FFC
1FF8
07E0
ENDCHAR
STARTCHAR 00DA
ENCODING 218
SWIDTH 800 0
DWIDTH 20 0
BBX 16 23 2 0
BITMAP
00F8
00E0
01C0
0380
0000
F00F
F00F
F00F
F00F
F00F
F00F
F00F
F00F
F00F
F00F
F00F
F00F
F01F
F81E
7FFE
3FFC
1FF8
07E0
ENDCHAR
STARTCHAR 00DB
ENCODING 219
SWIDTH 800 0
DWIDTH 20 0
BBX 16 23 2 0
BITMAP
03C0
07E0
0E70
1C38
0000
F00F
F00F
F00F
F00F
F00F
F00F
F00F
F00F
F00F
F00F
F00F
F00F
F01F
F81E
7FFE
3FFC
1FF8
07E0
ENDCHAR
STARTCHAR 00DC
ENCODING 220
SWIDTH 800 0
DWIDTH 20 0
BBX 16 23 2 0
BITMAP
0E70
0E70
0E70
0000
0000
F00F
F00F
F00F
F00F
F00F
F00F
F00F
F00F
F00F
F00F
F00F
F00F
F01F
F81E
7FFE
3FFC
1FF8
07E0
ENDCHAR
STARTCHAR 00DD
ENCODING 221
SWIDTH 680 0
DWIDTH 17 0
BBX 17 23 0 0
BITMAP
007800
00F000
01E000
038000
000000
F00780
780F00
780F00
3C1E00
3E1E00
1E3C00
1F7800
0F7800
07F000
07F000
03E000
03E000
03C000
03C000
03C000
03C000
03C000
03C000
ENDCHAR
STARTCHAR 00DE
ENCODING 222
SWIDTH 720 0
DWIDTH 18 0
BBX 15 18 2 0
BITMAP
F000
F000
FFE0
FFF8
FFFC
F07E
F01E
F01E
F01E
F01E
F01E
F07E
FFFC
FFF8
FFE0
F000
F000
F000
ENDCHAR
STARTCHAR 00DF
ENCODING 223
SWIDTH 680 0
DWIDTH 17 0
BBX 15 19 2 0
BITMAP
0FC0
3FE0
7FF0
F8F8
F078
F078
F078
F0F0
F3E0
F3F8
F3FC
F07C
F03C
F01E
F03C
F07C
F3FC
F7F8
F7E0
ENDCHAR
STARTCHAR 00E0
ENCODING 224
SWIDTH 600 0
DWIDTH 15 0
BBX 13 19 1 0
BITMAP
3C00
1E00
0F00
0380
0000
1F80
7FE0
7FF0
60F0
0078
0078
3FF8
7FF8
F078
F078
F0F8
FFF8
7FF8
3E78
ENDCHAR
STARTCHAR 00E1
ENCODING 225
SWIDTH 600 0
DWIDTH 15 0
BBX 13 19 1 0
BITMAP
01E0
03C0
0780
0F00
0000
1F80
7FE0
7FF0
60F0
0078
0078
3FF8
7FF8
F078
F078
F0F8
FFF8
7FF8
3E78
ENDCHAR
STARTCHAR 00E2
ENCODING 226
SWIDTH 600 0
DWIDTH 15 0
BBX 13 19 1 0
BITMAP
0F80
0FC0
1CE0
3870
0000
1F80
7FE0
7FF0
60F0
0078
0078
3FF8
7FF8
F078
F078
F0F8
FFF8
7FF8
3E78
ENDCHAR
STARTCHAR 00E3
ENCODING 227
SWIDTH 600 0
DWIDTH 15 0
BBX 13 19 1 0
BITMAP
1E60
3FE0
33E0
3080
0000
1F80
7FE0
7FF0
60F0
0078
0078
3FF8
7FF8
F078
F078
F0F8
FFF8
7FF8
3E78
ENDCHAR
STARTCHAR 00E4
ENCODING 228
SWIDTH 600 0
DWIDTH 15 0
BBX 13 19 1 0
BITMAP
18C0
3DE0
1CE0
0000
0000
1F80
7FE0
7FF0
60F0
0078
0078
3FF8
7FF8
F078
F078
F0F8
FFF8
7FF8
3E78
ENDCHAR
STARTCHAR 00E5
ENCODING 229
SWIDTH 600 0
DWIDTH 15 0
BBX 13 21 1 0
BITMAP
0700
0F80
08C0
08C0
0F80
0700
0000
1F80
7FE0
7FF0
60F0
0078
0078
3FF8
7FF8
F078
F078
F0F8
FFF8
7FF8
3E78
ENDCHAR
STARTCHAR 00E6
ENCODING 230
SWIDTH 1000 0
DWIDTH 25 0
BBX 23 14 1 0
BITMAP
1F87E0
7FEFF8
7FFFFC
60FC3C
00781E
00781E
3FFFFE
7FFFFE
F07800
F07C00
F0FE18
FFFFFC
7FCFF8
1F07E0
ENDCHAR
STARTCHAR 00E7
ENCODING 231
SWIDTH 600 0
DWIDTH 15 0
BBX 13 20 1 -6
BITMAP
0FC0
1FF0
7FF8
7CF8
F820
F000
F000
F000
F000
F820
7CF8
7FF8
3FF0
0FC0
0600
0780
0180
01C0
0F80
0F00
ENDCHAR
STARTCHAR 00E8
ENCODING 232
SWIDTH 640 0
DWIDTH 16 0
BBX 14 19 1 0
BITMAP
3C00
1E00
0700
0380
0000
0FC0
3FF0
7FF8
7878
F03C
F03C
FFFC
FFFC
F000
F000
7C30
7FF8
3FF0
0FC0
ENDCHAR
STARTCHAR 00E9
ENCODING 233
SWIDTH 640 0
DWIDTH 16 0
BBX 14 19 1 0
BITMAP
00F0
01C0
0380
0700
0000
0FC0
3FF0
7FF8
7878
F03C
F03C
FFFC
FFFC
F000
F000
7C30
7FF8
3FF0
0FC0
ENDCHAR
STARTCHAR 00EA
ENCODING 234
SWIDTH 640 0
DWIDTH 16 0
BBX 14 19 1 0
BITMAP
0780
0FC0
1CE0
3870
0000
0FC0
3FF0
7FF8
7878
F03C
F03C
FFFC
FFFC
F000
F000
7C30
7FF8
3FF0
0FC0
ENDCHAR
STARTCHAR 00EB
ENCODING 235
SWIDTH 640 0
DWIDTH 16 0
BBX 14 19 1 0
BITMAP
1CE0
1CE0
1CE0
0000
0000
0FC0
3FF0
7FF8
7878
F03C
F03C
FFFC
FFFC
F000
F000
7C30
7FF8
3FF0
0FC0
ENDCHAR
STARTCHAR 00EC
ENCODING 236
SWIDTH 320 0
DWIDTH 8 0
BBX 7 19 -1 0
BITMAP
F0
78
1C
0E
00
1E
1E
1E
1E
1E
1E
1E
1E
1E
1E
1E
1E
1E
1E
ENDCHAR
STARTCHAR 00ED
ENCODING 237
SWIDTH 320 0
DWIDTH 8 0
BBX 6 19 2 0
BITMAP
3C
78
70
E0
00
F0
F0
F0
F0
F0
F0
F0
F0
F0
F0
F0
F0
F0
F0
ENDCHAR
STARTCHAR 00EE
ENCODING 238
SWIDTH 320 0
DWIDTH 8 0
BBX 9 19 -1 0
BITMAP
1E00
3F00
7700
E380
0000
1E00
1E00
1E00
1E00
1E00
1E00
1E00
1E00
1E00
1E00
1E00
1E00
1E00
1E00
ENDCHAR
STARTCHAR 00EF
ENCODING 239
SWIDTH 320 0
DWIDTH 8 0
BBX 7 19 0 0
BITMAP
66
EE
EE
00
00
3C
3C
3C
3C
3C
3C
3C
3C
3C
3C
3C
3C
3C
3C
ENDCHAR
STARTCHAR 00F0
ENCODING 240
SWIDTH 640 0
DWIDTH 16 0
BBX 15 19 1 0
BITMAP
7F80
7FF8
7FFC
03FC
0FF8
3E3C
383C
003C
1FBC
3FDE
7FFE
F87E
F03C
F03C
F03C
F878
7FF8
3FF0
0FC0
ENDCHAR
STARTCHAR 00F1
ENCODING 241
SWIDTH 680 0
DWIDTH 17 0
BBX 14 19 2 0
BITMAP
1E60
3FE0
33E0
3080
0000
F7E0
FFF0
FFF8
FCF8
F078
F03C
F03C
F03C
F03C
F03C
F03C
F03C
F03C
F03C
ENDCHAR
STARTCHAR 00F2
ENCODING 242
SWIDTH 640 0
DWIDTH 16 0
BBX 15 19 1 0
BITMAP
3E00
0E00
0700
0380
0000
0FC0
1FF0
7FF8
7C7C
F03C
F03C
F01E
F01E
F03C
F83C
7C7C
7FF8
3FF0
0FC0
ENDCHAR
STARTCHAR 00F3
ENCODING 243
SWIDTH 640 0
DWIDTH 16 0
BBX 15 19 1 0
BITMAP
00F0
01E0
0380
0700
0000
0FC0
1FF0
7FF8
7C7C
F03C
F03C
F01E
F01E
F03C
F83C
7C7C
7FF8
3FF0
0FC0
ENDCHAR
STARTCHAR 00F4
ENCODING 244
SWIDTH 640 0
DWIDTH 16 0
BBX 15 19 1 0
BITMAP
0780
0FC0
1CE0
3870
0000
0FC0
1FF0
7FF8
7C7C
F03C
F03C
F01E
F01E
F03C
F83C
7C7C
7FF8
3FF0
0FC0
ENDCHAR
STARTCHAR 00F5
ENCODING 245
SWIDTH 640 0
DWIDTH 16 0
BBX 15 19 1 0
BITMAP
0E30
1FF0
1BE0
3000
0000
0FC0
1FF0
7FF8
7C7C
F03C
F03C
F01E
F01E
F03C
F83C
7C7C
7FF8
3FF0
0FC0
ENDCHAR
STARTCHAR 00F6
ENCODING 246
SWIDTH 640 0
DWIDTH 16 0
BBX 15 19 1 0
BITMAP
1CE0
1CE0
1CE0
0000
0000
0FC0
1FF0
7FF8
7C7C
F03C
F03C
F01E
F01E
F03C
F83C
7C7C
7FF8
3FF0
0FC0
ENDCHAR
STARTCHAR 00F7
ENCODING 247
SWIDTH 600 0
DWIDTH 15 0
BBX 11 14 2 2
BITMAP
0E00
0F00
1F00
0E00
0000
0000
FFE0
FFE0
FFE0
0000
0E00
0F00
1F00
0E00
ENDCHAR
STARTCHAR 00F8
ENCODING 248
SWIDTH 640 0
DWIDTH 16 0
BBX 15 17 1 -2
BITMAP
0018
0FF0
1FF0
7FF8
7CFC
F0FC
F1BC
F11E
F31E
F63C
FE3C
7C7C
7FF8
3FF0
3FC0
6000
6000
ENDCHAR
STARTCHAR 00F9
ENCODING 249
SWIDTH 680 0
DWIDTH 17 0
BBX 13 19 2 0
BITMAP
3C00
1E00
0F00
0380
0000
F078
F078
F078
F078
F078
F078
F078
F078
F078
F078
FDF8
7FF8
7FB8
1F38
ENDCHAR
STARTCHAR 00FA
ENCODING 250
SWIDTH 680 0
DWIDTH 17 0
BBX 13 19 2 0
BITMAP
01E0
03C0
0780
0E00
0000
F078
F078
F078
F078
F078
F078
F078
F078
F078
F078
FDF8
7FF8
7FB8
1F38
ENDCHAR
STARTCHAR 00FB
ENCODING 251
SWIDTH 680 0
DWIDTH 17 0
BBX 13 19 2 0
BITMAP
0F80
1FC0
1DE0
3060
0000
F078
F078
F078
F078
F078
F078
F078
F078
F078
F078
FDF8
7FF8
7FB8
1F38
ENDCHAR
STARTCHAR 00FC
ENCODING 252
SWIDTH 680 0
DWIDTH 17 0
BBX 13 19 2 0
BITMAP
18C0
3DE0
3DE0
0000
0000
F078
F078
F078
F078
F078
F078
F078
F078
F078
F078
FDF8
7FF8
7FB8
1F38
ENDCHAR
STARTCHAR 00FD
ENCODING 253
SWIDTH 600 0
DWIDTH 15 0
BBX 15 24 0 -5
BITMAP
00F0
01E0
0380
0700
0000
F01E
F01E
783C
783C
3C38
3C78
3C70
1EF0
1EF0
0FE0
0FE0
07C0
07C0
07C0
0780
4780
FF00
FE00
7C00
ENDCHAR
STARTCHAR 00FE
ENCODING 254
SWIDTH 680 0
DWIDTH 17 0
BBX 14 24 2 -5
BITMAP
F000
F000
F000
F000
F000
F7C0
FFF0
FFF8
FCFC
F03C
F03C
F03C
F03C
F03C
F03C
FC7C
FFF8
FFF0
F7C0
F000
F000
F000
F000
F000
ENDCHAR
STARTCHAR 00FF
ENCODING 255
SWIDTH 600 0
DWIDTH 15 0
BBX 15 24 0 -5
BITMAP
1CE0
1CE0
1CE0
0000
0000
F01E
F01E
783C
783C
3C38
3C78
3C70
1EF0
1EF0
0FE0
0FE0
07C0
07C0
07C0
0780
4780
FF00
FE00
7C00
ENDCHAR
STARTCHAR 0100
ENCODING 256
SWIDTH 760 0
DWIDTH 19 0
BBX 19 22 0 0
BITMAP
07FC00
07FC00
000000
000000
01F000
01F000
03F800
03F800
03BC00
07BC00
07BC00
0F1E00
0F1E00
1E0F00
1E0F00
1FFF80
3FFF80
3FFF80
7803C0
7803C0
F801E0
F001E0
ENDCHAR
STARTCHAR 0101
ENCODING 257
SWIDTH 600 0
DWIDTH 15 0
BBX 13 18 1 0
BITMAP
3FE0
3FE0
0000
0000
1F80
7FE0
7FF0
60F0
0078
0078
3FF8
7FF8
F078
F078
F0F8
FFF8
7FF8
3E78
ENDCHAR
STARTCHAR 0102
ENCODING 258
SWIDTH 760 0
DWIDTH 19 0
BBX 19 23 0 0
BITMAP
070C00
071C00
03F800
01F000
000000
01F000
01F000
03F800
03F800
03BC00
07BC00
07BC00
0F1E00
0F1E00
1E0F00
1E0F00
1FFF80
3FFF80
3FFF80
7803C0
7803C0
F801E0
F001E0
ENDCHAR
STARTCHAR 0103
ENCODING 259
SWIDTH 600 0
DWIDTH 15 0
BBX 13 19 1 0
BITMAP
3860
38E0
1FC0
0700
0000
1F80
7FE0
7FF0
60F0
0078
0078
3FF8
7FF8
F078
F078
F0F8
FFF8
7FF8
3E78
ENDCHAR
STARTCHAR 0104
ENCODING 260
SWIDTH 760 0
DWIDTH 19 0
BBX 20 24 0 -6
BITMAP
01F000
01F000
03F800
03F800
03BC00
07BC00
07BC00
0F1E00
0F1E00
1E0F00
1E0F00
1FFF80
3FFF80
3FFF80
7803C0
7803C0
F801E0
F001E0
0001C0
000380
000380
000380
0003F0
0001E0
ENDCHAR
STARTCHAR 0105
ENCODING 261
SWIDTH 600 0
DWIDTH 15 0
BBX 13 20 1 -6
BITMAP
1F80
7FE0
7FF0
60F0
0078
0078
3FF8
7FF8
F078
F078
F0F8
FFF8
7FF8
3E78
00F0
00C0
01C0
01C0
00F8
0070
ENDCHAR
STARTCHAR 0106
ENCODING 262
SWIDTH 720 0
DWIDTH 18 0
BBX 16 23 1 0
BITMAP
003E
0078
00F0
00E0
0000
03F8
0FFE
1FFF
3FBF
7C06
7800
F800
F000
F000
F000
F000
F800
7800
7C06
3FBF
1FFF
0FFE
03F8
ENDCHAR
STARTCHAR 0107
ENCODING 263
SWIDTH 600 0
DWIDTH 15 0
BBX 13 19 1 0
BITMAP
01F0
01C0
0380
0700
0000
0FC0
1FF0
7FF8
7CF8
F820
F000
F000
F000
F000
F820
7CF8
7FF8
3FF0
0FC0
ENDCHAR
STARTCHAR 0108
ENCODING 264
SWIDTH 720 0
DWIDTH 18 0
BBX 16 23 1 0
BITMAP
00E0
01F0
03B8
071C
0000
03F8
0FFE
1FFF
3FBF
7C06
7800
F800
F000
F000
F000
F000
F800
7800
7C06
3FBF
1FFF
0FFE
03F8
ENDCHAR
STARTCHAR 0109
ENCODING 265
SWIDTH 600 0
DWIDTH 15 0
BBX 13 19 1 0
BITMAP
0780
0FC0
1CE0
3870
0000
0FC0
1FF0
7FF8
7CF8
F820
F000
F000
F000
F000
F820
7CF8
7FF8
3FF0
0FC0
ENDCHAR
STARTCHAR 010A
ENCODING 266
SWIDTH 720 0
DWIDTH 18 0
BBX 16 23 1 0
BITMAP
00E0
01E0
01E0
00E0
0000
03F8
0FFE
1FFF
3FBF
7C06
7800
F800
F000
F000
F000
F000
F800
7800
7C06
3FBF
1FFF
0FFE
03F8
ENDCHAR
STARTCHAR 010B
ENCODING 267
SWIDTH 600 0
DWIDTH 15 0
BBX 13 20 1 0
BITMAP
0700
0780
0780
0700
0000
0000
0FC0
1FF0
7FF8
7CF8
F820
F000
F000
F000
F000
F820
7CF8
7FF8
3FF0
0FC0
ENDCHAR
STARTCHAR 010C
ENCODING 268
SWIDTH 720 0
DWIDTH 18 0
BBX 16 23 1 0
BITMAP
0E1C
0738
03F0
01F0
0000
03F8
0FFE
1FFF
3FBF
7C06
7800
F800
F000
F000
F000
F000
F800
7800
7C06
3FBF
1FFF
0FFE
03F8
ENDCHAR
STARTCHAR 010D
ENCODING 269
SWIDTH 600 0
DWIDTH 15 0
BBX 13 19 1 0
BITMAP
38E0
1DC0
0FC0
0780
0000
0FC0
1FF0
7FF8
7CF8
F820
F000
F000
F000
F000
F820
7CF8
7FF8
3FF0
0FC0
ENDCHAR
STARTCHAR 010E
ENCODING 270
SWIDTH 840 0
DWIDTH 21 0
BBX 18 23 2 0
BITMAP
1C7000
0EE000
0FC000
078000
000000
FFF000
FFFC00
FFFE00
F07F00
F00F80
F00780
F00780
F007C0
F003C0
F003C0
F007C0
F00780
F00780
F00F80
F07F00
FFFE00
FFFC00
FFE000
ENDCHAR
STARTCHAR 010F
ENCODING 271
SWIDTH 680 0
DWIDTH 17 0
BBX 19 20 1 0
BITMAP
000060
001C60
001C60
001C60
001C60
001C00
0F9C00
3FDC00
7FFC00
7C7C00
F83C00
F03C00
F01C00
F01C00
F03C00
F83C00
7C7C00
7FFC00
3FFC00
0F9C00
ENDCHAR
STARTCHAR 0110
ENCODING 272
SWIDTH 840 0
DWIDTH 21 0
BBX 20 18 0 0
BITMAP
3FFC00
3FFF00
3FFF80
3C1FC0
3C03E0
3C01E0
3C01F0
FFE0F0
FFE0F0
FFE0F0
3C00F0
3C01F0
3C01E0
3C03E0
3C1FC0
3FFF80
3FFF00
3FFC00
ENDCHAR
STARTCHAR 0111
ENCODING 273
SWIDTH 680 0
DWIDTH 17 0
BBX 16 19 1 0
BITMAP
001C
001C
03FF
03FF
001C
0F9C
3FDC
7FFC
7C7C
F83C
F03C
F01C
F01C
F03C
F83C
7C7C
7FFC
3FFC
0F9C
ENDCHAR
STARTCHAR 0112
ENCODING 274
SWIDTH 680 0
DWIDTH 17 0
BBX 14 22 2 0
BITMAP
3FE0
3FE0
0000
0000
FFF8
FFF8
FFF8
F000
F000
F000
F000
FFF0
FFF0
FFF0
F000
F000
F000
F000
F000
FFFC
FFFC
FFFC
ENDCHAR
STARTCHAR 0113
ENCODING 275
SWIDTH 640 0
DWIDTH 16 0
BBX 14 18 1 0
BITMAP
3FF0
3FF0
0000
0000
0FC0
3FF0
7FF8
7878
F03C
F03C
FFFC
FFFC
F000
F000
7C30
7FF8
3FF0
0FC0
ENDCHAR
STARTCHAR 0114
ENCODING 276
SWIDTH 680 0
DWIDTH 17 0
BBX 14 23 2 0
BITMAP
3860
38E0
1FC0
0F80
0000
FFF8
FFF8
FFF8
F000
F000
F000
F000
FFF0
FFF0
FFF0
F000
F000
F000
F000
F000
FFFC
FFFC
FFFC
ENDCHAR
STARTCHAR 0115
ENCODING 277
SWIDTH 640 0
DWIDTH 16 0
BBX 14 19 1 0
BITMAP
3860
1CE0
1FC0
0780
0000
0FC0
3FF0
7FF8
7878
F03C
F03C
FFFC
FFFC
F000
F000
7C30
7FF8
3FF0
0FC0
ENDCHAR
STARTCHAR 0116
ENCODING 278
SWIDTH 680 0
DWIDTH 17 0
BBX 14 24 2 0
BITMAP
0700
0780
0780
0700
0000
0000
FFF8
FFF8
FFF8
F000
F000
F000
F000
FFF0
FFF0
FFF0
F000
F000
F000
F000
F000
FFFC
FFFC
FFFC
ENDCHAR
STARTCHAR 0117
ENCODING 279
SWIDTH 640 0
DWIDTH 16 0
BBX 14 20 1 0
BITMAP
0300
0780
0780
0780
0000
0000
0FC0
3FF0
7FF8
7878
F03C
F03C
FFFC
FFFC
F000
F000
7C30
7FF8
3FF0
0FC0
ENDCHAR
STARTCHAR 0118
ENCODING 280
SWIDTH 680 0
DWIDTH 17 0
BBX 14 24 2 -6
BITMAP
FFF8
FFF8
FFF8
F000
F000
F000
F000
FFF0
FFF0
FFF0
F000
F000
F000
F000
F000
FFFC
FFFC
FFFC
0078
0060
00E0
00E0
007C
0038
ENDCHAR
STARTCHAR 0119
ENCODING 281
SWIDTH 640 0
DWIDTH 16 0
BBX 14 20 1 -6
BITMAP
0FC0
3FF0
7FF8
7878
F03C
F03C
FFFC
FFFC
F000
F000
7C30
7FF8
3FF0
0FE0
00C0
0180
0180
01C0
01F8
00E0
ENDCHAR
STARTCHAR 011A
ENCODING 282
SWIDTH 680 0
DWIDTH 17 0
BBX 14 23 2 0
BITMAP
38E0
1DC0
0F80
0780
0000
FFF8
FFF8
FFF8
F000
F000
F000
F000
FFF0
FFF0
FFF0
F000
F000
F000
F000
F000
FFFC
FFFC
FFFC
ENDCHAR
STARTCHAR 011B
ENCODING 283
SWIDTH 640 0
DWIDTH 16 0
BBX 14 19 1 0
BITMAP
38E0
1DE0
0FC0
0780
0000
0FC0
3FF0
7FF8
7878
F03C
F03C
FFFC
FFFC
F000
F000
7C30
7FF8
3FF0
0FC0
ENDCHAR
STARTCHAR 011C
ENCODING 284
SWIDTH 760 0
DWIDTH 19 0
BBX 17 23 1 0
BITMAP
00E000
01F000
03B800
071C00
000000
03F800
0FFE00
1FFF00
3FFF00
7C0600
780000
F80000
F00000
F00000
F00780
F00780
F80780
780780
7C0780
3FBF80
1FFF80
0FFE00
03F800
ENDCHAR
STARTCHAR 011D
ENCODING 285
SWIDTH 720 0
DWIDTH 18 0
BBX 15 24 1 -5
BITMAP
07C0
0FE0
0EF0
1830
0000
0F9E
3FFE
7FFE
7C7E
F03E
F01E
F01E
F01E
F03E
F87E
7FFE
3FFE
1FDE
001E
003C
787C
7FF8
7FF0
1FC0
ENDCHAR
STARTCHAR 011E
ENCODING 286
SWIDTH 760 0
DWIDTH 19 0
BBX 17 23 1 0
BITMAP
060C00
071C00
03F800
01F000
000000
03F800
0FFE00
1FFF00
3FFF00
7C0600
780000
F80000
F00000
F00000
F00780
F00780
F80780
780780
7C0780
3FBF80
1FFF80
0FFE00
03F800
ENDCHAR
STARTCHAR 011F
ENCODING 287
SWIDTH 720 0
DWIDTH 18 0
BBX 15 24 1 -5
BITMAP
1C30
1C70
0FE0
0380
0000
0F9E
3FFE
7FFE
7C7E
F03E
F01E
F01E
F01E
F03E
F87E
7FFE
3FFE
1FDE
001E
003C
787C
7FF8
7FF0
1FC0
ENDCHAR
STARTCHAR 0120
ENCODING 288
SWIDTH 760 0
DWIDTH 19 0
BBX 17 23 1 0
BITMAP
00E000
01F000
01E000
00E000
000000
03F800
0FFE00
1FFF00
3FFF00
7C0600
780000
F80000
F00000
F00000
F00780
F00780
F80780
780780
7C0780
3FBF80
1FFF80
0FFE00
03F800
ENDCHAR
STARTCHAR 0121
ENCODING 289
SWIDTH 720 0
DWIDTH 18 0
BBX 15 25 1 -5
BITMAP
0380
03C0
07C0
0380
0000
0000
0F9E
3FFE
7FFE
7C7E
F03E
F01E
F01E
F01E
F03E
F87E
7FFE
3FFE
1FDE
001E
003C
787C
7FF8
7FF0
1FC0
ENDCHAR
STARTCHAR 0122
ENCODING 290
SWIDTH 760 0
DWIDTH 19 0
BBX 17 24 1 -6
BITMAP
03F800
0FFE00
1FFF00
3FFF00
7C0600
780000
F80000
F00000
F00000
F00780
F00780
F80780
780780
7C0780
3FBF80
1FFF80
0FFE00
03F800
000000
00C000
01E000
00E000
00C000
00C000
ENDCHAR
STARTCHAR 0123
ENCODING 291
SWIDTH 720 0
DWIDTH 18 0
BBX 15 25 1 -5
BITMAP
0180
0380
0380
0380
0380
0000
0F9E
3FFE
7FFE
7C7E
F03E
F01E
F01E
F01E
F03E
F87E
7FFE
3FFE
1FDE
001E
003C
787C
7FF8
7FF0
1FC0
ENDCHAR
STARTCHAR 0124
ENCODING 292
SWIDTH 800 0
DWIDTH 20 0
BBX 16 23 2 0
BITMAP
03C0
07E0
0E70
1C38
0000
F00F
F00F
F00F
F00F
F00F
F00F
F00F
FFFF
FFFF
FFFF
F00F
F00F
F00F
F00F
F00F
F00F
F00F
F00F
ENDCHAR
STARTCHAR 0125
ENCODING 293
SWIDTH 680 0
DWIDTH 17 0
BBX 17 24 -1 0
BITMAP
1E0000
3F0000
738000
E1C000
000000
1E0000
1E0000
1E0000
1E0000
1E0000
1EFC00
1FFE00
1FFF00
1F9F00
1E0F00
1E0780
1E0780
1E0780
1E0780
1E0780
1E0780
1E0780
1E0780
1E0780
ENDCHAR
STARTCHAR 0126
ENCODING 294
SWIDTH 840 0
DWIDTH 21 0
BBX 21 18 0 0
BITMAP
3C03C0
3C03C0
FFFFF8
FFFFF8
FFFFF8
3C03C0
3C03C0
3FFFC0
3FFFC0
3FFFC0
3C03C0
3C03C0
3C03C0
3C03C0
3C03C0
3C03C0
3C03C0
3C03C0
ENDCHAR
STARTCHAR 0127
ENCODING 295
SWIDTH 680 0
DWIDTH 17 0
BBX 16 19 0 0
BITMAP
3C00
3C00
FFC0
FFC0
3C00
3DF8
3FFC
3FFE
3F3E
3C1E
3C0F
3C0F
3C0F
3C0F
3C0F
3C0F
3C0F
3C0F
3C0F
ENDCHAR
STARTCHAR 0128
ENCODING 296
SWIDTH 320 0
DWIDTH 8 0
BBX 10 23 -1 0
BITMAP
78C0
7DC0
EF80
0780
0000
1E00
1E00
1E00
1E00
1E00
1E00
1E00
1E00
1E00
1E00
1E00
1E00
1E00
1E00
1E00
1E00
1E00
1E00
ENDCHAR
STARTCHAR 0129
ENCODING 297
SWIDTH 320 0
DWIDTH 8 0
BBX 8 19 0 0
BITMAP
73
FF
DE
C4
00
3C
3C
3C
3C
3C
3C
3C
3C
3C
3C
3C
3C
3C
3C
ENDCHAR
STARTCHAR 012A
ENCODING 298
SWIDTH 320 0
DWIDTH 8 0
BBX 8 22 0 0
BITMAP
FF
FF
00
00
3C
3C
3C
3C
3C
3C
3C
3C
3C
3C
3C
3C
3C
3C
3C
3C
3C
3C
ENDCHAR
STARTCHAR 012B
ENCODING 299
SWIDTH 320 0
DWIDTH 8 0
BBX 7 19 0 0
BITMAP
FE
FE
00
00
00
3C
3C
3C
3C
3C
3C
3C
3C
3C
3C
3C
3C
3C
3C
ENDCHAR
STARTCHAR 012C
ENCODING 300
SWIDTH 320 0
DWIDTH 8 0
BBX 9 23 0 0
BITMAP
C380
E300
FF00
3C00
0000
3C00
3C00
3C00
3C00
3C00
3C00
3C00
3C00
3C00
3C00
3C00
3C00
3C00
3C00
3C00
3C00
3C00
3C00
ENDCHAR
STARTCHAR 012D
ENCODING 301
SWIDTH 320 0
DWIDTH 8 0
BBX 8 19 0 0
BITMAP
C7
E6
7E
38
00
3C
3C
3C
3C
3C
3C
3C
3C
3C
3C
3C
3C
3C
3C
ENDCHAR
STARTCHAR 012E
ENCODING 302
SWIDTH 320 0
DWIDTH 8 0
BBX 5 24 2 -6
BITMAP
F0
F0
F0
F0
F0
F0
F0
F0
F0
F0
F0
F0
F0
F0
F0
F0
F0
F0
70
E0
E0
E0
F8
70
ENDCHAR
STARTCHAR 012F
ENCODING 303
SWIDTH 320 0
DWIDTH 8 0
BBX 5 26 1 -6
BITMAP
78
F8
F8
70
00
00
78
78
78
78
78
78
78
78
78
78
78
78
78
78
30
60
60
60
78
30
ENDCHAR
STARTCHAR 0130
ENCODING 304
SWIDTH 320 0
DWIDTH 8 0
BBX 4 24 2 0
BITMAP
60
F0
F0
F0
00
00
F0
F0
F0
F0
F0
F0
F0
F0
F0
F0
F0
F0
F0
F0
F0
F0
F0
F0
ENDCHAR
STARTCHAR 0131
ENCODING 305
SWIDTH 320 0
DWIDTH 8 0
BBX 4 14 2 0
BITMAP
F0
F0
F0
F0
F0
F0
F0
F0
F0
F0
F0
F0
F0
F0
ENDCHAR
STARTCHAR 0132
ENCODING 306
SWIDTH 720 0
DWIDTH 18 0
BBX 14 18 2 0
BITMAP
F03C
F03C
F03C
F03C
F03C
F03C
F03C
F03C
F03C
F03C
003C
003C
003C
407C
F9F8
FFF0
FFE0
1F80
ENDCHAR
STARTCHAR 0133
ENCODING 307
SWIDTH 600 0
DWIDTH 15 0
BBX 13 25 1 -5
BITMAP
7870
F8F8
F8F8
7070
0000
0000
78F0
78F0
78F0
78F0
78F0
78F0
78F0
78F0
78F0
78F0
78F0
78F0
78F0
78F0
00F0
00F0
07F0
0FE0
07C0
ENDCHAR
STARTCHAR 0134
ENCODING 308
SWIDTH 560 0
DWIDTH 14 0
BBX 12 23 0 0
BITMAP
0F80
1FC0
1DE0
3060
0000
7FF0
7FF0
7FF0
00F0
00F0
00F0
00F0
00F0
00F0
00F0
00F0
00F0
00F0
61E0
F3E0
FFE0
7FC0
3F00
ENDCHAR
STARTCHAR 0135
ENCODING 309
SWIDTH 320 0
DWIDTH 8 0
BBX 10 24 -2 -5
BITMAP
0F00
1F80
3980
31C0
0000
0F00
0F00
0F00
0F00
0F00
0F00
0F00
0F00
0F00
0F00
0F00
0F00
0F00
0F00
0F00
1F00
FE00
FE00
F800
ENDCHAR
STARTCHAR 0136
ENCODING 310
SWIDTH 760 0
DWIDTH 19 0
BBX 16 25 2 -7
BITMAP
F01F
F03E
F03C
F078
F0F0
F1E0
F3C0
F7C0
FF80
FFC0
FFE0
FDF0
F8F8
F0F8
F07C
F03E
F01F
F00F
0000
0000
0380
0380
0380
0380
0300
ENDCHAR
STARTCHAR 0137
ENCODING 311
SWIDTH 680 0
DWIDTH 17 0
BBX 14 26 2 -7
BITMAP
F000
F000
F000
F000
F000
F07C
F0F8
F1F0
F3E0
F7C0
FF80
FF80
FFC0
FFC0
FBE0
F1F0
F0F8
F078
F07C
0000
0000
0600
0F00
0600
0600
0600
ENDCHAR
STARTCHAR 0138
ENCODING 312
SWIDTH 640 0
DWIDTH 16 0
BBX 14 14 2 0
BITMAP
F07C
F0F8
F1F0
F3E0
F7C0
FF80
FF80
FFC0
FFC0
FBE0
F1F0
F0F8
F078
F07C
ENDCHAR
STARTCHAR 0139
ENCODING 313
SWIDTH 600 0
DWIDTH 15 0
BBX 13 23 2 0
BITMAP
1E00
3C00
7000
E000
0000
F000
F000
F000
F000
F000
F000
F000
F000
F000
F000
F000
F000
F000
F000
F000
FFF8
FFF8
FFF8
ENDCHAR
STARTCHAR 013A
ENCODING 314
SWIDTH 320 0
DWIDTH 8 0
BBX 7 25 2 0
BITMAP
1E
3C
70
E0
00
00
F0
F0
F0
F0
F0
F0
F0
F0
F0
F0
F0
F0
F0
F0
F0
F0
F0
F0
F0
ENDCHAR
STARTCHAR 013B
ENCODING 315
SWIDTH 600 0
DWIDTH 15 0
BBX 13 25 2 -7
BITMAP
F000
F000
F000
F000
F000
F000
F000
F000
F000
F000
F000
F000
F000
F000
F000
FFF8
FFF8
FFF8
0000
0000
0700
0700
0700
0300
0600
ENDCHAR
STARTCHAR 013C
ENCODING 316
SWIDTH 320 0
DWIDTH 8 0
BBX 4 26 2 -7
BITMAP
F0
F0
F0
F0
F0
F0
F0
F0
F0
F0
F0
F0
F0
F0
F0
F0
F0
F0
F0
00
00
E0
E0
E0
60
C0
ENDCHAR
STARTCHAR 013D
ENCODING 317
SWIDTH 600 0
DWIDTH 15 0
BBX 13 19 2 0
BITMAP
0070
F070
F060
F060
F060
F000
F000
F000
F000
F000
F000
F000
F000
F000
F000
F000
FFF8
FFF8
FFF8
ENDCHAR
STARTCHAR 013E
ENCODING 318
SWIDTH 320 0
DWIDTH 8 0
BBX 9 20 2 0
BITMAP
0380
F300
F300
F300
F300
F000
F000
F000
F000
F000
F000
F000
F000
F000
F000
F000
F000
F000
F000
F000
ENDCHAR
STARTCHAR 013F
ENCODING 319
SWIDTH 600 0
DWIDTH 15 0
BBX 13 18 2 0
BITMAP
F000
F000
F000
F000
F000
F0E0
F0F0
F0F0
F0E0
F000
F000
F000
F000
F000
F000
FFF8
FFF8
FFF8
ENDCHAR
STARTCHAR 0140
ENCODING 320
SWIDTH 440 0
DWIDTH 11 0
BBX 9 19 2 0
BITMAP
F000
F000
F000
F000
F000
F000
F000
F000
F300
F780
F780
F300
F000
F000
F000
F000
F000
F000
F000
ENDCHAR
STARTCHAR 0141
ENCODING 321
SWIDTH 600 0
DWIDTH 15 0
BBX 15 18 0 0
BITMAP
3C00
3C00
3C00
3C80
3DC0
3FC0
3F80
3E00
3C00
7C00
FC00
7C00
3C00
3C00
3C00
3FFE
3FFE
3FFE
ENDCHAR
STARTCHAR 0142
ENCODING 322
SWIDTH 320 0
DWIDTH 8 0
BBX 9 19 0 0
BITMAP
3C00
3C00
3C00
3C00
3C00
3C00
3F00
3F80
3F00
3C00
7C00
FC00
FC00
3C00
3C00
3C00
3C00
3C00
3C00
ENDCHAR
STARTCHAR 0143
ENCODING 323
SWIDTH 800 0
DWIDTH 20 0
BBX 16 23 2 0
BITMAP
0078
00F0
01C0
0380
0000
F00F
F80F
F80F
FC0F
FE0F
FF0F
FF8F
FF8F
F7CF
F3EF
F1FF
F0FF
F0FF
F07F
F03F
F01F
F00F
F00F
ENDCHAR
STARTCHAR 0144
ENCODING 324
SWIDTH 680 0
DWIDTH 17 0
BBX 14 19 2 0
BITMAP
01E0
03C0
0780
0700
0000
F7E0
FFF0
FFF8
FCF8
F078
F03C
F03C
F03C
F03C
F03C
F03C
F03C
F03C
F03C
ENDCHAR
STARTCHAR 0145
ENCODING 325
SWIDTH 800 0
DWIDTH 20 0
BBX 16 25 2 -7
BITMAP
F00F
F80F
F80F
FC0F
FE0F
FF0F
FF8F
FF8F
F7CF
F3EF
F1FF
F0FF
F0FF
F07F
F03F
F01F
F00F
F00F
0000
0000
0180
03C0
01C0
0180
0180
ENDCHAR
STARTCHAR 0146
ENCODING 326
SWIDTH 680 0
DWIDTH 17 0
BBX 14 21 2 -7
BITMAP
F7E0
FFF0
FFF8
FCF8
F078
F03C
F03C
F03C
F03C
F03C
F03C
F03C
F03C
F03C
0000
0000
0700
0700
0700
0300
0600
ENDCHAR
STARTCHAR 0147
ENCODING 327
SWIDTH 800 0
DWIDTH 20 0
BBX 16 23 2 0
BITMAP
0E38
0F70
07E0
03C0
0000
F00F
F80F
F80F
FC0F
FE0F
FF0F
FF8F
FF8F
F7CF
F3EF
F1FF
F0FF
F0FF
F07F
F03F
F01F
F00F
F00F
ENDCHAR
STARTCHAR 0148
ENCODING 328
SWIDTH 680 0
DWIDTH 17 0
BBX 14 19 2 0
BITMAP
38E0
1DC0
0F80
0780
0000
F7E0
FFF0
FFF8
FCF8
F078
F03C
F03C
F03C
F03C
F03C
F03C
F03C
F03C
F03C
ENDCHAR
STARTCHAR 0149
ENCODING 329
SWIDTH 840 0
DWIDTH 21 0
BBX 18 18 1 0
BITMAP
E00000
C00000
C00000
C00000
CF3E00
CFFF00
CFFF80
0FCF80
0F87C0
0F03C0
0F03C0
0F03C0
0F03C0
0F03C0
0F03C0
0F03C0
0F03C0
0F03C0
ENDCHAR
STARTCHAR 014A
ENCODING 330
SWIDTH 800 0
DWIDTH 20 0
BBX 16 23 2 -5
BITMAP
F00F
F80F
F80F
FC0F
FE0F
FF0F
FF8F
FF8F
F7CF
F3EF
F1FF
F0FF
F0FF
F07F
F03F
F01F
F00F
F00F
000F
039F
03FE
07FC
01F8
ENDCHAR
STARTCHAR 014B
ENCODING 331
SWIDTH 680 0
DWIDTH 17 0
BBX 14 19 2 -5
BITMAP
F7E0
FFF0
FFF8
FCF8
F078
F03C
F03C
F03C
F03C
F03C
F03C
F03C
F03C
F03C
003C
0278
03F8
03F0
03E0
ENDCHAR
STARTCHAR 014C
ENCODING 332
SWIDTH 840 0
DWIDTH 21 0
BBX 19 22 1 0
BITMAP
07FC00
07FC00
000000
000000
03F800
0FFE00
1FFF00
3FBF80
7C07C0
7803C0
F803E0
F001E0
F001E0
F001E0
F001E0
F801E0
7803C0
7C07C0
3FBF80
1FFF00
0FFE00
03F800
ENDCHAR
STARTCHAR 014D
ENCODING 333
SWIDTH 640 0
DWIDTH 16 0
BBX 15 18 1 0
BITMAP
1FF0
1FF0
0000
0000
0FC0
1FF0
7FF8
7C7C
F03C
F03C
F01E
F01E
F03C
F83C
7C7C
7FF8
3FF0
0FC0
ENDCHAR
STARTCHAR 014E
ENCODING 334
SWIDTH 840 0
DWIDTH 21 0
BBX 19 23 1 0
BITMAP
060C00
071C00
03F800
01F000
000000
03F800
0FFE00
1FFF00
3FBF80
7C07C0
7803C0
F803E0
F001E0
F001E0
F001E0
F001E0
F801E0
7803C0
7C07C0
3FBF80
1FFF00
0FFE00
03F800
ENDCHAR
STARTCHAR 014F
ENCODING 335
SWIDTH 640 0
DWIDTH 16 0
BBX 15 19 1 0
BITMAP
1870
1C60
0FE0
0780
0000
0FC0
1FF0
7FF8
7C7C
F03C
F03C
F01E
F01E
F03C
F83C
7C7C
7FF8
3FF0
0FC0
ENDCHAR
STARTCHAR 0150
ENCODING 336
SWIDTH 840 0
DWIDTH 21 0
BBX 19 23 1 0
BITMAP
01EF00
01CE00
03DE00
039C00
000000
03F800
0FFE00
1FFF00
3FBF80
7C07C0
7803C0
F803E0
F001E0
F001E0
F001E0
F001E0
F801E0
7803C0
7C07C0
3FBF80
1FFF00
0FFE00
03F800
ENDCHAR
STARTCHAR 0151
ENCODING 337
SWIDTH 640 0
DWIDTH 16 0
BBX 15 19 1 0
BITMAP
0738
0F78
0E70
1CE0
0000
0FC0
1FF0
7FF8
7C7C
F03C
F03C
F01E
F01E
F03C
F83C
7C7C
7FF8
3FF0
0FC0
ENDCHAR
STARTCHAR 0152
ENCODING 338
SWIDTH 1120 0
DWIDTH 28 0
BBX 26 18 1 0
BITMAP
03FFFFC0
0FFFFFC0
1FFFFFC0
3F878000
7C078000
78078000
F0078000
F007FF80
F007FF80
F007FF80
F0078000
F8078000
78078000
7C078000
3F878000
1FFFFFC0
0FFFFFC0
03FFFFC0
ENDCHAR
STARTCHAR 0153
ENCODING 339
SWIDTH 1080 0
DWIDTH 27 0
BBX 25 14 1 0
BITMAP
0FC1F800
3FF7FC00
7FFFFE00
7C7F0F00
F03E0700
F03E0780
F01FFF80
F01FFF80
F03E0000
F83E0000
7C7F8E00
7FFFFF00
3FF7FE00
0FC1F800
ENDCHAR
STARTCHAR 0154
ENCODING 340
SWIDTH 720 0
DWIDTH 18 0
BBX 15 23 2 0
BITMAP
00F0
01E0
03C0
0700
0000
FFE0
FFF8
FFFC
F07E
F03E
F01E
F01E
F01E
F01E
F07E
FFFC
FFF8
FFF0
F0F0
F078
F03C
F03E
F01E
ENDCHAR
STARTCHAR 0155
ENCODING 341
SWIDTH 440 0
DWIDTH 11 0
BBX 9 19 2 0
BITMAP
0780
0E00
1C00
3800
0000
F700
FF00
FF00
FF00
F800
F000
F000
F000
F000
F000
F000
F000
F000
F000
ENDCHAR
STARTCHAR 0156
ENCODING 342
SWIDTH 720 0
DWIDTH 18 0
BBX 15 25 2 -7
BITMAP
FFE0
FFF8
FFFC
F07E
F03E
F01E
F01E
F01E
F01E
F07E
FFFC
FFF8
FFF0
F0F0
F078
F03C
F03E
F01E
0000
0000
0380
0380
0380
0300
0300
ENDCHAR
STARTCHAR 0157
ENCODING 343
SWIDTH 440 0
DWIDTH 11 0
BBX 8 21 2 -7
BITMAP
F7
FF
FF
FF
F8
F0
F0
F0
F0
F0
F0
F0
F0
F0
00
00
E0
E0
E0
60
C0
ENDCHAR
STARTCHAR 0158
ENCODING 344
SWIDTH 720 0
DWIDTH 18 0
BBX 15 23 2 0
BITMAP
1C70
0EE0
07C0
0380
0000
FFE0
FFF8
FFFC
F07E
F03E
F01E
F01E
F01E
F01E
F07E
FFFC
FFF8
FFF0
F0F0
F078
F03C
F03E
F01E
ENDCHAR
STARTCHAR 0159
ENCODING 345
SWIDTH 440 0
DWIDTH 11 0
BBX 10 19 1 0
BITMAP
E1C0
7F80
3F00
1E00
0000
7B80
7F80
7F80
7F80
7C00
7800
7800
7800
7800
7800
7800
7800
7800
7800
ENDCHAR
STARTCHAR 015A
ENCODING 346
SWIDTH 640 0
DWIDTH 16 0
BBX 14 23 1 0
BITMAP
00F0
01E0
03C0
0780
0000
0FE0
3FF8
7FF8
FC78
F000
F000
F800
FE00
7FE0
3FF8
0FFC
00FC
003C
403C
F8FC
FFF8
FFF0
1FC0
ENDCHAR
STARTCHAR 015B
ENCODING 347
SWIDTH 520 0
DWIDTH 13 0
BBX 12 19 1 0
BITMAP
03C0
0780
0F00
1C00
0000
1FC0
7FE0
FFE0
F040
F000
F800
FF80
7FE0
0FE0
00F0
C0F0
FFE0
FFC0
3F80
ENDCHAR
STARTCHAR 015C
ENCODING 348
SWIDTH 640 0
DWIDTH 16 0
BBX 14 23 1 0
BITMAP
0780
0FC0
1EE0
1C70
0000
0FE0
3FF8
7FF8
FC78
F000
F000
F800
FE00
7FE0
3FF8
0FFC
00FC
003C
403C
F8FC
FFF8
FFF0
1FC0
ENDCHAR
STARTCHAR 015D
ENCODING 349
SWIDTH 520 0
DWIDTH 13 0
BBX 12 19 1 0
BITMAP
1F00
3F80
3BC0
60C0
0000
1FC0
7FE0
FFE0
F040
F000
F800
FF80
7FE0
0FE0
00F0
C0F0
FFE0
FFC0
3F80
ENDCHAR
STARTCHAR 015E
ENCODING 350
SWIDTH 640 0
DWIDTH 16 0
BBX 14 24 1 -6
BITMAP
0FE0
3FF8
7FF8
FC78
F000
F000
F800
FE00
7FE0
3FF8
0FFC
00FC
003C
403C
F8FC
FFF8
FFF0
1FC0
0300
0380
01C0
01C0
0FC0
0700
ENDCHAR
STARTCHAR 015F
ENCODING 351
SWIDTH 520 0
DWIDTH 13 0
BBX 12 20 1 -6
BITMAP
1FC0
7FE0
FFE0
F040
F000
F800
FF80
7FE0
0FE0
00F0
C0F0
FFE0
FFC0
3F80
0C00
0F00
0300
0300
1F00
1E00
ENDCHAR
STARTCHAR 0160
ENCODING 352
SWIDTH 640 0
DWIDTH 16 0
BBX 14 23 1 0
BITMAP
3870
1CE0
0FC0
0780
0000
0FE0
3FF8
7FF8
FC78
F000
F000
F800
FE00
7FE0
3FF8
0FFC
00FC
003C
403C
F8FC
FFF8
FFF0
1FC0
ENDCHAR
STARTCHAR 0161
ENCODING 353
SWIDTH 520 0
DWIDTH 13 0
BBX 12 19 1 0
BITMAP
71C0
3B80
1F00
0E00
0000
1FC0
7FE0
FFE0
F040
F000
F800
FF80
7FE0
0FE0
00F0
C0F0
FFE0
FFC0
3F80
ENDCHAR
STARTCHAR 0162
ENCODING 354
SWIDTH 600 0
DWIDTH 15 0
BBX 15 24 0 -6
BITMAP
FFFE
FFFE
FFFE
03C0
03C0
03C0
03C0
03C0
03C0
03C0
03C0
03C0
03C0
03C0
03C0
03C0
03C0
03C0
0380
03C0
00C0
00E0
07C0
0780
ENDCHAR
STARTCHAR 0163
ENCODING 355
SWIDTH 440 0
DWIDTH 11 0
BBX 10 22 0 -6
BITMAP
3C00
3C00
3C00
FFC0
FFC0
FFC0
3C00
3C00
3C00
3C00
3C00
3C00
3E00
1FC0
1FC0
07C0
0600
0780
0180
0180
0F80
0F00
ENDCHAR
STARTCHAR 0164
ENCODING 356
SWIDTH 600 0
DWIDTH 15 0
BBX 15 23 0 0
BITMAP
1C70
0EE0
07C0
03C0
0000
FFFE
FFFE
FFFE
03C0
03C0
03C0
03C0
03C0
03C0
03C0
03C0
03C0
03C0
03C0
03C0
03C0
03C0
03C0
ENDCHAR
STARTCHAR 0165
ENCODING 357
SWIDTH 440 0
DWIDTH 11 0
BBX 11 20 0 0
BITMAP
00E0
00E0
00C0
3CC0
3CC0
3C00
3C00
FFC0
FFC0
FFC0
3C00
3C00
3C00
3C00
3C00
3C00
3E00
1FC0
1FC0
07C0
ENDCHAR
STARTCHAR 0166
ENCODING 358
SWIDTH 600 0
DWIDTH 15 0
BBX 15 18 0 0
BITMAP
FFFE
FFFE
FFFE
03C0
03C0
03C0
03C0
03C0
3FF8
3FF8
3FF8
03C0
03C0
03C0
03C0
03C0
03C0
03C0
ENDCHAR
STARTCHAR 0167
ENCODING 359
SWIDTH 440 0
DWIDTH 11 0
BBX 10 16 0 0
BITMAP
3C00
3C00
3C00
FFC0
FFC0
FFC0
3C00
3C00
7F80
7F80
3C00
3C00
1E40
1FC0
1FC0
07C0
ENDCHAR
STARTCHAR 0168
ENCODING 360
SWIDTH 800 0
DWIDTH 20 0
BBX 16 23 2 0
BITMAP
0F18
0FB8
19F0
00E0
0000
F00F
F00F
F00F
F00F
F00F
F00F
F00F
F00F
F00F
F00F
F00F
F00F
F01F
F81E
7FFE
3FFC
1FF8
07E0
ENDCHAR
STARTCHAR 0169
ENCODING 361
SWIDTH 680 0
DWIDTH 17 0
BBX 13 19 2 0
BITMAP
1C60
3FE0
33E0
3080
0000
F078
F078
F078
F078
F078
F078
F078
F078
F078
F078
FDF8
7FF8
7FB8
1F38
ENDCHAR
STARTCHAR 016A
ENCODING 362
SWIDTH 800 0
DWIDTH 20 0
BBX 16 22 2 0
BITMAP
1FF0
1FF0
0000
0000
F00F
F00F
F00F
F00F
F00F
F00F
F00F
F00F
F00F
F00F
F00F
F00F
F01F
F81E
7FFE
3FFC
1FF8
07E0
ENDCHAR
STARTCHAR 016B
ENCODING 363
SWIDTH 680 0
DWIDTH 17 0
BBX 13 19 2 0
BITMAP
3FE0
3FE0
0000
0000
0000
F078
F078
F078
F078
F078
F078
F078
F078
F078
F078
FDF8
7FF8
7FB8
1F38
ENDCHAR
STARTCHAR 016C
ENCODING 364
SWIDTH 800 0
DWIDTH 20 0
BBX 16 23 2 0
BITMAP
1C30
0C70
0FF0
07C0
0000
F00F
F00F
F00F
F00F
F00F
F00F
F00F
F00F
F00F
F00F
F00F
F00F
F01F
F81E
7FFE
3FFC
1FF8
07E0
ENDCHAR
STARTCHAR 016D
ENCODING 365
SWIDTH 680 0
DWIDTH 17 0
BBX 13 19 2 0
BITMAP
3860
38E0
1FC0
0700
0000
F078
F078
F078
F078
F078
F078
F078
F078
F078
F078
FDF8
7FF8
7FB8
1F38
ENDCHAR
STARTCHAR 016E
ENCODING 366
SWIDTH 800 0
DWIDTH 20 0
BBX 16 25 2 0
BITMAP
03C0
0660
0460
0660
03C0
0000
0000
F00F
F00F
F00F
F00F
F00F
F00F
F00F
F00F
F00F
F00F
F00F
F00F
F01F
F81E
7FFE
3FFC
1FF8
07E0
ENDCHAR
STARTCHAR 016F
ENCODING 367
SWIDTH 680 0
DWIDTH 17 0
BBX 13 21 2 0
BITMAP
0F80
0880
18C0
0880
0F80
0000
0000
F078
F078
F078
F078
F078
F078
F078
F078
F078
F078
FDF8
7FF8
7FB8
1F38
ENDCHAR
STARTCHAR 0170
ENCODING 368
SWIDTH 800 0
DWIDTH 20 0
BBX 16 23 2 0
BITMAP
079C
0738
0F38
0E70
0000
F00F
F00F
F00F
F00F
F00F
F00F
F00F
F00F
F00F
F00F
F00F
F00F
F01F
F81E
7FFE
3FFC
1FF8
07E0
ENDCHAR
STARTCHAR 0171
ENCODING 369
SWIDTH 680 0
DWIDTH 17 0
BBX 13 19 2 0
BITMAP
0F78
0E70
1CE0
1CE0
0000
F078
F078
F078
F078
F078
F078
F078
F078
F078
F078
FDF8
7FF8
7FB8
1F38
ENDCHAR
STARTCHAR 0172
ENCODING 370
SWIDTH 800 0
DWIDTH 20 0
BBX 16 24 2 -6
BITMAP
F00F
F00F
F00F
F00F
F00F
F00F
F00F
F00F
F00F
F00F
F00F
F00F
F01F
F81E
7EFE
3FFC
1FF8
0FE0
0380
0700
0700
0700
07E0
03C0
ENDCHAR
STARTCHAR 0173
ENCODING 371
SWIDTH 680 0
DWIDTH 17 0
BBX 14 20 2 -6
BITMAP
F078
F078
F078
F078
F078
F078
F078
F078
F078
F078
FDF8
7FF8
7FB8
1F38
0070
00E0
00C0
00E0
00FC
0078
ENDCHAR
STARTCHAR 0174
ENCODING 372
SWIDTH 1160 0
DWIDTH 29 0
BBX 27 23 1 0
BITMAP
001F0000
003F8000
003BC000
0060C000
00000000
F00F01E0
F01F01E0
F81F01E0
781F81C0
783F83C0
783F83C0
3C3BC380
3C7BC780
3C7BC780
1E71E700
1EF1EF00
1EF1EF00
0FE0EF00
0FE0FE00
0FE0FE00
0FC07E00
07C07C00
07C07C00
ENDCHAR
STARTCHAR 0175
ENCODING 373
SWIDTH 920 0
DWIDTH 23 0
BBX 23 19 0 0
BITMAP
007C00
007E00
00E700
01C380
000000
F03C0E
703C1E
787C1E
787E1C
387E3C
3CFE38
3CEF38
1CEF78
1DE770
1FC7F0
0FC3F0
0FC3E0
0F83E0
0781E0
ENDCHAR
STARTCHAR 0176
ENCODING 374
SWIDTH 680 0
DWIDTH 17 0
BBX 17 23 0 0
BITMAP
03E000
07F000
0F7000
0C3800
000000
F00780
780F00
780F00
3C1E00
3E1E00
1E3C00
1F7800
0F7800
07F000
07F000
03E000
03E000
03C000
03C000
03C000
03C000
03C000
03C000
ENDCHAR
STARTCHAR 0177
ENCODING 375
SWIDTH 600 0
DWIDTH 15 0
BBX 15 24 0 -5
BITMAP
0780
0FC0
1CE0
3870
0000
F01E
F01E
783C
783C
3C38
3C78
3C70
1EF0
1EF0
0FE0
0FE0
07C0
07C0
07C0
0780
4780
FF00
FE00
7C00
ENDCHAR
STARTCHAR 0178
ENCODING 376
SWIDTH 680 0
DWIDTH 17 0
BBX 17 23 0 0
BITMAP
063000
0F7800
0E7800
000000
000000
F00780
780F00
780F00
3C1E00
3E1E00
1E3C00
1F7800
0F7800
07F000
07F000
03E000
03E000
03C000
03C000
03C000
03C000
03C000
03C000
ENDCHAR
STARTCHAR 0179
ENCODING 377
SWIDTH 680 0
DWIDTH 17 0
BBX 15 23 1 0
BITMAP
00F0
01E0
03C0
0780
0000
FFFE
FFFE
FFFE
007C
0078
00F8
01F0
03E0
07C0
0780
0F80
1F00
3E00
7C00
7800
FFFE
FFFE
FFFE
ENDCHAR
STARTCHAR 017A
ENCODING 378
SWIDTH 560 0
DWIDTH 14 0
BBX 12 19 1 0
BITMAP
03E0
0380
0700
0E00
0000
FFF0
FFF0
FFF0
03E0
03C0
0780
0F00
1F00
3E00
3C00
7800
FFF0
FFF0
FFF0
ENDCHAR
STARTCHAR 017B
ENCODING 379
SWIDTH 680 0
DWIDTH 17 0
BBX 15 24 1 0
BITMAP
0380
03C0
03C0
0380
0000
0000
FFFE
FFFE
FFFE
007C
0078
00F8
01F0
03E0
07C0
0780
0F80
1F00
3E00
7C00
7800
FFFE
FFFE
FFFE
ENDCHAR
STARTCHAR 017C
ENCODING 380
SWIDTH 560 0
DWIDTH 14 0
BBX 12 20 1 0
BITMAP
0600
0F00
0F00
0E00
0000
0000
FFF0
FFF0
FFF0
03E0
03C0
0780
0F00
1F00
3E00
3C00
7800
FFF0
FFF0
FFF0
ENDCHAR
STARTCHAR 017D
ENCODING 381
SWIDTH 680 0
DWIDTH 17 0
BBX 15 23 1 0
BITMAP
1C70
0EE0
07C0
0380
0000
FFFE
FFFE
FFFE
007C
0078
00F8
01F0
03E0
07C0
0780
0F80
1F00
3E00
7C00
7800
FFFE
FFFE
FFFE
ENDCHAR
STARTCHAR 017E
ENCODING 382
SWIDTH 560 0
DWIDTH 14 0
BBX 12 19 1 0
BITMAP
71C0
3BC0
1F80
0F00
0000
FFF0
FFF0
FFF0
03E0
03C0
0780
0F00
1F00
3E00
3C00
7800
FFF0
FFF0
FFF0
ENDCHAR
STARTCHAR 017F
ENCODING 383
SWIDTH 320 0
DWIDTH 8 0
BBX 10 19 0 0
BITMAP
07C0
0FC0
1FC0
1E40
1E00
1C00
FC00
FC00
FC00
1C00
1C00
1C00
1C00
1C00
1C00
1C00
1C00
1C00
1C00
ENDCHAR
STARTCHAR 018F
ENCODING 399
SWIDTH 800 0
DWIDTH 20 0
BBX 18 18 1 0
BITMAP
03F000
1FFC00
3FFF00
3F7F80
180F80
0007C0
0003C0
0003C0
FFFFC0
FFFFC0
FFFFC0
F003C0
7803C0
7C0780
3E1F80
1FFF00
0FFE00
03F000
ENDCHAR
STARTCHAR 0192
ENCODING 402
SWIDTH 480 0
DWIDTH 12 0
BBX 14 24 -2 -5
BITMAP
007C
00FC
01FC
01E4
03C0
03C0
0FF8
0FF8
0FF8
03C0
0780
0780
0780
0780
0780
0780
0780
0780
0F00
0F00
0F00
FF00
FE00
F800
ENDCHAR
STARTCHAR 01A0
ENCODING 416
SWIDTH 840 0
DWIDTH 21 0
BBX 19 21 1 1
BITMAP
0000E0
0000E0
0000E0
03FFE0
0FFFC0
1FFF80
3FBF80
7C07C0
7803C0
F803E0
F001E0
F001E0
F001E0
F001E0
F801E0
7803C0
7C07C0
3FBF80
1FFF00
0FFE00
03F800
ENDCHAR
STARTCHAR 01A1
ENCODING 417
SWIDTH 640 0
DWIDTH 16 0
BBX 15 18 1 0
BITMAP
0004
001C
000C
000C
0FFC
1FF8
7FF8
7C7C
F03C
F03C
F01E
F01E
F03C
F83C
7C7C
7FF8
3FF0
0FC0
ENDCHAR
STARTCHAR 01AF
ENCODING 431
SWIDTH 800 0
DWIDTH 20 0
BBX 18 22 2 0
BITMAP
000040
0000C0
0000C0
0000C0
F00FC0
F00F80
F00F00
F00F00
F00F00
F00F00
F00F00
F00F00
F00F00
F00F00
F00F00
F00F00
F01F00
F81E00
7FFE00
3FFC00
1FF800
07E000
ENDCHAR
STARTCHAR 01B0
ENCODING 432
SWIDTH 720 0
DWIDTH 18 0
BBX 16 18 2 0
BITMAP
0002
0007
0007
0007
F07E
F07E
F078
F078
F078
F078
F078
F078
F078
F078
FDF8
7FF8
7FB8
1F38
ENDCHAR
STARTCHAR 01B7
ENCODING 439
SWIDTH 640 0
DWIDTH 16 0
BBX 14 18 1 0
BITMAP
FFF8
FFF8
FFF8
00F0
01E0
03C0
0780
0FC0
0FF0
0FF8
007C
003C
003C
403C
F8FC
FFF8
FFF0
1FC0
ENDCHAR
STARTCHAR 01C4
ENCODING 452
SWIDTH 1440 0
DWIDTH 36 0
BBX 34 23 2 0
BITMAP
0000070E00
000003FC00
000001F800
000000F000
0000000000
FFF01FFF80
FFFC1FFF80
FFFE1FFF80
F07F000F80
F00F801F00
F007803E00
F007807C00
F007C07800
F003C0F800
F003C1F000
F007C3E000
F00787C000
F007878000
F00F8F8000
F07F1F0000
FFFE3FFFC0
FFFC3FFFC0
FFE03FFFC0
ENDCHAR
STARTCHAR 01C5
ENCODING 453
SWIDTH 1360 0
DWIDTH 34 0
BBX 32 19 2 0
BITMAP
0000071C
FFF003B8
FFFC01F0
FFFE00E0
F07F0000
F00F8FFE
F0078FFE
F0078FFE
F007C03C
F003C07C
F003C0F8
F007C0F0
F00781E0
F00783C0
F00F87C0
F07F0F80
FFFE0FFF
FFFC0FFF
FFE00FFF
ENDCHAR
STARTCHAR 01C6
ENCODING 454
SWIDTH 1240 0
DWIDTH 31 0
BBX 29 19 1 0
BITMAP
001C3870
001C1FE0
001C0FC0
001C0780
001C0000
0F9C7FF8
3FDC7FF8
7FFC7FF8
787C01F0
F03C01E0
F03C03C0
F01C0780
F01C0F80
F03C1F00
F83C1E00
7C7C3C00
7FFC7FF8
3FFC7FF8
0F9C7FF8
ENDCHAR
STARTCHAR 01C7
ENCODING 455
SWIDTH 1160 0
DWIDTH 29 0
BBX 25 18 2 0
BITMAP
F001FF80
F001FF80
F001FF80
F0000780
F0000780
F0000780
F0000780
F0000780
F0000780
F0000780
F0000780
F0000780
F0000780
F0030F80
F0039F00
FFFFFF00
FFFFFE00
FFF9F800
ENDCHAR
STARTCHAR 01C8
ENCODING 456
SWIDTH 920 0
DWIDTH 23 0
BBX 19 25 2 -5
BITMAP
0001E0
0001E0
F001E0
F001E0
F00000
F00000
F001E0
F001E0
F001E0
F001E0
F001E0
F001E0
F001E0
F001E0
F001E0
F001E0
F001E0
FFF9E0
FFF9E0
FFF9E0
0001E0
0001E0
001FC0
001FC0
001F00
ENDCHAR
STARTCHAR 01C9
ENCODING 457
SWIDTH 600 0
DWIDTH 15 0
BBX 12 25 2 -5
BITMAP
00E0
F1F0
F1F0
F1E0
F000
F000
F1E0
F1E0
F1E0
F1E0
F1E0
F1E0
F1E0
F1E0
F1E0
F1E0
F1E0
F1E0
F1E0
F1E0
01E0
01E0
0FE0
1FC0
0F80
ENDCHAR
STARTCHAR 01CA
ENCODING 458
SWIDTH 1360 0
DWIDTH 34 0
BBX 30 18 2 0
BITMAP
F00F0FFC
F80F0FFC
F80F0FFC
FC0F003C
FE0F003C
FF0F003C
FF8F003C
FF8F003C
F7CF003C
F3EF003C
F1FF003C
F0FF003C
F0FF003C
F07F187C
F03F1CF8
F01F3FF8
F00F1FF0
F00F07C0
ENDCHAR
STARTCHAR 01CB
ENCODING 459
SWIDTH 1120 0
DWIDTH 28 0
BBX 25 25 2 -5
BITMAP
00000F00
00000F80
F00F0F00
F80F0700
F80F0000
FC0F0000
FE0F0F00
FF0F0F00
FF8F0F00
FF8F0F00
F7CF0F00
F3EF0F00
F1FF0F00
F0FF0F00
F0FF0F00
F07F0F00
F03F0F00
F01F0F00
F00F0F00
F00F0F00
00000F00
00000F00
00007F00
0000FE00
0000F800
ENDCHAR
STARTCHAR 01CC
ENCODING 460
SWIDTH 1000 0
DWIDTH 25 0
BBX 22 25 2 -5
BITMAP
000038
00007C
00007C
000078
000000
000000
F7E078
FFF078
FFF878
FCF878
F07878
F03C78
F03C78
F03C78
F03C78
F03C78
F03C78
F03C78
F03C78
F03C78
000078
000078
0003F8
0007F0
0007E0
ENDCHAR
STARTCHAR 01CD
ENCODING 461
SWIDTH 760 0
DWIDTH 19 0
BBX 19 23 0 0
BITMAP
071C00
03B800
01F000
00E000
000000
01F000
01F000
03F800
03F800
03BC00
07BC00
07BC00
0F1E00
0F1E00
1E0F00
1E0F00
1FFF80
3FFF80
3FFF80
7803C0
7803C0
F801E0
F001E0
ENDCHAR
STARTCHAR 01CE
ENCODING 462
SWIDTH 600 0
DWIDTH 15 0
BBX 13 19 1 0
BITMAP
38E0
1DC0
0F80
0700
0000
1F80
7FE0
7FF0
60F0
0078
0078
3FF8
7FF8
F078
F078
F0F8
FFF8
7FF8
3E78
ENDCHAR
STARTCHAR 01D3
ENCODING 467
SWIDTH 800 0
DWIDTH 20 0
BBX 16 23 2 0
BITMAP
1C70
0EF0
07E0
03C0
0000
F00F
F00F
F00F
F00F
F00F
F00F
F00F
F00F
F00F
F00F
F00F
F00F
F01F
F81E
7FFE
3FFC
1FF8
07E0
ENDCHAR
STARTCHAR 01D4
ENCODING 468
SWIDTH 680 0
DWIDTH 17 0
BBX 13 19 2 0
BITMAP
38E0
1DC0
0F80
0700
0000
F078
F078
F078
F078
F078
F078
F078
F078
F078
F078
FDF8
7FF8
7FB8
1F38
ENDCHAR
STARTCHAR 01E4
ENCODING 484
SWIDTH 800 0
DWIDTH 20 0
BBX 19 18 1 0
BITMAP
03F800
0FFE00
1FFF00
3FFF00
7C0600
780000
F80000
F00000
F00000
F00780
F07FE0
F87FE0
787FE0
7C0780
3FBF80
1FFF80
0FFE00
03F800
ENDCHAR
STARTCHAR 01E5
ENCODING 485
SWIDTH 720 0
DWIDTH 18 0
BBX 16 19 1 -5
BITMAP
0F9E
3FFE
7FFE
F83E
F03E
F01E
F01E
F03E
F83E
7FFE
3FFE
0F9E
001E
03FF
03FF
707C
7FF8
7FF0
1FC0
ENDCHAR
STARTCHAR 01E6
ENCODING 486
SWIDTH 760 0
DWIDTH 19 0
BBX 17 23 1 0
BITMAP
0E1C00
07B800
03F800
01F000
000000
03F800
0FFE00
1FFF00
3FFF00
7C0600
780000
F80000
F00000
F00000
F00780
F00780
F80780
780780
7C0780
3FBF80
1FFF80
0FFE00
03F800
ENDCHAR
STARTCHAR 01E7
ENCODING 487
SWIDTH 720 0
DWIDTH 18 0
BBX 15 24 1 -5
BITMAP
1C70
0EE0
07C0
0380
0000
0F9E
3FFE
7FFE
7C7E
F03E
F01E
F01E
F01E
F03E
F87E
7FFE
3FFE
1FDE
001E
003C
787C
7FF8
7FF0
1FC0
ENDCHAR
STARTCHAR 01E8
ENCODING 488
SWIDTH 760 0
DWIDTH 19 0
BBX 16 23 2 0
BITMAP
1C70
0EE0
07C0
0380
0000
F01F
F03E
F03C
F078
F0F0
F1E0
F3C0
F7C0
FF80
FFC0
FFE0
FDF0
F8F8
F0F8
F07C
F03E
F01F
F00F
ENDCHAR
STARTCHAR 01E9
ENCODING 489
SWIDTH 680 0
DWIDTH 17 0
BBX 17 25 -1 0
BITMAP
E1C000
738000
3F0000
1E0000
000000
000000
1E0000
1E0000
1E0000
1E0000
1E0000
1E0F80
1E1F00
1E3E00
1E7C00
1EF800
1FF000
1FF000
1FF800
1FF800
1F7C00
1E3E00
1E1F00
1E0F00
1E0F80
ENDCHAR
STARTCHAR 01EA
ENCODING 490
SWIDTH 840 0
DWIDTH 21 0
BBX 19 24 1 -6
BITMAP
03F800
0FFE00
1FFF00
3FBF80
7C07C0
7803C0
F803E0
F001E0
F001E0
F001E0
F001E0
F801E0
7803C0
7C07C0
3FBF80
1FFF00
0FFE00
03F800
00E000
018000
018000
018000
01F000
00E000
ENDCHAR
STARTCHAR 01EB
ENCODING 491
SWIDTH 640 0
DWIDTH 16 0
BBX 15 20 1 -6
BITMAP
0FC0
1FF0
7FF8
7C7C
F03C
F03C
F01E
F01E
F03C
F83C
7C7C
7FF8
3FF0
0FC0
0300
0600
0600
0600
07C0
0380
ENDCHAR
STARTCHAR 01EE
ENCODING 494
SWIDTH 640 0
DWIDTH 16 0
BBX 14 23 1 0
BITMAP
38E0
1DC0
0F80
0780
0000
FFF8
FFF8
FFF8
00F0
01E0
03C0
0780
0FC0
0FF0
0FF8
007C
003C
003C
403C
F8FC
FFF8
FFF0
1FC0
ENDCHAR
STARTCHAR 01EF
ENCODING 495
SWIDTH 560 0
DWIDTH 14 0
BBX 13 24 0 -5
BITMAP
38E0
3DC0
1F80
0F00
0000
FFF0
FFF0
FFF0
00F0
01E0
03C0
0780
0F00
0FE0
0FF0
0FF8
0078
0078
0078
4078
F9F8
FFF0
FFE0
3F80
ENDCHAR
STARTCHAR 01FA
ENCODING 506
SWIDTH 760 0
DWIDTH 19 0
BBX 19 27 0 0
BITMAP
000C00
001C00
01F800
011800
031800
011800
01F000
000000
000000
01F000
01F000
03F800
03F800
03BC00
07BC00
07BC00
0F1E00
0F1E00
1E0F00
1E0F00
1FFF80
3FFF80
3FFF80
7803C0
7803C0
F801E0
F001E0
ENDCHAR
STARTCHAR 01FB
ENCODING 507
SWIDTH 600 0
DWIDTH 15 0
BBX 13 23 1 0
BITMAP
0020
0070
07E0
0F80
08C0
08C0
0F80
0700
0000
1F80
7FE0
7FF0
60F0
0078
0078
3FF8
7FF8
F078
F078
F0F8
FFF8
7FF8
3E78
ENDCHAR
STARTCHAR 01FC
ENCODING 508
SWIDTH 1080 0
DWIDTH 27 0
BBX 26 23 0 0
BITMAP
0001E000
0003C000
00070000
000E0000
00000000
007FFFC0
007FFFC0
00FFFFC0
00FF0000
01EF0000
01EF0000
03CF0000
038FFF00
078FFF00
0F0FFF00
0F0F0000
1FFF0000
1FFF0000
3FFF0000
3C0F0000
780FFFC0
780FFFC0
F00FFFC0
ENDCHAR
STARTCHAR 01FD
ENCODING 509
SWIDTH 1000 0
DWIDTH 25 0
BBX 23 19 1 0
BITMAP
001E00
003C00
003800
007000
000000
1F87E0
7FEFF8
7FFFFC
60FC3C
00781E
00781E
3FFFFE
7FFFFE
F07800
F07C00
F0FE18
FFFFFC
7FCFF8
1F07E0
ENDCHAR
STARTCHAR 01FE
ENCODING 510
SWIDTH 840 0
DWIDTH 21 0
BBX 19 24 1 -1
BITMAP
001E00
003800
007000
00E000
0001C0
03FB80
0FFF00
1FFF00
3FBF80
7C1FC0
781BC0
F83BE0
F071E0
F061E0
F0E1E0
F1C1E0
FB81E0
7B03C0
7F07C0
3FBF80
1FFF00
1FFE00
3BF800
700000
ENDCHAR
STARTCHAR 01FF
ENCODING 511
SWIDTH 640 0
DWIDTH 16 0
BBX 15 21 1 -2
BITMAP
00F0
01C0
0380
0700
0018
0FF0
1FF0
7FF8
7CFC
F0FC
F1BC
F11E
F31E
F63C
FE3C
7C7C
7FF8
3FF0
3FC0
6000
6000
ENDCHAR
STARTCHAR 0200
ENCODING 512
SWIDTH 760 0
DWIDTH 19 0
BBX 19 23 0 0
BITMAP
1EF000
0E7000
073800
031800
000000
01F000
01F000
03F800
03F800
03BC00
07BC00
07BC00
0F1E00
0F1E00
1E0F00
1E0F00
1FFF80
3FFF80
3FFF80
7803C0
7803C0
F801E0
F001E0
ENDCHAR
STARTCHAR 0201
ENCODING 513
SWIDTH 600 0
DWIDTH 15 0
BBX 13 19 1 0
BITMAP
F780
73C0
39C0
18E0
0000
1F80
7FE0
7FF0
60F0
0078
0078
3FF8
7FF8
F078
F078
F0F8
FFF8
7FF8
3E78
ENDCHAR
STARTCHAR 0202
ENCODING 514
SWIDTH 760 0
DWIDTH 19 0
BBX 19 23 0 0
BITMAP
01F000
03F800
071C00
060C00
000000
01F000
01F000
03F800
03F800
03BC00
07BC00
07BC00
0F1E00
0F1E00
1E0F00
1E0F00
1FFF80
3FFF80
3FFF80
7803C0
7803C0
F801E0
F001E0
ENDCHAR
STARTCHAR 0203
ENCODING 515
SWIDTH 600 0
DWIDTH 15 0
BBX 13 19 1 0
BITMAP
0F80
1FC0
38E0
3060
0000
1F80
7FE0
7FF0
60F0
0078
0078
3FF8
7FF8
F078
F078
F0F8
FFF8
7FF8
3E78
ENDCHAR
STARTCHAR 0204
ENCODING 516
SWIDTH 680 0
DWIDTH 17 0
BBX 14 23 2 0
BITMAP
F380
7BC0
39C0
1CE0
0000
FFF8
FFF8
FFF8
F000
F000
F000
F000
FFF0
FFF0
FFF0
F000
F000
F000
F000
F000
FFFC
FFFC
FFFC
ENDCHAR
STARTCHAR 0205
ENCODING 517
SWIDTH 640 0
DWIDTH 16 0
BBX 14 19 1 0
BITMAP
7380
7BC0
39C0
1CE0
0000
0FC0
3FF0
7FF8
7878
F03C
F03C
FFFC
FFFC
F000
F000
7C30
7FF8
3FF0
0FC0
ENDCHAR
STARTCHAR 0206
ENCODING 518
SWIDTH 680 0
DWIDTH 17 0
BBX 14 23 2 0
BITMAP
0F80
1FE0
38E0
3860
0000
FFF8
FFF8
FFF8
F000
F000
F000
F000
FFF0
FFF0
FFF0
F000
F000
F000
F000
F000
FFFC
FFFC
FFFC
ENDCHAR
STARTCHAR 0207
ENCODING 519
SWIDTH 640 0
DWIDTH 16 0
BBX 14 19 1 0
BITMAP
0780
1FE0
18E0
3860
0000
0FC0
3FF0
7FF8
7878
F03C
F03C
FFFC
FFFC
F000
F000
7C30
7FF8
3FF0
0FC0
ENDCHAR
STARTCHAR 0208
ENCODING 520
SWIDTH 320 0
DWIDTH 8 0
BBX 10 23 -2 0
BITMAP
E700
7380
7380
39C0
0000
0F00
0F00
0F00
0F00
0F00
0F00
0F00
0F00
0F00
0F00
0F00
0F00
0F00
0F00
0F00
0F00
0F00
0F00
ENDCHAR
STARTCHAR 0209
ENCODING 521
SWIDTH 320 0
DWIDTH 8 0
BBX 10 19 -2 0
BITMAP
E700
F780
7380
39C0
0000
0F00
0F00
0F00
0F00
0F00
0F00
0F00
0F00
0F00
0F00
0F00
0F00
0F00
0F00
ENDCHAR
STARTCHAR 020A
ENCODING 522
SWIDTH 320 0
DWIDTH 8 0
BBX 9 23 0 0
BITMAP
3E00
FF00
E300
C380
0000
3C00
3C00
3C00
3C00
3C00
3C00
3C00
3C00
3C00
3C00
3C00
3C00
3C00
3C00
3C00
3C00
3C00
3C00
ENDCHAR
STARTCHAR 020B
ENCODING 523
SWIDTH 320 0
DWIDTH 8 0
BBX 8 19 0 0
BITMAP
3C
7E
E7
C7
00
3C
3C
3C
3C
3C
3C
3C
3C
3C
3C
3C
3C
3C
3C
ENDCHAR
STARTCHAR 020C
ENCODING 524
SWIDTH 840 0
DWIDTH 21 0
BBX 19 23 1 0
BITMAP
1EF000
0E7000
0F3800
073800
000000
03F800
0FFE00
1FFF00
3FBF80
7C07C0
7803C0
F803E0
F001E0
F001E0
F001E0
F001E0
F801E0
7803C0
7C07C0
3FBF80
1FFF00
0FFE00
03F800
ENDCHAR
STARTCHAR 020D
ENCODING 525
SWIDTH 640 0
DWIDTH 16 0
BBX 15 19 1 0
BITMAP
73C0
39C0
39E0
1CE0
0000
0FC0
1FF0
7FF8
7C7C
F03C
F03C
F01E
F01E
F03C
F83C
7C7C
7FF8
3FF0
0FC0
ENDCHAR
STARTCHAR 020E
ENCODING 526
SWIDTH 840 0
DWIDTH 21 0
BBX 19 23 1 0
BITMAP
01F000
03F800
071C00
060C00
000000
03F800
0FFE00
1FFF00
3FBF80
7C07C0
7803C0
F803E0
F001E0
F001E0
F001E0
F001E0
F801E0
7803C0
7C07C0
3FBF80
1FFF00
0FFE00
03F800
ENDCHAR
STARTCHAR 020F
ENCODING 527
SWIDTH 640 0
DWIDTH 16 0
BBX 15 19 1 0
BITMAP
07C0
1FE0
1C70
1870
0000
0FC0
1FF0
7FF8
7C7C
F03C
F03C
F01E
F01E
F03C
F83C
7C7C
7FF8
3FF0
0FC0
ENDCHAR
STARTCHAR 0210
ENCODING 528
SWIDTH 720 0
DWIDTH 18 0
BBX 15 23 2 0
BITMAP
7BC0
39C0
1CE0
1CE0
0000
FFE0
FFF8
FFFC
F07E
F03E
F01E
F01E
F01E
F01E
F07E
FFFC
FFF8
FFF0
F0F0
F078
F03C
F03E
F01E
ENDCHAR
STARTCHAR 0211
ENCODING 529
SWIDTH 440 0
DWIDTH 11 0
BBX 10 19 0 0
BITMAP
E700
F380
7380
39C0
0000
3DC0
3FC0
3FC0
3FC0
3E00
3C00
3C00
3C00
3C00
3C00
3C00
3C00
3C00
3C00
ENDCHAR
STARTCHAR 0212
ENCODING 530
SWIDTH 720 0
DWIDTH 18 0
BBX 15 23 2 0
BITMAP
07C0
0FE0
1C70
1870
0000
FFE0
FFF8
FFFC
F07E
F03E
F01E
F01E
F01E
F01E
F07E
FFFC
FFF8
FFF0
F0F0
F078
F03C
F03E
F01E
ENDCHAR
STARTCHAR 0213
ENCODING 531
SWIDTH 440 0
DWIDTH 11 0
BBX 10 19 1 0
BITMAP
1E00
7F80
6180
E1C0
0000
7B80
7F80
7F80
7F80
7C00
7800
7800
7800
7800
7800
7800
7800
7800
7800
ENDCHAR
STARTCHAR 0214
ENCODING 532
SWIDTH 800 0
DWIDTH 20 0
BBX 16 23 2 0
BITMAP
39C0
3DE0
1CE0
0E70
0000
F00F
F00F
F00F
F00F
F00F
F00F
F00F
F00F
F00F
F00F
F00F
F00F
F01F
F81E
7FFE
3FFC
1FF8
07E0
ENDCHAR
STARTCHAR 0215
ENCODING 533
SWIDTH 680 0
DWIDTH 17 0
BBX 13 19 2 0
BITMAP
F780
7380
39C0
38C0
0000
F078
F078
F078
F078
F078
F078
F078
F078
F078
F078
FDF8
7FF8
7FB8
1F38
ENDCHAR
STARTCHAR 0216
ENCODING 534
SWIDTH 800 0
DWIDTH 20 0
BBX 16 23 2 0
BITMAP
03C0
0FF0
0C70
1C30
0000
F00F
F00F
F00F
F00F
F00F
F00F
F00F
F00F
F00F
F00F
F00F
F00F
F01F
F81E
7FFE
3FFC
1FF8
07E0
ENDCHAR
STARTCHAR 0217
ENCODING 535
SWIDTH 680 0
DWIDTH 17 0
BBX 13 19 2 0
BITMAP
0F80
1FC0
38E0
3060
0000
F078
F078
F078
F078
F078
F078
F078
F078
F078
F078
FDF8
7FF8
7FB8
1F38
ENDCHAR
STARTCHAR 0218
ENCODING 536
SWIDTH 640 0
DWIDTH 16 0
BBX 14 24 1 -6
BITMAP
0FE0
3FF8
7FF8
FC78
F000
F000
F800
FE00
7FE0
3FF8
0FFC
00FC
003C
403C
F8FC
FFF8
FFF0
1FC0
0000
0300
0780
0380
0300
0300
ENDCHAR
STARTCHAR 0219
ENCODING 537
SWIDTH 520 0
DWIDTH 13 0
BBX 12 21 1 -7
BITMAP
1FC0
7FE0
FFE0
F040
F000
F800
FF80
7FE0
0FE0
00F0
C0F0
FFE0
FFC0
3F80
0000
0000
0E00
0E00
0E00
0600
0C00
ENDCHAR
STARTCHAR 021A
ENCODING 538
SWIDTH 600 0
DWIDTH 15 0
BBX 15 25 0 -7
BITMAP
FFFE
FFFE
FFFE
03C0
03C0
03C0
03C0
03C0
03C0
03C0
03C0
03C0
03C0
03C0
03C0
03C0
03C0
03C0
0000
0000
0380
0380
0380
0180
0300
ENDCHAR
STARTCHAR 021B
ENCODING 539
SWIDTH 440 0
DWIDTH 11 0
BBX 10 23 0 -7
BITMAP
3C00
3C00
3C00
FFC0
FFC0
FFC0
3C00
3C00
3C00
3C00
3C00
3C00
3E00
1FC0
1FC0
07C0
0000
0000
0700
0700
0700
0300
0600
ENDCHAR
STARTCHAR 021E
ENCODING 542
SWIDTH 800 0
DWIDTH 20 0
BBX 16 23 2 0
BITMAP
0E38
0F70
07E0
03C0
0000
F00F
F00F
F00F
F00F
F00F
F00F
F00F
FFFF
FFFF
FFFF
F00F
F00F
F00F
F00F
F00F
F00F
F00F
F00F
ENDCHAR
STARTCHAR 021F
ENCODING 543
SWIDTH 680 0
DWIDTH 17 0
BBX 17 25 -1 0
BITMAP
E1C000
738000
3F0000
1E0000
000000
000000
1E0000
1E0000
1E0000
1E0000
1E0000
1EFC00
1FFE00
1FFF00
1F9F00
1E0F00
1E0780
1E0780
1E0780
1E0780
1E0780
1E0780
1E0780
1E0780
1E0780
ENDCHAR
STARTCHAR 022A
ENCODING 554
SWIDTH 840 0
DWIDTH 21 0
BBX 19 26 1 0
BITMAP
07FC00
07FC00
000000
000000
039800
07BC00
031800
000000
03F800
0FFE00
1FFF00
3FBF80
7C07C0
7803C0
F803E0
F001E0
F001E0
F001E0
F001E0
F801E0
7803C0
7C07C0
3FBF80
1FFF00
0FFE00
03F800
ENDCHAR
STARTCHAR 022B
ENCODING 555
SWIDTH 640 0
DWIDTH 16 0
BBX 15 22 1 0
BITMAP
1FF0
1FF0
0000
0CE0
1CE0
1CE0
0000
0000
0FC0
1FF0
7FF8
7C7C
F03C
F03C
F01E
F01E
F03C
F83C
7C7C
7FF8
3FF0
0FC0
ENDCHAR
STARTCHAR 022C
ENCODING 556
SWIDTH 840 0
DWIDTH 21 0
BBX 19 26 1 0
BITMAP
07FC00
07FC00
000000
000000
03CC00
07FC00
063800
000000
03F800
0FFE00
1FFF00
3FBF80
7C07C0
7803C0
F803E0
F001E0
F001E0
F001E0
F001E0
F801E0
7803C0
7C07C0
3FBF80
1FFF00
0FFE00
03F800
ENDCHAR
STARTCHAR 022D
ENCODING 557
SWIDTH 640 0
DWIDTH 16 0
BBX 15 22 1 0
BITMAP
1FF0
1FF0
0000
0E00
1F30
1BF0
01E0
0000
0FC0
1FF0
7FF8
7C7C
F03C
F03C
F01E
F01E
F03C
F83C
7C7C
7FF8
3FF0
0FC0
ENDCHAR
STARTCHAR 0230
ENCODING 560
SWIDTH 840 0
DWIDTH 21 0
BBX 19 26 1 0
BITMAP
07FC00
07FC00
000000
000000
00E000
00E000
00E000
000000
03F800
0FFE00
1FFF00
3FBF80
7C07C0
7803C0
F803E0
F001E0
F001E0
F001E0
F001E0
F801E0
7803C0
7C07C0
3FBF80
1FFF00
0FFE00
03F800
ENDCHAR
STARTCHAR 0231
ENCODING 561
SWIDTH 640 0
DWIDTH 16 0
BBX 15 22 1 0
BITMAP
1FF0
1FF0
0000
0300
0780
0380
0000
0000
0FC0
1FF0
7FF8
7C7C
F03C
F03C
F01E
F01E
F03C
F83C
7C7C
7FF8
3FF0
0FC0
ENDCHAR
STARTCHAR 0232
ENCODING 562
SWIDTH 680 0
DWIDTH 17 0
BBX 17 22 0 0
BITMAP
0FF800
0FF800
000000
000000
F00780
780F00
780F00
3C1E00
3E1E00
1E3C00
1F7800
0F7800
07F000
07F000
03E000
03E000
03C000
03C000
03C000
03C000
03C000
03C000
ENDCHAR
STARTCHAR 0233
ENCODING 563
SWIDTH 600 0
DWIDTH 15 0
BBX 15 24 0 -5
BITMAP
1FF0
1FF0
0000
0000
0000
F01E
F01E
783C
783C
3C38
3C78
3C70
1EF0
1EF0
0FE0
0FE0
07C0
07C0
07C0
0780
4780
FF00
FE00
7C00
ENDCHAR
STARTCHAR 0237
ENCODING 567
SWIDTH 320 0
DWIDTH 8 0
BBX 8 19 -2 -5
BITMAP
0F
0F
0F
0F
0F
0F
0F
0F
0F
0F
0F
0F
0F
0F
0F
1F
FE
FE
F8
ENDCHAR
STARTCHAR 0259
ENCODING 601
SWIDTH 640 0
DWIDTH 16 0
BBX 14 14 1 0
BITMAP
1F80
7FE0
7FF0
30F8
007C
003C
FFFC
FFFC
F03C
F03C
7878
7FF0
3FE0
0FC0
ENDCHAR
STARTCHAR 0292
ENCODING 658
SWIDTH 560 0
DWIDTH 14 0
BBX 13 19 0 -5
BITMAP
FFF0
FFF0
FFF0
00F0
01E0
03C0
0780
0F00
0FE0
0FF0
0FF8
0078
0078
0078
4078
F9F8
FFF0
FFE0
3F80
ENDCHAR
STARTCHAR 02B9
ENCODING 697
SWIDTH 240 0
DWIDTH 6 0
BBX 4 7 1 11
BITMAP
F0
E0
E0
E0
E0
E0
E0
ENDCHAR
STARTCHAR 02BA
ENCODING 698
SWIDTH 440 0
DWIDTH 11 0
BBX 9 7 1 11
BITMAP
F780
E780
E780
E780
E380
E300
E300
ENDCHAR
STARTCHAR 02BB
ENCODING 699
SWIDTH 280 0
DWIDTH 7 0
BBX 5 8 1 15
BITMAP
38
30
70
70
F0
F8
F8
F8
ENDCHAR
STARTCHAR 02BC
ENCODING 700
SWIDTH 200 0
DWIDTH 5 0
BBX 3 7 1 11
BITMAP
E0
C0
C0
C0
C0
C0
C0
ENDCHAR
STARTCHAR 02BE
ENCODING 702
SWIDTH 600 0
DWIDTH 15 0
BBX 4 6 7 15
BITMAP
C0
E0
30
30
E0
C0
ENDCHAR
STARTCHAR 02BF
ENCODING 703
SWIDTH 600 0
DWIDTH 15 0
BBX 3 6 4 15
BITMAP
20
60
C0
C0
60
20
ENDCHAR
STARTCHAR 02C6
ENCODING 710
SWIDTH 600 0
DWIDTH 15 0
BBX 9 4 3 15
BITMAP
3E00
7F00
F780
C180
ENDCHAR
STARTCHAR 02C7
ENCODING 711
SWIDTH 600 0
DWIDTH 15 0
BBX 9 4 3 15
BITMAP
E380
7700
3E00
1C00
ENDCHAR
STARTCHAR 02C8
ENCODING 712
SWIDTH 200 0
DWIDTH 5 0
BBX 3 5 1 13
BITMAP
E0
E0
E0
E0
E0
ENDCHAR
STARTCHAR 02C9
ENCODING 713
SWIDTH 600 0
DWIDTH 15 0
BBX 9 2 3 16
BITMAP
FF80
FF80
ENDCHAR
STARTCHAR 02CA
ENCODING 714
SWIDTH 600 0
DWIDTH 15 0
BBX 7 4 5 15
BITMAP
1E
3C
78
E0
ENDCHAR
STARTCHAR 02CB
ENCODING 715
SWIDTH 600 0
DWIDTH 15 0
BBX 7 4 3 15
BITMAP
F0
78
3C
0E
ENDCHAR
STARTCHAR 02CC
ENCODING 716
SWIDTH 200 0
DWIDTH 5 0
BBX 3 5 1 -6
BITMAP
E0
E0
E0
E0
E0
ENDCHAR
STARTCHAR 02D8
ENCODING 728
SWIDTH 600 0
DWIDTH 15 0
BBX 9 4 3 15
BITMAP
C180
E380
7F00
1C00
ENDCHAR
STARTCHAR 02D9
ENCODING 729
SWIDTH 600 0
DWIDTH 15 0
BBX 5 4 5 15
BITMAP
70
F8
F8
70
ENDCHAR
STARTCHAR 02DA
ENCODING 730
SWIDTH 600 0
DWIDTH 15 0
BBX 7 6 4 15
BITMAP
38
7C
C6
C6
6C
38
ENDCHAR
STARTCHAR 02DB
ENCODING 731
SWIDTH 600 0
DWIDTH 15 0
BBX 6 7 2 -6
BITMAP
18
78
60
E0
E0
FC
78
ENDCHAR
STARTCHAR 02DC
ENCODING 732
SWIDTH 600 0
DWIDTH 15 0
BBX 9 4 3 15
BITMAP
7180
FF80
CF80
C200
ENDCHAR
STARTCHAR 02DD
ENCODING 733
SWIDTH 600 0
DWIDTH 15 0
BBX 10 4 4 15
BITMAP
7BC0
7380
E700
C700
ENDCHAR
STARTCHAR 0300
ENCODING 768
SWIDTH 0 0
DWIDTH 0 0
BBX 7 4 -12 15
BITMAP
F0
78
3C
0E
ENDCHAR
STARTCHAR 0301
ENCODING 769
SWIDTH 0 0
DWIDTH 0 0
BBX 7 4 -10 15
BITMAP
1E
3C
78
E0
ENDCHAR
STARTCHAR 0302
ENCODING 770
SWIDTH 0 0
DWIDTH 0 0
BBX 9 4 -12 15
BITMAP
3E00
7F00
F780
C180
ENDCHAR
STARTCHAR 0303
ENCODING 771
SWIDTH 0 0
DWIDTH 0 0
BBX 9 4 -12 15
BITMAP
7180
FF80
CF80
C200
ENDCHAR
STARTCHAR 0304
ENCODING 772
SWIDTH 0 0
DWIDTH 0 0
BBX 9 2 -12 16
BITMAP
FF80
FF80
ENDCHAR
STARTCHAR 0306
ENCODING 774
SWIDTH 0 0
DWIDTH 0 0
BBX 9 4 -12 15
BITMAP
C180
E380
7F00
1C00
ENDCHAR
STARTCHAR 0307
ENCODING 775
SWIDTH 0 0
DWIDTH 0 0
BBX 5 4 -10 15
BITMAP
70
F8
F8
70
ENDCHAR
STARTCHAR 0308
ENCODING 776
SWIDTH 0 0
DWIDTH 0 0
BBX 9 3 -12 16
BITMAP
6300
F780
F780
ENDCHAR
STARTCHAR 0309
ENCODING 777
SWIDTH 0 0
DWIDTH 0 0
BBX 6 6 -10 15
BITMAP
70
F8
1C
18
38
10
ENDCHAR
STARTCHAR 030A
ENCODING 778
SWIDTH 0 0
DWIDTH 0 0
BBX 7 6 -11 15
BITMAP
38
7C
C6
C6
6C
38
ENDCHAR
STARTCHAR 030B
ENCODING 779
SWIDTH 0 0
DWIDTH 0 0
BBX 10 4 -11 15
BITMAP
7BC0
7380
E700
C700
ENDCHAR
STARTCHAR 030C
ENCODING 780
SWIDTH 0 0
DWIDTH 0 0
BBX 9 4 -12 15
BITMAP
E380
7700
3E00
1C00
ENDCHAR
STARTCHAR 030F
ENCODING 783
SWIDTH 0 0
DWIDTH 0 0
BBX 10 4 -14 15
BITMAP
F780
7380
39C0
39C0
ENDCHAR
STARTCHAR 0311
ENCODING 785
SWIDTH 0 0
DWIDTH 0 0
BBX 9 4 -12 15
BITMAP
3E00
7F00
E380
C180
ENDCHAR
STARTCHAR 0312
ENCODING 786
SWIDTH 0 0
DWIDTH 0 0
BBX 3 5 -9 15
BITMAP
60
E0
E0
E0
E0
ENDCHAR
STARTCHAR 031B
ENCODING 795
SWIDTH 0 0
DWIDTH 0 0
BBX 5 7 -8 11
BITMAP
10
38
38
38
F0
F0
80
ENDCHAR
STARTCHAR 0323
ENCODING 803
SWIDTH 0 0
DWIDTH 0 0
BBX 3 3 -9 -5
BITMAP
E0
E0
E0
ENDCHAR
STARTCHAR 0324
ENCODING 804
SWIDTH 0 0
DWIDTH 0 0
BBX 9 3 -12 -5
BITMAP
7700
F780
6300
ENDCHAR
STARTCHAR 0326
ENCODING 806
SWIDTH 0 0
DWIDTH 0 0
BBX 3 5 -9 -7
BITMAP
E0
E0
E0
E0
C0
ENDCHAR
STARTCHAR 0327
ENCODING 807
SWIDTH 0 0
DWIDTH 0 0
BBX 5 6 -10 -6
BITMAP
60
60
78
18
F8
F0
ENDCHAR
STARTCHAR 0328
ENCODING 808
SWIDTH 0 0
DWIDTH 0 0
BBX 6 7 -13 -6
BITMAP
18
78
60
E0
E0
FC
78
ENDCHAR
STARTCHAR 032E
ENCODING 814
SWIDTH 0 0
DWIDTH 0 0
BBX 9 4 -12 -5
BITMAP
C180
E380
7F00
3E00
ENDCHAR
STARTCHAR 0331
ENCODING 817
SWIDTH 0 0
DWIDTH 0 0
BBX 9 2 -12 -4
BITMAP
FF80
FF80
ENDCHAR
STARTCHAR 0335
ENCODING 821
SWIDTH 0 0
DWIDTH 0 0
BBX 11 2 -13 10
BITMAP
FFE0
FFE0
ENDCHAR
STARTCHAR 0336
ENCODING 822
SWIDTH 0 0
DWIDTH 0 0
BBX 21 3 -22 9
BITMAP
FFFFF8
FFFFF8
FFFFF8
ENDCHAR
STARTCHAR 0337
ENCODING 823
SWIDTH 0 0
DWIDTH 0 0
BBX 9 8 -11 6
BITMAP
0100
0380
0780
1E00
3C00
7800
E000
4000
ENDCHAR
STARTCHAR 0338
ENCODING 824
SWIDTH 0 0
DWIDTH 0 0
BBX 12 17 -14 -2
BITMAP
0030
0030
0060
00C0
00C0
0180
0300
0300
0600
0C00
0C00
1800
3000
3000
6000
4000
C000
ENDCHAR
STARTCHAR 0394
ENCODING 916
SWIDTH 760 0
DWIDTH 19 0
BBX 19 18 0 0
BITMAP
01F000
01F000
03F800
03F800
03BC00
07BC00
071C00
0F1E00
0F1E00
1E0F00
1E0F00
1C0780
3C0780
3C0780
7803C0
7FFFC0
FFFFE0
FFFFE0
ENDCHAR
STARTCHAR 03A9
ENCODING 937
SWIDTH 880 0
DWIDTH 22 0
BBX 22 18 0 0
BITMAP
00FC00
03FF80
0FFFC0
1FFFE0
1F03F0
3E01F0
3C00F0
3C00F8
3C0078
3C0078
3C00F0
3C00F0
3E00F0
1E01E0
0F83C0
FF87FC
FF87FC
FF87FC
ENDCHAR
STARTCHAR 03BC
ENCODING 956
SWIDTH 680 0
DWIDTH 17 0
BBX 13 19 2 -5
BITMAP
F038
F038
F038
F038
F038
F038
F038
F038
F078
F078
FDF8
FFF8
FFF8
FF38
F000
F000
F000
F000
F000
ENDCHAR
STARTCHAR 03C0
ENCODING 960
SWIDTH 720 0
DWIDTH 18 0
BBX 18 14 0 0
BITMAP
3FFFC0
7FFFC0
FFFFC0
E79E00
E79E00
E79E00
E79E00
071E00
071E00
071E00
071E00
0F1E00
0F1E00
0F1E00
ENDCHAR
STARTCHAR 0400
ENCODING 1024
SWIDTH 680 0
DWIDTH 17 0
BBX 14 23 2 0
BITMAP
3C00
1E00
0700
0380
0000
FFF8
FFF8
FFF8
F000
F000
F000
F000
FFF0
FFF0
FFF0
F000
F000
F000
F000
F000
FFFC
FFFC
FFFC
ENDCHAR
STARTCHAR 0401
ENCODING 1025
SWIDTH 680 0
DWIDTH 17 0
BBX 14 23 2 0
BITMAP
1CE0
1CE0
1CE0
0000
0000
FFF8
FFF8
FFF8
F000
F000
F000
F000
FFF0
FFF0
FFF0
F000
F000
F000
F000
F000
FFFC
FFFC
FFFC
ENDCHAR
STARTCHAR 0402
ENCODING 1026
SWIDTH 840 0
DWIDTH 21 0
BBX 21 18 0 0
BITMAP
FFFF00
FFFF00
FFFF00
03C000
03C000
03C000
03C000
03FFC0
03FFE0
03FFF0
03E1F0
03C0F0
03C0F8
03C0F0
03C1F0
03C7F0
03CFE0
03CF80
ENDCHAR
STARTCHAR 0403
ENCODING 1027
SWIDTH 600 0
DWIDTH 15 0
BBX 13 23 2 0
BITMAP
01E0
03C0
0700
0E00
0000
FFF8
FFF0
FFF0
F000
F000
F000
F000
F000
F000
F000
F000
F000
F000
F000
F000
F000
F000
F000
ENDCHAR
STARTCHAR 0404
ENCODING 1028
SWIDTH 720 0
DWIDTH 18 0
BBX 16 18 1 0
BITMAP
03F8
0FFE
1FFF
3FBF
7C06
7800
F800
F000
FFE0
FFE0
FFE0
F800
7800
7C06
3FBF
1FFF
0FFE
03F0
ENDCHAR
STARTCHAR 0405
ENCODING 1029
SWIDTH 640 0
DWIDTH 16 0
BBX 14 18 1 0
BITMAP
0FE0
3FFC
7FF8
7C78
F808
F000
F800
7E00
7FE0
3FF8
07FC
007C
003C
403C
787C
FFFC
7FF8
1FE0
ENDCHAR
STARTCHAR 0406
ENCODING 1030
SWIDTH 320 0
DWIDTH 8 0
BBX 4 18 2 0
BITMAP
F0
F0
F0
F0
F0
F0
F0
F0
F0
F0
F0
F0
F0
F0
F0
F0
F0
F0
ENDCHAR
STARTCHAR 0407
ENCODING 1031
SWIDTH 320 0
DWIDTH 8 0
BBX 8 23 0 0
BITMAP
E7
E7
E7
00
00
3C
3C
3C
3C
3C
3C
3C
3C
3C
3C
3C
3C
3C
3C
3C
3C
3C
3C
ENDCHAR
STARTCHAR 0408
ENCODING 1032
SWIDTH 560 0
DWIDTH 14 0
BBX 12 18 0 0
BITMAP
3FF0
3FF0
3FF0
00F0
00F0
00F0
00F0
00F0
00F0
00F0
00F0
00F0
00F0
20F0
79F0
FFE0
7FE0
1F80
ENDCHAR
STARTCHAR 0409
ENCODING 1033
SWIDTH 1200 0
DWIDTH 30 0
BBX 29 18 0 0
BITMAP
0FFFC000
0FFFC000
0FFFC000
0F03C000
0F03C000
0F03C000
0F03FFC0
0F03FFE0
0F03FFF0
0F03C0F8
0E03C078
0E03C078
1E03C078
1E03C0F8
3E03C0F0
7C03FFF0
FC03FFE0
F003FF80
ENDCHAR
STARTCHAR 040A
ENCODING 1034
SWIDTH 1160 0
DWIDTH 29 0
BBX 27 18 2 0
BITMAP
F00F0000
F00F0000
F00F0000
F00F0000
F00F0000
F00F0000
F00F0000
FFFFFE00
FFFFFF80
FFFFFFC0
F00F07C0
F00F03E0
F00F03E0
F00F03C0
F00F07C0
F00FFFC0
F00FFF80
F00FFE00
ENDCHAR
STARTCHAR 040B
ENCODING 1035
SWIDTH 840 0
DWIDTH 21 0
BBX 20 18 0 0
BITMAP
FFFF00
FFFF00
FFFF00
03C000
03C000
03C000
03C000
03DF80
03FFE0
03FFF0
03FBF0
03C0F0
03C0F0
03C0F0
03C0F0
03C0F0
03C0F0
03C0F0
ENDCHAR
STARTCHAR 040C
ENCODING 1036
SWIDTH 720 0
DWIDTH 18 0
BBX 16 23 2 0
BITMAP
00F0
01E0
03C0
0700
0000
F01F
F01E
F03C
F03C
F078
F0F0
F0F0
F1E0
FFE0
FFE0
FFE0
F1F0
F0F0
F078
F07C
F03C
F03E
F01F
ENDCHAR
STARTCHAR 040D
ENCODING 1037
SWIDTH 840 0
DWIDTH 21 0
BBX 16 23 2 0
BITMAP
0F00
0780
0380
01C0
0000
F00F
F01F
F01F
F03F
F07F
F07F
F0FF
F1EF
F3EF
F3CF
F78F
FF8F
FF0F
FE0F
FC0F
FC0F
F80F
F00F
ENDCHAR
STARTCHAR 040E
ENCODING 1038
SWIDTH 720 0
DWIDTH 18 0
BBX 18 23 0 0
BITMAP
0E1C00
0E1C00
07F800
03F000
000000
F803C0
780780
3C0780
3C0F00
1E0F00
1E1E00
0F1C00
0F3C00
07B800
07F800
03F000
03F000
01E000
01E000
17C000
3F8000
3F8000
3E0000
ENDCHAR
STARTCHAR 040F
ENCODING 1039
SWIDTH 800 0
DWIDTH 20 0
BBX 16 22 2 -4
BITMAP
F00F
F00F
F00F
F00F
F00F
F00F
F00F
F00F
F00F
F00F
F00F
F00F
F00F
F00F
F00F
FFFF
FFFF
FFFF
03C0
03C0
03C0
03C0
ENDCHAR
STARTCHAR 0410
ENCODING 1040
SWIDTH 800 0
DWIDTH 20 0
BBX 20 18 0 0
BITMAP
00F000
01F800
01F800
03FC00
03FC00
039C00
079E00
079E00
0F0F00
0F0F00
1E0780
1FFF80
1FFF80
3FFFC0
3C03C0
7801E0
7801E0
F801F0
ENDCHAR
STARTCHAR 0411
ENCODING 1041
SWIDTH 720 0
DWIDTH 18 0
BBX 16 18 2 0
BITMAP
FFFC
FFFC
FFFC
F000
F000
F000
F000
FFF0
FFFC
FFFE
F03E
F01F
F01F
F01E
F03E
FFFE
FFFC
FFF0
ENDCHAR
STARTCHAR 0412
ENCODING 1042
SWIDTH 760 0
DWIDTH 19 0
BBX 16 18 2 0
BITMAP
FFF0
FFFC
FFFC
F03E
F01E
F01E
F03C
FFF8
FFF8
FFFC
F01E
F01F
F01F
F01F
F01E
FFFE
FFFC
FFF0
ENDCHAR
STARTCHAR 0413
ENCODING 1043
SWIDTH 600 0
DWIDTH 15 0
BBX 13 18 2 0
BITMAP
FFF8
FFF0
FFF0
F000
F000
F000
F000
F000
F000
F000
F000
F000
F000
F000
F000
F000
F000
F000
ENDCHAR
STARTCHAR 0414
ENCODING 1044
SWIDTH 840 0
DWIDTH 21 0
BBX 20 22 0 -4
BITMAP
0FFFC0
0FFFC0
0FFFC0
0F03C0
0F03C0
0F03C0
0F03C0
0F03C0
0F03C0
0E03C0
0E03C0
0E03C0
1E03C0
1E03C0
3C03C0
FFFFF0
FFFFF0
FFFFF0
F000F0
F000F0
F000F0
F000F0
ENDCHAR
STARTCHAR 0415
ENCODING 1045
SWIDTH 680 0
DWIDTH 17 0
BBX 14 18 2 0
BITMAP
FFF8
FFF8
FFF8
F000
F000
F000
F000
FFF0
FFF0
FFF0
F000
F000
F000
F000
F000
FFFC
FFFC
FFFC
ENDCHAR
STARTCHAR 0416
ENCODING 1046
SWIDTH 1080 0
DWIDTH 27 0
BBX 25 18 1 0
BITMAP
F01C0780
F81C0F00
781C0F00
3C1C1E00
3C1C1E00
1E1C3C00
1E1C3C00
0F1C7800
0FFFF800
0FFFF800
0FFFF800
1F1C7C00
3E1C3C00
3E1C3E00
7C1C1F00
781C0F00
F81C0F80
F01C0780
ENDCHAR
STARTCHAR 0417
ENCODING 1047
SWIDTH 640 0
DWIDTH 16 0
BBX 14 18 1 0
BITMAP
1FC0
FFF0
7FF8
79F8
007C
003C
0078
1FF0
1FE0
1FF8
007C
003C
003C
003C
F8FC
FFF8
FFF0
1FC0
ENDCHAR
STARTCHAR 0418
ENCODING 1048
SWIDTH 840 0
DWIDTH 21 0
BBX 16 18 2 0
BITMAP
F00F
F01F
F01F
F03F
F07F
F07F
F0FF
F1EF
F3EF
F3CF
F78F
FF8F
FF0F
FE0F
FC0F
FC0F
F80F
F00F
ENDCHAR
STARTCHAR 0419
ENCODING 1049
SWIDTH 840 0
DWIDTH 21 0
BBX 16 23 2 0
BITMAP
1C38
0E38
0FF0
07E0
0000
F00F
F01F
F01F
F03F
F07F
F07F
F0FF
F1EF
F3EF
F3CF
F78F
FF8F
FF0F
FE0F
FC0F
FC0F
F80F
F00F
ENDCHAR
STARTCHAR 041A
ENCODING 1050
SWIDTH 720 0
DWIDTH 18 0
BBX 16 18 2 0
BITMAP
F01F
F01E
F03C
F03C
F078
F0F0
F0F0
F1E0
FFE0
FFE0
FFE0
F1F0
F0F0
F078
F07C
F03C
F03E
F01F
ENDCHAR
STARTCHAR 041B
ENCODING 1051
SWIDTH 800 0
DWIDTH 20 0
BBX 18 18 0 0
BITMAP
0FFFC0
0FFFC0
0FFFC0
0F03C0
0F03C0
0F03C0
0F03C0
0F03C0
0F03C0
0F03C0
0E03C0
0E03C0
1E03C0
1E03C0
7E03C0
7C03C0
FC03C0
F003C0
ENDCHAR
STARTCHAR 041C
ENCODING 1052
SWIDTH 960 0
DWIDTH 24 0
BBX 20 18 2 0
BITMAP
F000F0
F000F0
F801F0
FC01F0
FC03F0
FE07F0
FE07F0
FF0FF0
F78EF0
F79EF0
F3FCF0
F3FCF0
F1F8F0
F0F0F0
F0F0F0
F060F0
F000F0
F000F0
ENDCHAR
STARTCHAR 041D
ENCODING 1053
SWIDTH 800 0
DWIDTH 20 0
BBX 16 18 2 0
BITMAP
F00F
F00F
F00F
F00F
F00F
F00F
F00F
FFFF
FFFF
FFFF
F00F
F00F
F00F
F00F
F00F
F00F
F00F
F00F
ENDCHAR
STARTCHAR 041E
ENCODING 1054
SWIDTH 840 0
DWIDTH 21 0
BBX 19 18 1 0
BITMAP
03F800
0FFE00
1FFF00
3FBF80
7C07C0
7803C0
F803E0
F001E0
F001E0
F001E0
F001E0
F801E0
7803C0
7C07C0
3FBF80
1FFF00
0FFE00
03F800
ENDCHAR
STARTCHAR 041F
ENCODING 1055
SWIDTH 800 0
DWIDTH 20 0
BBX 16 18 2 0
BITMAP
FFFF
FFFF
FFFF
F00F
F00F
F00F
F00F
F00F
F00F
F00F
F00F
F00F
F00F
F00F
F00F
F00F
F00F
F00F
ENDCHAR
STARTCHAR 0420
ENCODING 1056
SWIDTH 720 0
DWIDTH 18 0
BBX 15 18 2 0
BITMAP
FFE0
FFF8
FFFC
F07E
F01E
F01E
F01E
F01E
F01E
F07E
FFFC
FFF8
FFE0
F000
F000
F000
F000
F000
ENDCHAR
STARTCHAR 0421
ENCODING 1057
SWIDTH 720 0
DWIDTH 18 0
BBX 16 18 1 0
BITMAP
03F8
0FFE
1FFF
3FBF
7C06
7800
F800
F000
F000
F000
F000
F800
7800
7C06
3FBF
1FFF
0FFE
03F8
ENDCHAR
STARTCHAR 0422
ENCODING 1058
SWIDTH 640 0
DWIDTH 16 0
BBX 16 18 0 0
BITMAP
FFFF
FFFF
FFFF
03C0
03C0
03C0
03C0
03C0
03C0
03C0
03C0
03C0
03C0
03C0
03C0
03C0
03C0
03C0
ENDCHAR
STARTCHAR 0423
ENCODING 1059
SWIDTH 720 0
DWIDTH 18 0
BBX 18 18 0 0
BITMAP
F803C0
780780
3C0780
3C0F00
1E0F00
1E1E00
0F1C00
0F3C00
07B800
07F800
03F000
03F000
01E000
01E000
17C000
3F8000
3F8000
3E0000
ENDCHAR
STARTCHAR 0424
ENCODING 1060
SWIDTH 960 0
DWIDTH 24 0
BBX 22 19 1 -1
BITMAP
007800
007800
07FF80
1FFFE0
3FFFF0
7C79F8
F87878
F0783C
F0783C
F0783C
F0783C
F0783C
F87878
7F7BF8
3FFFF0
1FFFC0
03FF00
007800
007800
ENDCHAR
STARTCHAR 0425
ENCODING 1061
SWIDTH 720 0
DWIDTH 18 0
BBX 16 18 1 0
BITMAP
F81F
781E
7C3E
3E7C
1E78
1FF8
0FF0
07E0
07E0
07E0
0FF0
0FF0
1FF8
3E7C
3C3C
7C3E
F81F
F00F
ENDCHAR
STARTCHAR 0426
ENCODING 1062
SWIDTH 840 0
DWIDTH 21 0
BBX 19 22 2 -4
BITMAP
F00F00
F00F00
F00F00
F00F00
F00F00
F00F00
F00F00
F00F00
F00F00
F00F00
F00F00
F00F00
F00F00
F00F00
F00F00
FFFFE0
FFFFE0
FFFFE0
0001E0
0001E0
0001E0
0001E0
ENDCHAR
STARTCHAR 0427
ENCODING 1063
SWIDTH 760 0
DWIDTH 19 0
BBX 16 18 1 0
BITMAP
F00F
F00F
F00F
F00F
F00F
F00F
F00F
F80F
FC1F
7FFF
3FFF
1FFF
000F
000F
000F
000F
000F
000F
ENDCHAR
STARTCHAR 0428
ENCODING 1064
SWIDTH 1080 0
DWIDTH 27 0
BBX 23 18 2 0
BITMAP
F03C1E
F03C1E
F03C1E
F03C1E
F03C1E
F03C1E
F03C1E
F03C1E
F03C1E
F03C1E
F03C1E
F03C1E
F03C1E
F03C1E
F03C1E
FFFFFE
FFFFFE
FFFFFE
ENDCHAR
STARTCHAR 0429
ENCODING 1065
SWIDTH 1120 0
DWIDTH 28 0
BBX 26 22 2 -4
BITMAP
F03C1E00
F03C1E00
F03C1E00
F03C1E00
F03C1E00
F03C1E00
F03C1E00
F03C1E00
F03C1E00
F03C1E00
F03C1E00
F03C1E00
F03C1E00
F03C1E00
F03C1E00
FFFFFFC0
FFFFFFC0
FFFFFFC0
000003C0
000003C0
000003C0
000003C0
ENDCHAR
STARTCHAR 042A
ENCODING 1066
SWIDTH 840 0
DWIDTH 21 0
BBX 20 18 0 0
BITMAP
FF8000
FF8000
FF8000
078000
078000
078000
07FF80
07FFE0
07FFF0
0781F0
0780F0
0780F0
0780F0
0780F0
0781F0
07FFE0
07FFC0
07FF00
ENDCHAR
STARTCHAR 042B
ENCODING 1067
SWIDTH 1040 0
DWIDTH 26 0
BBX 22 18 2 0
BITMAP
F0007C
F0007C
F0007C
F0007C
F0007C
F0007C
FFF07C
FFFC7C
FFFC7C
F03E7C
F01E7C
F01E7C
F01E7C
F01E7C
F03E7C
FFFC7C
FFF87C
FFE07C
ENDCHAR
STARTCHAR 042C
ENCODING 1068
SWIDTH 720 0
DWIDTH 18 0
BBX 15 18 2 0
BITMAP
F000
F000
F000
F000
F000
F000
FFF0
FFFC
FFFC
F03E
F01E
F01E
F01E
F01E
F03E
FFFC
FFF8
FFE0
ENDCHAR
STARTCHAR 042D
ENCODING 1069
SWIDTH 720 0
DWIDTH 18 0
BBX 16 18 1 0
BITMAP
0FC0
7FF0
FFF8
FDFC
603E
001E
001F
0FFF
0FFF
0FFF
001F
001E
001E
603E
FDFC
FFF8
7FF0
1FC0
ENDCHAR
STARTCHAR 042E
ENCODING 1070
SWIDTH 1120 0
DWIDTH 28 0
BBX 25 18 2 0
BITMAP
F00FE000
F03FF800
F07FFC00
F0FEFE00
F0F01F00
F1E00F00
F1E00F80
FFE00780
FFE00780
FFE00780
F3E00780
F1E00F80
F1F00F00
F0F81F00
F0FEFE00
F07FFC00
F03FF800
F00FE000
ENDCHAR
STARTCHAR 042F
ENCODING 1071
SWIDTH 720 0
DWIDTH 18 0
BBX 15 18 1 0
BITMAP
0FFE
3FFE
7FFE
7C1E
F81E
F01E
F01E
F01E
F81E
7C1E
7FFE
3FFE
0FFE
1E1E
3E1E
3C1E
781E
F81E
ENDCHAR
STARTCHAR 0430
ENCODING 1072
SWIDTH 600 0
DWIDTH 15 0
BBX 13 14 1 0
BITMAP
1F80
FFE0
7FF0
61F0
00F0
0078
3FF8
7FF8
F078
F078
F0F8
FFF8
7FF8
3E78
ENDCHAR
STARTCHAR 0431
ENCODING 1073
SWIDTH 680 0
DWIDTH 17 0
BBX 15 20 1 0
BITMAP
001C
01FC
0FFC
1FFC
3F80
7C00
7800
73E0
FFF8
FFFC
FC3E
F81E
F01E
F01E
781E
781E
7C3C
3FFC
1FF8
07E0
ENDCHAR
STARTCHAR 0432
ENCODING 1074
SWIDTH 640 0
DWIDTH 16 0
BBX 13 14 2 0
BITMAP
FFC0
FFE0
FFF0
E0F0
E0F0
E1F0
FFC0
FFF0
E0F0
E078
E078
FFF0
FFF0
FFC0
ENDCHAR
STARTCHAR 0433
ENCODING 1075
SWIDTH 520 0
DWIDTH 13 0
BBX 11 14 2 0
BITMAP
FFE0
FFE0
FFE0
F000
F000
F000
F000
F000
F000
F000
F000
F000
F000
F000
ENDCHAR
STARTCHAR 0434
ENCODING 1076
SWIDTH 720 0
DWIDTH 18 0
BBX 17 17 0 -3
BITMAP
1FFE00
1FFE00
1FFE00
1E1E00
1E1E00
1E1E00
1E1E00
1E1E00
1C1E00
3C1E00
3C1E00
FFFF80
FFFF80
FFFF80
F00780
F00780
F00780
ENDCHAR
STARTCHAR 0435
ENCODING 1077
SWIDTH 640 0
DWIDTH 16 0
BBX 14 14 1 0
BITMAP
0FC0
3FF0
7FF8
7878
F03C
F03C
FFFC
FFFC
F000
F000
7C30
7FF8
3FF0
0FC0
ENDCHAR
STARTCHAR 0436
ENCODING 1078
SWIDTH 920 0
DWIDTH 23 0
BBX 22 14 0 0
BITMAP
78783C
78787C
3C7878
3C78F0
1E78F0
1E79E0
0FFFE0
0FFFE0
0FFFE0
1E79F0
3E78F0
3C7878
7C787C
F8783C
ENDCHAR
STARTCHAR 0437
ENCODING 1079
SWIDTH 560 0
DWIDTH 14 0
BBX 12 14 1 0
BITMAP
3F80
FFE0
FFE0
41F0
00F0
03E0
1FC0
1FE0
00F0
00F0
C0F0
FFF0
FFE0
3F80
ENDCHAR
STARTCHAR 0438
ENCODING 1080
SWIDTH 720 0
DWIDTH 18 0
BBX 14 14 2 0
BITMAP
F03C
F07C
F0FC
F0FC
F1FC
F3FC
F7BC
FFBC
FF3C
FE3C
FC3C
F83C
F83C
F03C
ENDCHAR
STARTCHAR 0439
ENCODING 1081
SWIDTH 720 0
DWIDTH 18 0
BBX 14 19 2 0
BITMAP
38E0
38E0
1FC0
0F80
0000
F03C
F07C
F0FC
F0FC
F1FC
F3FC
F7BC
FFBC
FF3C
FE3C
FC3C
F83C
F83C
F03C
ENDCHAR
STARTCHAR 043A
ENCODING 1082
SWIDTH 640 0
DWIDTH 16 0
BBX 14 14 2 0
BITMAP
F078
F078
F0F0
F1E0
F1E0
F3C0
FF80
FF80
FFC0
F3E0
F1E0
F0F0
F0F8
F07C
ENDCHAR
STARTCHAR 043B
ENCODING 1083
SWIDTH 680 0
DWIDTH 17 0
BBX 15 14 0 0
BITMAP
1FFE
1FFE
1FFE
1E1E
1E1E
1E1E
1C1E
1C1E
1C1E
1C1E
7C1E
FC1E
F81E
F01E
ENDCHAR
STARTCHAR 043C
ENCODING 1084
SWIDTH 800 0
DWIDTH 20 0
BBX 17 14 2 0
BITMAP
F00700
F80F00
F81F00
FC1F00
FC3F80
FE3F80
EE7780
EF7780
E7E780
E3E780
E3C780
E1C780
E18780
E00780
ENDCHAR
STARTCHAR 043D
ENCODING 1085
SWIDTH 680 0
DWIDTH 17 0
BBX 13 14 2 0
BITMAP
F038
F038
F038
F038
F038
F038
FFF8
FFF8
FFF8
F038
F038
F038
F038
F038
ENDCHAR
STARTCHAR 043E
ENCODING 1086
SWIDTH 640 0
DWIDTH 16 0
BBX 15 14 1 0
BITMAP
0FC0
3FF0
7FF8
7C7C
F03C
F03C
F01E
F01E
F03C
F83C
7C7C
7FF8
3FF0
0FC0
ENDCHAR
STARTCHAR 043F
ENCODING 1087
SWIDTH 680 0
DWIDTH 17 0
BBX 13 14 2 0
BITMAP
FFF8
FFF8
FFF8
F078
F078
F078
F078
F078
F078
F078
F078
F078
F078
F078
ENDCHAR
STARTCHAR 0440
ENCODING 1088
SWIDTH 680 0
DWIDTH 17 0
BBX 14 19 2 -5
BITMAP
F7E0
FFF0
FFF8
FC7C
F03C
F03C
F01C
F01C
F03C
F03C
FC7C
FFF8
FFF0
F7C0
F000
F000
F000
F000
F000
ENDCHAR
STARTCHAR 0441
ENCODING 1089
SWIDTH 600 0
DWIDTH 15 0
BBX 13 14 1 0
BITMAP
0FC0
3FF0
7FF8
7CF8
F020
F000
F000
F000
F000
F820
7CF8
7FF8
3FF0
0FC0
ENDCHAR
STARTCHAR 0442
ENCODING 1090
SWIDTH 520 0
DWIDTH 13 0
BBX 13 14 0 0
BITMAP
FFF8
FFF8
FFF8
0780
0780
0780
0780
0780
0780
0780
0780
0780
0780
0780
ENDCHAR
STARTCHAR 0443
ENCODING 1091
SWIDTH 600 0
DWIDTH 15 0
BBX 15 19 0 -5
BITMAP
F01E
781E
781C
783C
3C38
3C78
1E78
1E70
0EF0
0FE0
0FE0
07E0
07C0
03C0
0380
4780
7F00
FF00
7C00
ENDCHAR
STARTCHAR 0444
ENCODING 1092
SWIDTH 840 0
DWIDTH 21 0
BBX 19 24 1 -5
BITMAP
00E000
00E000
00E000
00E000
00E000
07FC00
1FFF80
7FFFC0
7CE7E0
F0E1E0
F0E1E0
F0E0E0
F0E0E0
F0E1E0
F0E1E0
7CE7E0
7FFFC0
1FFF00
07FC00
00E000
00E000
00E000
00E000
00E000
ENDCHAR
STARTCHAR 0445
ENCODING 1093
SWIDTH 600 0
DWIDTH 15 0
BBX 14 14 0 0
BITMAP
783C
7C78
3C78
1EF0
1FE0
0FE0
07C0
07C0
0FE0
1FE0
1EF0
3C78
787C
F83C
ENDCHAR
STARTCHAR 0446
ENCODING 1094
SWIDTH 720 0
DWIDTH 18 0
BBX 15 17 2 -3
BITMAP
F078
F078
F078
F078
F078
F078
F078
F078
F078
F078
F078
FFFE
FFFE
FFFE
001E
001E
001E
ENDCHAR
STARTCHAR 0447
ENCODING 1095
SWIDTH 640 0
DWIDTH 16 0
BBX 13 14 1 0
BITMAP
F078
F078
F078
F078
F078
F078
F878
FFF8
7FF8
3F78
0078
0078
0078
0078
ENDCHAR
STARTCHAR 0448
ENCODING 1096
SWIDTH 960 0
DWIDTH 24 0
BBX 20 14 2 0
BITMAP
F0F070
F0F070
F0F070
F0F070
F0F070
F0F070
F0F070
F0F070
F0F070
F0F070
F0F070
FFFFF0
FFFFF0
FFFFF0
ENDCHAR
STARTCHAR 0449
ENCODING 1097
SWIDTH 960 0
DWIDTH 24 0
BBX 22 17 2 -3
BITMAP
F0F070
F0F070
F0F070
F0F070
F0F070
F0F070
F0F070
F0F070
F0F070
F0F070
F0F070
FFFFFC
FFFFFC
FFFFFC
00001C
00001C
00001C
ENDCHAR
STARTCHAR 044A
ENCODING 1098
SWIDTH 680 0
DWIDTH 17 0
BBX 16 14 0 0
BITMAP
FF00
FF00
FF00
0F00
0FE0
0FFE
0FFF
0F0F
0F0F
0F07
0F0F
0FFF
0FFE
0FFC
ENDCHAR
STARTCHAR 044B
ENCODING 1099
SWIDTH 840 0
DWIDTH 21 0
BBX 18 14 2 0
BITMAP
F003C0
F003C0
F003C0
F003C0
F003C0
FFE3C0
FFF3C0
F0F3C0
F0F3C0
F0F3C0
F0F3C0
FFF3C0
FFE3C0
FF83C0
ENDCHAR
STARTCHAR 044C
ENCODING 1100
SWIDTH 600 0
DWIDTH 15 0
BBX 13 14 2 0
BITMAP
F000
F000
F000
F000
F000
FFE0
FFF0
F0F0
F078
F078
F0F0
FFF0
FFE0
FFC0
ENDCHAR
STARTCHAR 044D
ENCODING 1101
SWIDTH 600 0
DWIDTH 15 0
BBX 14 14 0 0
BITMAP
1F80
7FE0
FFF0
70F8
003C
07FC
07FC
07FC
003C
203C
70F8
FFF0
7FE0
1F80
ENDCHAR
STARTCHAR 044E
ENCODING 1102
SWIDTH 920 0
DWIDTH 23 0
BBX 20 14 2 0
BITMAP
F03F00
F0FF80
F1FFC0
F3E3E0
F3C1E0
FF80F0
FF80F0
FF80F0
F3C0F0
F3C1E0
F3E3E0
F1FFC0
F0FF80
F03E00
ENDCHAR
STARTCHAR 044F
ENCODING 1103
SWIDTH 640 0
DWIDTH 16 0
BBX 13 14 1 0
BITMAP
1FF8
3FF8
7FF8
F878
F078
F078
F078
7FF8
7FF8
1FF8
3C78
7C78
7878
F078
ENDCHAR
STARTCHAR 0450
ENCODING 1104
SWIDTH 640 0
DWIDTH 16 0
BBX 14 19 1 0
BITMAP
3C00
1E00
0700
0380
0000
0FC0
3FF0
7FF8
7878
F03C
F03C
FFFC
FFFC
F000
F000
7C30
7FF8
3FF0
0FC0
ENDCHAR
STARTCHAR 0451
ENCODING 1105
SWIDTH 640 0
DWIDTH 16 0
BBX 14 19 1 0
BITMAP
1CE0
1CE0
1CE0
0000
0000
0FC0
3FF0
7FF8
7878
F03C
F03C
FFFC
FFFC
F000
F000
7C30
7FF8
3FF0
0FC0
ENDCHAR
STARTCHAR 0452
ENCODING 1106
SWIDTH 680 0
DWIDTH 17 0
BBX 17 24 -1 -5
BITMAP
1E0000
1E0000
FFF000
FFF000
1E0000
1EFC00
1FFE00
1FFF00
1F9F00
1F0F80
1E0780
1E0780
1E0780
1E0780
1E0780
1E0780
1E0780
1E0780
1E0780
000780
004F00
007F00
007E00
007C00
ENDCHAR
STARTCHAR 0453
ENCODING 1107
SWIDTH 520 0
DWIDTH 13 0
BBX 11 19 2 0
BITMAP
03C0
0780
0E00
1C00
0000
FFE0
FFE0
FFE0
F000
F000
F000
F000
F000
F000
F000
F000
F000
F000
F000
ENDCHAR
STARTCHAR 0454
ENCODING 1108
SWIDTH 600 0
DWIDTH 15 0
BBX 13 14 1 0
BITMAP
0FC0
1FF0
3FF8
7830
F000
F000
FF80
FF80
FF80
F000
7830
7FF8
3FF0
0FC0
ENDCHAR
STARTCHAR 0455
ENCODING 1109
SWIDTH 560 0
DWIDTH 14 0
BBX 12 14 1 0
BITMAP
1FC0
3FE0
7FE0
F040
F000
F800
7FC0
7FE0
0FF0
00F0
60F0
FFF0
FFE0
3F80
ENDCHAR
STARTCHAR 0456
ENCODING 1110
SWIDTH 320 0
DWIDTH 8 0
BBX 5 20 1 0
BITMAP
78
F8
F8
70
00
00
78
78
78
78
78
78
78
78
78
78
78
78
78
78
ENDCHAR
STARTCHAR 0457
ENCODING 1111
SWIDTH 320 0
DWIDTH 8 0
BBX 7 19 0 0
BITMAP
66
EE
EE
00
00
3C
3C
3C
3C
3C
3C
3C
3C
3C
3C
3C
3C
3C
3C
ENDCHAR
STARTCHAR 0458
ENCODING 1112
SWIDTH 320 0
DWIDTH 8 0
BBX 8 25 -2 -5
BITMAP
0F
1F
0F
0E
00
00
0F
0F
0F
0F
0F
0F
0F
0F
0F
0F
0F
0F
0F
0F
0F
1F
FE
FE
F8
ENDCHAR
STARTCHAR 0459
ENCODING 1113
SWIDTH 960 0
DWIDTH 24 0
BBX 24 14 0 0
BITMAP
1FFE00
1FFE00
1FFE00
1E1E00
1E1E00
1E1FFC
1C1FFE
1C1E1E
1C1E0F
1C1E0F
7C1E1E
FC1FFE
F81FFC
F01FF8
ENDCHAR
STARTCHAR 045A
ENCODING 1114
SWIDTH 960 0
DWIDTH 24 0
BBX 22 14 2 0
BITMAP
F07800
F07800
F07800
F07800
F07800
FFFFE0
FFFFF8
FFFFFC
F0783C
F0783C
F0783C
F07FF8
F07FF8
F07FE0
ENDCHAR
STARTCHAR 045B
ENCODING 1115
SWIDTH 680 0
DWIDTH 17 0
BBX 17 19 -1 0
BITMAP
1E0000
1E0000
FFF000
FFF000
1E0000
1EFC00
1FFE00
1FFF00
1F9F00
1F0F80
1E0780
1E0780
1E0780
1E0780
1E0780
1E0780
1E0780
1E0780
1E0780
ENDCHAR
STARTCHAR 045C
ENCODING 1116
SWIDTH 640 0
DWIDTH 16 0
BBX 14 19 2 0
BITMAP
01E0
03C0
0700
0E00
0000
F078
F078
F0F0
F1E0
F1E0
F3C0
FF80
FF80
FFC0
F3E0
F1E0
F0F0
F0F8
F07C
ENDCHAR
STARTCHAR 045D
ENCODING 1117
SWIDTH 720 0
DWIDTH 18 0
BBX 14 19 2 0
BITMAP
3C00
1E00
0F00
0380
0000
F03C
F07C
F0FC
F0FC
F1FC
F3FC
F7BC
FFBC
FF3C
FE3C
FC3C
F83C
F83C
F03C
ENDCHAR
STARTCHAR 045E
ENCODING 1118
SWIDTH 600 0
DWIDTH 15 0
BBX 15 24 0 -5
BITMAP
1C70
1C70
0FE0
07C0
0000
F01E
781E
781C
783C
3C38
3C78
1E78
1E70
0EF0
0FE0
0FE0
07E0
07C0
03C0
0380
4780
7F00
FF00
7C00
ENDCHAR
STARTCHAR 045F
ENCODING 1119
SWIDTH 680 0
DWIDTH 17 0
BBX 13 17 2 -3
BITMAP
F078
F078
F078
F078
F078
F078
F078
F078
F078
F078
F078
FFF8
FFF8
FFF8
0F00
0F00
0F00
ENDCHAR
STARTCHAR 0462
ENCODING 1122
SWIDTH 840 0
DWIDTH 21 0
BBX 20 19 0 0
BITMAP
078000
078000
FFFC00
FFFC00
FFFC00
078000
078000
07FF80
07FFC0
07FFE0
0781F0
0780F0
0780F0
0780F0
0780F0
0781F0
07FFE0
07FFC0
07FF00
ENDCHAR
STARTCHAR 0463
ENCODING 1123
SWIDTH 640 0
DWIDTH 16 0
BBX 16 19 0 0
BITMAP
1E00
1E00
1E00
1E00
1E00
FFF0
FFF0
1E00
1E00
1E00
1FFC
1FFE
1E1E
1E0F
1E0F
1E1E
1FFE
1FFC
1FF8
ENDCHAR
STARTCHAR 046A
ENCODING 1130
SWIDTH 960 0
DWIDTH 24 0
BBX 23 18 0 0
BITMAP
1FFFF8
1FFFF8
1FFFF8
1F00F0
0F01E0
0783C0
03C780
01EF80
01FF80
07FFE0
0FFFF0
1F3CF8
3E3C78
3C3C3C
3C3C3C
783C3C
783C1E
F83C1E
ENDCHAR
STARTCHAR 046B
ENCODING 1131
SWIDTH 760 0
DWIDTH 19 0
BBX 19 14 0 0
BITMAP
3FFF80
3FFF80
3C0780
1E0F00
0F1E00
07BC00
03F800
0FFF00
1FFF80
3CE780
38E3C0
78E3C0
70E1E0
F0E1E0
ENDCHAR
STARTCHAR 0472
ENCODING 1138
SWIDTH 840 0
DWIDTH 21 0
BBX 19 18 1 0
BITMAP
03F800
0FFE00
1FFF00
3FBF80
7C07C0
7803C0
F803E0
F001E0
FFFFE0
FFFFE0
FFFFE0
F001E0
7803C0
7C07C0
3FBF80
1FFF00
0FFE00
03F800
ENDCHAR
STARTCHAR 0473
ENCODING 1139
SWIDTH 680 0
DWIDTH 17 0
BBX 15 14 1 0
BITMAP
0FC0
3FF0
7FF8
787C
F03C
F01E
FFFE
FFFE
F01E
F03C
787C
7FF8
3FF0
0FC0
ENDCHAR
STARTCHAR 0474
ENCODING 1140
SWIDTH 800 0
DWIDTH 20 0
BBX 19 18 0 0
BITMAP
F801E0
7803E0
7C07E0
3C07E0
3C0F80
3E0F00
1E1E00
1E1E00
0F1E00
0F3C00
0FBC00
07BC00
07F800
03F800
03F800
03F000
01F000
01F000
ENDCHAR
STARTCHAR 0475
ENCODING 1141
SWIDTH 640 0
DWIDTH 16 0
BBX 16 14 0 0
BITMAP
F00F
781F
783F
7C3F
3C3C
3C78
1E78
1EF0
0FF0
0FE0
0FE0
07E0
07C0
03C0
ENDCHAR
STARTCHAR 048A
ENCODING 1162
SWIDTH 880 0
DWIDTH 22 0
BBX 19 27 2 -4
BITMAP
1C3800
0E3800
0FF000
07E000
000000
F00F00
F01F00
F01F00
F03F00
F07F00
F07F00
F0FF00
F1FF00
F1EF00
F3CF00
F78F00
FF8F00
FF0F00
FE0F00
FC0F00
FC0FE0
F80FC0
F00FC0
0003C0
0003C0
000380
000380
ENDCHAR
STARTCHAR 048B
ENCODING 1163
SWIDTH 720 0
DWIDTH 18 0
BBX 16 22 2 -3
BITMAP
3860
38E0
1FC0
0700
0000
F03C
F07C
F0FC
F0FC
F1FC
F3FC
F7BC
FFBC
FF3C
FE3C
FC3C
F83F
F83E
F03E
000E
001E
001C
ENDCHAR
STARTCHAR 048C
ENCODING 1164
SWIDTH 760 0
DWIDTH 19 0
BBX 17 19 1 0
BITMAP
3C0000
3C0000
FFE000
FFE000
FFE000
3C0000
3C0000
3FFC00
3FFE00
3FFF00
3C0F80
3C0780
3C0780
3C0780
3C0780
3C0F80
3FFF00
3FFE00
3FF800
ENDCHAR
STARTCHAR 048D
ENCODING 1165
SWIDTH 640 0
DWIDTH 16 0
BBX 16 14 0 0
BITMAP
1E00
FFE0
FFE0
FFE0
1E00
1FF8
1FFE
1E3E
1E1F
1E0F
1E1E
1FFE
1FFC
1FF8
ENDCHAR
STARTCHAR 048E
ENCODING 1166
SWIDTH 720 0
DWIDTH 18 0
BBX 15 18 2 0
BITMAP
FFE0
FFF8
FFFC
F07E
F01E
F01E
F11E
F39E
F1DE
F0FE
FFFC
FFF8
FFF8
F01C
F00C
F000
F000
F000
ENDCHAR
STARTCHAR 048F
ENCODING 1167
SWIDTH 720 0
DWIDTH 18 0
BBX 15 19 2 -5
BITMAP
F3E0
FFF0
FFF8
FC7C
F03C
F03E
F01E
F09E
F1DC
F8FC
FCFC
FFF8
FFF8
F7FC
F008
F000
F000
F000
F000
ENDCHAR
STARTCHAR 0490
ENCODING 1168
SWIDTH 600 0
DWIDTH 15 0
BBX 13 22 2 0
BITMAP
0078
0078
0078
0078
FFF8
FFF8
FFF8
F000
F000
F000
F000
F000
F000
F000
F000
F000
F000
F000
F000
F000
F000
F000
ENDCHAR
STARTCHAR 0491
ENCODING 1169
SWIDTH 520 0
DWIDTH 13 0
BBX 10 17 2 0
BITMAP
01C0
01C0
01C0
FFC0
FFC0
FFC0
F000
F000
F000
F000
F000
F000
F000
F000
F000
F000
F000
ENDCHAR
STARTCHAR 0492
ENCODING 1170
SWIDTH 640 0
DWIDTH 16 0
BBX 14 18 1 0
BITMAP
3FFC
3FFC
3FFC
3C00
3C00
3C00
3C00
3C00
FFF8
FFF8
FFF8
3C00
3C00
3C00
3C00
3C00
3C00
3C00
ENDCHAR
STARTCHAR 0493
ENCODING 1171
SWIDTH 560 0
DWIDTH 14 0
BBX 12 14 1 0
BITMAP
3FF0
3FF0
3FF0
3800
3800
3800
3800
FFC0
FFC0
3800
3800
3800
3800
3800
ENDCHAR
STARTCHAR 0494
ENCODING 1172
SWIDTH 720 0
DWIDTH 18 0
BBX 15 22 2 -4
BITMAP
FFF8
FFF8
FFF8
F000
F000
F000
F000
F000
F7E0
FFF8
FFFC
F87C
F03E
F01E
F01E
F01E
F01E
F03C
007C
03F8
03F0
03C0
ENDCHAR
STARTCHAR 0495
ENCODING 1173
SWIDTH 640 0
DWIDTH 16 0
BBX 13 19 2 -5
BITMAP
FFC0
FFC0
FFC0
F000
F000
F000
FFC0
FFE0
FFF0
F0F8
F078
F078
F078
F078
0078
00F8
07F0
07E0
0F80
ENDCHAR
STARTCHAR 0496
ENCODING 1174
SWIDTH 1120 0
DWIDTH 28 0
BBX 26 22 1 -4
BITMAP
F01C0780
F81C0F00
781C0F00
3C1C1E00
3C1C1E00
1E1C3C00
1E1C3C00
0F1C7800
0FFFF800
0FFFF800
0FFFF800
1F1C7C00
3E1C3C00
3E1C3E00
7C1C1F00
781C0FC0
F81C0FC0
F01C07C0
000001C0
000001C0
000001C0
000001C0
ENDCHAR
STARTCHAR 0497
ENCODING 1175
SWIDTH 960 0
DWIDTH 24 0
BBX 23 17 0 -3
BITMAP
78783C
78787C
3C7878
3C78F0
1E78F0
1E79E0
0FFFE0
0FFFE0
0FFFE0
1E79F0
3E78F0
3C787E
7C787E
F8783E
00000E
00000E
00000E
ENDCHAR
STARTCHAR 0498
ENCODING 1176
SWIDTH 640 0
DWIDTH 16 0
BBX 14 22 1 -4
BITMAP
1FC0
FFF0
7FF8
79F8
007C
003C
0078
1FF0
1FE0
1FF8
007C
003C
003C
003C
E07C
FFF8
FFF0
1FC0
0780
0780
0780
0780
ENDCHAR
STARTCHAR 0499
ENCODING 1177
SWIDTH 560 0
DWIDTH 14 0
BBX 12 17 1 -3
BITMAP
3F80
FFE0
FFE0
41F0
00F0
01E0
1FE0
1FE0
03F0
00F0
80F0
FBF0
FFE0
7F80
0E00
0E00
0E00
ENDCHAR
STARTCHAR 049A
ENCODING 1178
SWIDTH 760 0
DWIDTH 19 0
BBX 17 22 2 -4
BITMAP
F01F00
F01E00
F03C00
F03C00
F07800
F0F000
F0F000
F1E000
FFE000
FFE000
FFE000
F1F000
F0F000
F07800
F07C00
F03F80
F03F80
F01F80
000780
000780
000780
000780
ENDCHAR
STARTCHAR 049B
ENCODING 1179
SWIDTH 640 0
DWIDTH 16 0
BBX 15 17 2 -3
BITMAP
F078
F078
F0F0
F1E0
F1E0
F3C0
FF80
FF80
FFC0
F3E0
F1E0
F0FE
F0FE
F07E
001E
001E
001E
ENDCHAR
STARTCHAR 049C
ENCODING 1180
SWIDTH 760 0
DWIDTH 19 0
BBX 17 18 2 0
BITMAP
F00F00
F00F00
F01E00
F01E00
F73C00
F73C00
F77800
F7F000
FFF000
FFF000
FFF800
F77800
F77C00
F73C00
F03E00
F01F00
F01F00
F00F80
ENDCHAR
STARTCHAR 049D
ENCODING 1181
SWIDTH 640 0
DWIDTH 16 0
BBX 14 14 2 0
BITMAP
F03C
F078
F078
F4F0
F4E0
F5E0
FFC0
FFC0
FFE0
FDE0
FCF0
F0F8
F078
F07C
ENDCHAR
STARTCHAR 049E
ENCODING 1182
SWIDTH 760 0
DWIDTH 19 0
BBX 17 18 1 0
BITMAP
3C0780
3C0F00
FF8F00
FF9E00
3C3C00
3C3C00
3C7800
3FF000
3FF000
3FF000
3C7800
3C7C00
3C3C00
3C3E00
3C1F00
3C0F00
3C0F80
3C0780
ENDCHAR
STARTCHAR 049F
ENCODING 1183
SWIDTH 640 0
DWIDTH 16 0
BBX 16 19 0 0
BITMAP
3C00
3C00
FF80
FF80
3C00
3C1E
3C1E
3C3C
3C78
3C78
3CF0
3FE0
3FE0
3FF0
3CF8
3C78
3C3C
3C3E
3C1F
ENDCHAR
STARTCHAR 04A0
ENCODING 1184
SWIDTH 880 0
DWIDTH 22 0
BBX 21 18 0 0
BITMAP
FF80F8
FF80F0
FF81E0
0783E0
0783C0
078780
078780
07FF00
07FE00
07FF00
078F80
078780
0787C0
0783C0
0781E0
0781F0
0780F0
0780F8
ENDCHAR
STARTCHAR 04A1
ENCODING 1185
SWIDTH 720 0
DWIDTH 18 0
BBX 18 14 0 0
BITMAP
FF0780
FF0780
FF0F00
0F1E00
0F3C00
0FFC00
0FF800
0FFC00
0F3E00
0F1E00
0F1F00
0F0F80
0F0780
0F07C0
ENDCHAR
STARTCHAR 04A2
ENCODING 1186
SWIDTH 840 0
DWIDTH 21 0
BBX 19 22 2 -4
BITMAP
F00F00
F00F00
F00F00
F00F00
F00F00
F00F00
F00F00
FFFF00
FFFF00
FFFF00
F00F00
F00F00
F00F00
F00F00
F00F00
F00FE0
F00FE0
F00FE0
0001E0
0001E0
0001E0
0001E0
ENDCHAR
STARTCHAR 04A3
ENCODING 1187
SWIDTH 720 0
DWIDTH 18 0
BBX 15 17 2 -3
BITMAP
F038
F038
F038
F038
F038
F038
FFF8
FFF8
FFF8
F038
F038
F03E
F03E
F03E
000E
000E
000E
ENDCHAR
STARTCHAR 04A4
ENCODING 1188
SWIDTH 1080 0
DWIDTH 27 0
BBX 25 18 2 0
BITMAP
F00FFF80
F00FFF80
F00FFF80
F00F0000
F00F0000
F00F0000
F00F0000
FFFF0000
FFFF0000
FFFF0000
F00F0000
F00F0000
F00F0000
F00F0000
F00F0000
F00F0000
F00F0000
F00F0000
ENDCHAR
STARTCHAR 04A5
ENCODING 1189
SWIDTH 920 0
DWIDTH 23 0
BBX 20 14 2 0
BITMAP
F03FF0
F03FF0
F03FF0
F03800
F03800
F03800
FFF800
FFF800
FFF800
F03800
F03800
F03800
F03800
F03800
ENDCHAR
STARTCHAR 04A6
ENCODING 1190
SWIDTH 1160 0
DWIDTH 29 0
BBX 27 22 2 -4
BITMAP
FFFF0000
FFFF0000
FFFF0000
F00F0000
F00F0000
F00F0000
F00F0000
F00F0000
F00FFE00
F00FFF80
F00FFFC0
F00F87C0
F00F03E0
F00F01E0
F00F01E0
F00F01E0
F00F03C0
F00F03C0
000007C0
00003F80
00003F00
00003C00
ENDCHAR
STARTCHAR 04A7
ENCODING 1191
SWIDTH 1000 0
DWIDTH 25 0
BBX 23 19 2 -5
BITMAP
FFF800
FFF800
FFF800
F07800
F07800
F07800
F07FE0
F07FF8
F07FFC
F07C7C
F0783C
F0783E
F0781E
F0783C
00003C
00007C
0003F8
0003F0
0003C0
ENDCHAR
STARTCHAR 04A8
ENCODING 1192
SWIDTH 960 0
DWIDTH 24 0
BBX 22 18 1 0
BITMAP
080FC0
1E1FF0
3C3FF8
7C78F8
78F07C
F8F03C
F0F03C
F0F03C
F0F03C
F0F03C
F0F038
787078
787870
7C7CF0
3F3FE0
1FFFFC
0FFFFC
01FDFC
ENDCHAR
STARTCHAR 04A9
ENCODING 1193
SWIDTH 840 0
DWIDTH 21 0
BBX 19 14 1 0
BITMAP
303E00
3CFF80
78FFC0
F9E3C0
F1C1C0
F1C1C0
F1C1C0
F1C1C0
F1E3C0
F9E380
7CFF80
3FFF40
1FFFE0
07FFE0
ENDCHAR
STARTCHAR 04AA
ENCODING 1194
SWIDTH 720 0
DWIDTH 18 0
BBX 16 22 1 -4
BITMAP
03F8
0FFE
1FFF
3FBF
7C06
7800
F800
F000
F000
F000
F000
F000
7800
7C06
3E0F
3FFF
0FFE
07F8
01E0
01E0
01E0
01E0
ENDCHAR
STARTCHAR 04AB
ENCODING 1195
SWIDTH 600 0
DWIDTH 15 0
BBX 13 17 1 -3
BITMAP
0FC0
1FF0
7FF8
7C78
F830
F000
F000
F000
F000
F020
F870
7FF8
3FF0
1FE0
0780
0780
0780
ENDCHAR
STARTCHAR 04AC
ENCODING 1196
SWIDTH 640 0
DWIDTH 16 0
BBX 16 22 0 -4
BITMAP
FFFF
FFFF
FFFF
03C0
03C0
03C0
03C0
03C0
03C0
03C0
03C0
03C0
03C0
03C0
03C0
03F0
03F0
03F0
0070
0070
0070
0070
ENDCHAR
STARTCHAR 04AD
ENCODING 1197
SWIDTH 520 0
DWIDTH 13 0
BBX 13 17 0 -3
BITMAP
FFF8
FFF8
FFF8
0780
0780
0780
0780
0780
0780
0780
0780
07E0
07E0
07E0
01E0
01E0
01E0
ENDCHAR
STARTCHAR 04AE
ENCODING 1198
SWIDTH 720 0
DWIDTH 18 0
BBX 17 18 0 0
BITMAP
F80780
780780
3C0F00
3C0F00
1E1E00
1F1C00
0F3C00
0FF800
07F800
03F000
03F000
01E000
01E000
01E000
01E000
01E000
01E000
01E000
ENDCHAR
STARTCHAR 04AF
ENCODING 1199
SWIDTH 600 0
DWIDTH 15 0
BBX 15 19 0 -5
BITMAP
F01E
781E
781C
783C
3C3C
3C78
1E78
1E70
1EF0
0FE0
0FE0
07E0
07C0
07C0
03C0
03C0
03C0
03C0
03C0
ENDCHAR
STARTCHAR 04B0
ENCODING 1200
SWIDTH 720 0
DWIDTH 18 0
BBX 17 18 0 0
BITMAP
F80780
780780
3C0F00
3C0F00
1E1E00
1F3C00
0F3C00
07F800
07F800
03F000
1FFC00
1FFC00
01E000
01E000
01E000
01E000
01E000
01E000
ENDCHAR
STARTCHAR 04B1
ENCODING 1201
SWIDTH 600 0
DWIDTH 15 0
BBX 15 19 0 -5
BITMAP
F01E
781E
781C
783C
3C3C
3C78
1E78
1E70
1EF0
0FF0
0FE0
07E0
07C0
3FFC
3FFC
03C0
03C0
03C0
03C0
ENDCHAR
STARTCHAR 04B2
ENCODING 1202
SWIDTH 760 0
DWIDTH 19 0
BBX 17 22 1 -4
BITMAP
F81F00
781E00
7C3E00
3E7C00
1E7800
1FF800
0FF000
07E000
07E000
07E000
0FF000
0FF000
1FF800
3E7C00
3C3C00
7C3F80
F81F80
F00F80
000380
000380
000380
000380
ENDCHAR
STARTCHAR 04B3
ENCODING 1203
SWIDTH 600 0
DWIDTH 15 0
BBX 16 17 0 -3
BITMAP
783C
7C78
3C78
1EF0
1FE0
0FE0
07C0
07C0
0FE0
1FE0
1EF0
3C7F
787F
F83F
000F
000F
000F
ENDCHAR
STARTCHAR 04B4
ENCODING 1204
SWIDTH 1000 0
DWIDTH 25 0
BBX 24 22 0 -4
BITMAP
FFFC3C
FFFC3C
FFFC3C
03C03C
03C03C
03C03C
03C03C
03C03C
03C03C
03C03C
03C03C
03C03C
03C03C
03C03C
03C03C
03FFFF
03FFFF
03FFFF
000007
000007
000007
000007
ENDCHAR
STARTCHAR 04B5
ENCODING 1205
SWIDTH 800 0
DWIDTH 20 0
BBX 19 17 0 -3
BITMAP
FFF3C0
FFF3C0
FFF3C0
0783C0
0783C0
0783C0
0783C0
0783C0
0783C0
0783C0
0783C0
07FFE0
07FFE0
07FFE0
0000E0
0000E0
0000E0
ENDCHAR
STARTCHAR 04B6
ENCODING 1206
SWIDTH 800 0
DWIDTH 20 0
BBX 18 22 1 -4
BITMAP
F00F00
F00F00
F00F00
F00F00
F00F00
F00F00
F00F00
F80F00
FC1F00
7FFF00
3FFF00
1FFF00
000F00
000F00
000F00
000FC0
000FC0
000FC0
0003C0
0003C0
0003C0
0003C0
ENDCHAR
STARTCHAR 04B7
ENCODING 1207
SWIDTH 680 0
DWIDTH 17 0
BBX 15 17 1 -3
BITMAP
F078
F078
F078
F078
F078
F078
F878
FFF8
7FF8
3F78
0078
007E
007E
007E
001E
001E
001E
ENDCHAR
STARTCHAR 04B8
ENCODING 1208
SWIDTH 760 0
DWIDTH 19 0
BBX 16 18 1 0
BITMAP
F00F
F00F
F00F
F00F
F00F
F00F
F18F
F98F
FDBF
7FFF
3FFF
1FFF
018F
018F
018F
000F
000F
000F
ENDCHAR
STARTCHAR 04B9
ENCODING 1209
SWIDTH 640 0
DWIDTH 16 0
BBX 13 14 1 0
BITMAP
F078
F078
F078
F078
F678
F678
FFF8
7FF8
3FF8
0678
0678
0678
0078
0078
ENDCHAR
STARTCHAR 04BA
ENCODING 1210
SWIDTH 760 0
DWIDTH 19 0
BBX 16 18 2 0
BITMAP
F000
F000
F000
F000
F000
F000
FFF8
FFFC
FFFE
F83E
F01F
F00F
F00F
F00F
F00F
F00F
F00F
F00F
ENDCHAR
STARTCHAR 04BB
ENCODING 1211
SWIDTH 680 0
DWIDTH 17 0
BBX 14 19 2 0
BITMAP
F000
F000
F000
F000
F000
F7E0
FFF0
FFF8
FCF8
F07C
F03C
F03C
F03C
F03C
F03C
F03C
F03C
F03C
F03C
ENDCHAR
STARTCHAR 04BC
ENCODING 1212
SWIDTH 1000 0
DWIDTH 25 0
BBX 24 18 1 0
BITMAP
001FC0
007FF0
00FFF8
E1FDFC
E3E07E
E3C03E
E3C01E
F7801F
FFFFFF
7FFFFF
3FFFFF
07C000
03C000
03E030
01FDF8
00FFFC
007FF0
001FC0
ENDCHAR
STARTCHAR 04BD
ENCODING 1213
SWIDTH 800 0
DWIDTH 20 0
BBX 20 14 0 0
BITMAP
003E00
00FF80
01FFC0
73C3E0
F3C1E0
F780F0
7FFFF0
3FFFF0
078000
03C000
03E180
01FFC0
00FFC0
003F00
ENDCHAR
STARTCHAR 04BE
ENCODING 1214
SWIDTH 1000 0
DWIDTH 25 0
BBX 24 22 1 -4
BITMAP
001FC0
007FF0
00FFF8
E1FDFC
E3E07E
E3C03E
E3C01E
F7801F
FFFFFF
7FFFFF
3FFFFF
07C000
03C000
03E010
01F078
00FFFC
007FF8
001FE0
000780
000780
000780
000780
ENDCHAR
STARTCHAR 04BF
ENCODING 1215
SWIDTH 800 0
DWIDTH 20 0
BBX 20 17 0 -3
BITMAP
003E00
00FF80
01FFC0
73E3E0
F3C1E0
F780F0
7FFFF0
3FFFF0
078000
07C000
03C080
01FFC0
00FFC0
003F00
001C00
001C00
001C00
ENDCHAR
STARTCHAR 04C0
ENCODING 1216
SWIDTH 320 0
DWIDTH 8 0
BBX 4 18 2 0
BITMAP
F0
F0
F0
F0
F0
F0
F0
F0
F0
F0
F0
F0
F0
F0
F0
F0
F0
F0
ENDCHAR
STARTCHAR 04C1
ENCODING 1217
SWIDTH 1080 0
DWIDTH 27 0
BBX 25 23 1 0
BITMAP
00E18000
00E38000
00FF8000
003E0000
00000000
F01C0780
F81C0F00
781C0F00
3C1C1E00
3C1C1E00
1E1C3C00
1E1C3C00
0F1C7800
0FFFF800
0FFFF800
0FFFF800
1F1C7C00
3E1C3C00
3E1C3E00
7C1C1F00
781C0F00
F81C0F80
F01C0780
ENDCHAR
STARTCHAR 04C2
ENCODING 1218
SWIDTH 920 0
DWIDTH 23 0
BBX 22 19 0 0
BITMAP
01C700
01C700
00FE00
007C00
000000
78783C
78787C
3C7878
3C78F0
1E78F0
1E79E0
0FFFE0
0FFFE0
0FFFE0
1E79F0
3E78F0
3C7878
7C787C
F8783C
ENDCHAR
STARTCHAR 04C3
ENCODING 1219
SWIDTH 760 0
DWIDTH 19 0
BBX 16 23 2 -5
BITMAP
F01F
F01E
F03C
F03C
F078
F0F0
F0F0
F1E0
FFE0
FFE0
FFF0
F0F8
F0F8
F07C
F03E
F01E
F01F
F00F
000F
001F
00FF
00FE
00FC
ENDCHAR
STARTCHAR 04C4
ENCODING 1220
SWIDTH 640 0
DWIDTH 16 0
BBX 14 19 2 -5
BITMAP
F078
F078
F0F0
F1E0
F1E0
F3C0
FF80
FFC0
FFE0
F1F0
F0F0
F0F8
F078
F03C
003C
007C
03F8
03F8
03E0
ENDCHAR
STARTCHAR 04C6
ENCODING 1222
SWIDTH 680 0
DWIDTH 17 0
BBX 17 17 0 -3
BITMAP
1FFE00
1FFE00
1FFE00
1E1E00
1E1E00
1E1E00
1C1E00
1C1E00
1C1E00
1C1E00
7C1E00
FC1F80
F81F00
F01F00
000700
000F00
000E00
ENDCHAR
STARTCHAR 04C7
ENCODING 1223
SWIDTH 800 0
DWIDTH 20 0
BBX 16 23 2 -5
BITMAP
F00F
F00F
F00F
F00F
F00F
F00F
F00F
F00F
FFFF
FFFF
FFFF
F00F
F00F
F00F
F00F
F00F
F00F
F00F
000F
001F
007F
00FE
0078
ENDCHAR
STARTCHAR 04C8
ENCODING 1224
SWIDTH 680 0
DWIDTH 17 0
BBX 14 19 2 -5
BITMAP
F03C
F03C
F03C
F03C
F03C
F03C
FFFC
FFFC
FFFC
F03C
F03C
F03C
F03C
F03C
003C
0278
03F8
03F0
03E0
ENDCHAR
STARTCHAR 04C9
ENCODING 1225
SWIDTH 840 0
DWIDTH 21 0
BBX 19 22 2 -4
BITMAP
F00F00
F00F00
F00F00
F00F00
F00F00
F00F00
F00F00
FFFF00
FFFF00
FFFF00
F00F00
F00F00
F00F00
F00F00
F00F00
F00FE0
F00FC0
F00FC0
0003C0
000380
000380
000380
ENDCHAR
STARTCHAR 04CA
ENCODING 1226
SWIDTH 720 0
DWIDTH 18 0
BBX 15 17 2 -3
BITMAP
F038
F038
F038
F038
F038
F038
FFF8
FFF8
FFF8
F038
F038
F03E
F03E
F03E
001E
001C
001C
ENDCHAR
STARTCHAR 04CB
ENCODING 1227
SWIDTH 760 0
DWIDTH 19 0
BBX 15 22 1 -4
BITMAP
F01E
F01E
F01E
F01E
F01E
F01E
F01E
FC1E
7FFE
3FFE
1FFE
001E
001E
001E
001E
00FE
00FE
00FE
00F0
00F0
00F0
00F0
ENDCHAR
STARTCHAR 04CC
ENCODING 1228
SWIDTH 640 0
DWIDTH 16 0
BBX 13 17 1 -3
BITMAP
F078
F078
F078
F078
F078
F078
FFF8
7FF8
3F78
0078
0078
01F8
01F8
01F8
01C0
01C0
01C0
ENDCHAR
STARTCHAR 04CD
ENCODING 1229
SWIDTH 1000 0
DWIDTH 25 0
BBX 23 22 2 -4
BITMAP
F000F0
F000F0
F801F0
FC01F0
FC03F0
FE07F0
FE07F0
FF0FF0
F70EF0
F79EF0
F3DCF0
F3FCF0
F1F8F0
F0F0F0
F0F0F0
F060FE
F000FC
F000FC
00003C
000038
000038
000038
ENDCHAR
STARTCHAR 04CE
ENCODING 1230
SWIDTH 840 0
DWIDTH 21 0
BBX 19 17 2 -3
BITMAP
F00700
F80F00
F81F00
FC1F80
FC3F80
FE3F80
EE7F80
EF7780
E7E780
E3E780
E3C780
E1C7E0
E187C0
E007C0
0001C0
0003C0
000380
ENDCHAR
STARTCHAR 04CF
ENCODING 1231
SWIDTH 320 0
DWIDTH 8 0
BBX 4 19 2 0
BITMAP
F0
F0
F0
F0
F0
F0
F0
F0
F0
F0
F0
F0
F0
F0
F0
F0
F0
F0
F0
ENDCHAR
STARTCHAR 04D0
ENCODING 1232
SWIDTH 800 0
DWIDTH 20 0
BBX 20 23 0 0
BITMAP
070E00
070E00
03FC00
01F800
000000
00F000
01F800
01F800
03FC00
03FC00
039C00
079E00
079E00
0F0F00
0F0F00
1E0780
1FFF80
1FFF80
3FFFC0
3C03C0
7801E0
7801E0
F801F0
ENDCHAR
STARTCHAR 04D1
ENCODING 1233
SWIDTH 600 0
DWIDTH 15 0
BBX 13 19 1 0
BITMAP
38E0
38E0
1FC0
0F80
0000
1F80
FFE0
7FF0
61F0
00F0
0078
3FF8
7FF8
F078
F078
F0F8
FFF8
7FF8
3E78
ENDCHAR
STARTCHAR 04D2
ENCODING 1234
SWIDTH 800 0
DWIDTH 20 0
BBX 20 23 0 0
BITMAP
039C00
039C00
039C00
000000
000000
00F000
01F800
01F800
03FC00
03FC00
039C00
079E00
079E00
0F0F00
0F0F00
1E0780
1FFF80
1FFF80
3FFFC0
3C03C0
7801E0
7801E0
F801F0
ENDCHAR
STARTCHAR 04D3
ENCODING 1235
SWIDTH 600 0
DWIDTH 15 0
BBX 13 19 1 0
BITMAP
18C0
3DE0
3DE0
0000
0000
1F80
FFE0
7FF0
61F0
00F0
0078
3FF8
7FF8
F078
F078
F0F8
FFF8
7FF8
3E78
ENDCHAR
STARTCHAR 04D4
ENCODING 1236
SWIDTH 1080 0
DWIDTH 27 0
BBX 26 18 0 0
BITMAP
003FFFC0
007FFFC0
007FFFC0
00F78000
01E78000
01E78000
03C78000
03C7FF80
0787FF80
0787FF80
0F078000
0FFF8000
1FFF8000
1FFF8000
3C078000
7C07FFC0
7807FFC0
F807FFC0
ENDCHAR
STARTCHAR 04D5
ENCODING 1237
SWIDTH 1000 0
DWIDTH 25 0
BBX 23 14 1 0
BITMAP
1F87E0
FFEFF8
7FFFFC
61FC3C
00F81E
00781E
3FFFFE
7FFFFE
F07800
F07800
F0FE38
FFFFFC
7FDFF8
3F07E0
ENDCHAR
STARTCHAR 04D6
ENCODING 1238
SWIDTH 680 0
DWIDTH 17 0
BBX 14 23 2 0
BITMAP
3870
38E0
1FE0
0FC0
0000
FFF8
FFF8
FFF8
F000
F000
F000
F000
FFF0
FFF0
FFF0
F000
F000
F000
F000
F000
FFFC
FFFC
FFFC
ENDCHAR
STARTCHAR 04D7
ENCODING 1239
SWIDTH 640 0
DWIDTH 16 0
BBX 14 19 1 0
BITMAP
3860
1CE0
1FE0
0780
0000
0FC0
3FF0
7FF8
7878
F03C
F03C
FFFC
FFFC
F000
F000
7C30
7FF8
3FF0
0FC0
ENDCHAR
STARTCHAR 04D8
ENCODING 1240
SWIDTH 840 0
DWIDTH 21 0
BBX 19 18 1 0
BITMAP
03F000
1FFE00
3FFF00
3FFF80
180F80
0007C0
0003C0
FFFFC0
FFFFE0
FFFFE0
F003C0
F003C0
F807C0
7C0F80
3F3F80
3FFF00
0FFC00
03F000
ENDCHAR
STARTCHAR 04D9
ENCODING 1241
SWIDTH 640 0
DWIDTH 16 0
BBX 14 14 1 0
BITMAP
0FC0
3FF0
7FF8
38F8
003C
003C
FFFC
FFFC
F03C
F03C
7878
3FF8
1FF0
0FC0
ENDCHAR
STARTCHAR 04DA
ENCODING 1242
SWIDTH 840 0
DWIDTH 21 0
BBX 19 22 1 0
BITMAP
073800
073C00
071800
000000
03F000
1FFE00
3FFF00
3FFF80
180F80
0007C0
0003C0
FFFFC0
FFFFE0
FFFFE0
F003C0
F003C0
F807C0
7C0F80
3F3F80
3FFF00
0FFC00
03F000
ENDCHAR
STARTCHAR 04DB
ENCODING 1243
SWIDTH 640 0
DWIDTH 16 0
BBX 14 19 1 0
BITMAP
1CE0
1CE0
1CE0
0000
0000
0FC0
3FF0
7FF8
38F8
003C
003C
FFFC
FFFC
F03C
F03C
7878
3FF8
1FF0
0FC0
ENDCHAR
STARTCHAR 04DC
ENCODING 1244
SWIDTH 1080 0
DWIDTH 27 0
BBX 25 23 1 0
BITMAP
00630000
00F78000
00F78000
00000000
00000000
F01C0780
F81C0F00
781C0F00
3C1C1E00
3C1C1E00
1E1C3C00
1E1C3C00
0F1C7800
0FFFF800
0FFFF800
0FFFF800
1F1C7C00
3E1C3C00
3E1C3E00
7C1C1F00
781C0F00
F81C0F80
F01C0780
ENDCHAR
STARTCHAR 04DD
ENCODING 1245
SWIDTH 920 0
DWIDTH 23 0
BBX 22 19 0 0
BITMAP
00C600
01EF00
01CF00
000000
000000
78783C
78787C
3C7878
3C78F0
1E78F0
1E79E0
0FFFE0
0FFFE0
0FFFE0
1E79F0
3E78F0
3C7878
7C787C
F8783C
ENDCHAR
STARTCHAR 04DE
ENCODING 1246
SWIDTH 640 0
DWIDTH 16 0
BBX 14 22 1 0
BITMAP
1CE0
1CE0
1CE0
0000
1FC0
FFF0
7FF8
79F8
007C
003C
0078
1FF0
1FE0
1FF8
007C
003C
003C
003C
F8FC
FFF8
FFF0
1FC0
ENDCHAR
STARTCHAR 04DF
ENCODING 1247
SWIDTH 560 0
DWIDTH 14 0
BBX 12 19 1 0
BITMAP
39C0
39C0
39C0
0000
0000
3F80
FFE0
FFE0
41F0
00F0
03E0
1FC0
1FE0
00F0
00F0
C0F0
FFF0
FFE0
3F80
ENDCHAR
STARTCHAR 04E0
ENCODING 1248
SWIDTH 640 0
DWIDTH 16 0
BBX 14 18 1 0
BITMAP
FFF8
FFF8
FFF8
00F0
01E0
03C0
0780
0FC0
0FF0
0FF8
007C
003C
003C
403C
F8FC
FFF8
FFF0
1FC0
ENDCHAR
STARTCHAR 04E1
ENCODING 1249
SWIDTH 560 0
DWIDTH 14 0
BBX 13 19 0 -5
BITMAP
FFF0
FFF0
FFF0
00F0
01E0
03C0
0780
0F00
0FE0
0FF0
0FF8
0078
0078
0078
4078
F9F8
FFF0
FFE0
3F80
ENDCHAR
STARTCHAR 04E2
ENCODING 1250
SWIDTH 840 0
DWIDTH 21 0
BBX 16 22 2 0
BITMAP
0FF8
0FF8
0000
0000
F00F
F01F
F01F
F03F
F07F
F07F
F0FF
F1EF
F3EF
F3CF
F78F
FF8F
FF0F
FE0F
FC0F
FC0F
F80F
F00F
ENDCHAR
STARTCHAR 04E3
ENCODING 1251
SWIDTH 720 0
DWIDTH 18 0
BBX 14 19 2 0
BITMAP
3FE0
3FE0
0000
0000
0000
F03C
F07C
F0FC
F0FC
F1FC
F3FC
F7BC
FFBC
FF3C
FE3C
FC3C
F83C
F83C
F03C
ENDCHAR
STARTCHAR 04E4
ENCODING 1252
SWIDTH 840 0
DWIDTH 21 0
BBX 16 23 2 0
BITMAP
0E30
0E78
0E70
0000
0000
F00F
F01F
F01F
F03F
F07F
F07F
F0FF
F1EF
F3EF
F3CF
F78F
FF8F
FF0F
FE0F
FC0F
FC0F
F80F
F00F
ENDCHAR
STARTCHAR 04E5
ENCODING 1253
SWIDTH 720 0
DWIDTH 18 0
BBX 14 19 2 0
BITMAP
18C0
3DE0
1CE0
0000
0000
F03C
F07C
F0FC
F0FC
F1FC
F3FC
F7BC
FFBC
FF3C
FE3C
FC3C
F83C
F83C
F03C
ENDCHAR
STARTCHAR 04E6
ENCODING 1254
SWIDTH 840 0
DWIDTH 21 0
BBX 19 22 1 0
BITMAP
079C00
07BC00
031800
000000
03F800
0FFE00
1FFF00
3FBF80
7C07C0
7803C0
F803E0
F001E0
F001E0
F001E0
F001E0
F801E0
7803C0
7C07C0
3FBF80
1FFF00
0FFE00
03F800
ENDCHAR
STARTCHAR 04E7
ENCODING 1255
SWIDTH 640 0
DWIDTH 16 0
BBX 15 19 1 0
BITMAP
1CE0
1CE0
1CE0
0000
0000
0FC0
3FF0
7FF8
7C7C
F03C
F03C
F01E
F01E
F03C
F83C
7C7C
7FF8
3FF0
0FC0
ENDCHAR
STARTCHAR 04E8
ENCODING 1256
SWIDTH 840 0
DWIDTH 21 0
BBX 19 18 1 0
BITMAP
03F800
0FFE00
1FFF00
3FBF80
7C07C0
7803C0
F803E0
F001E0
FFFFE0
FFFFE0
FFFFE0
F001E0
7803C0
7C07C0
3FBF80
1FFF00
0FFE00
03F800
ENDCHAR
STARTCHAR 04E9
ENCODING 1257
SWIDTH 680 0
DWIDTH 17 0
BBX 15 14 1 0
BITMAP
0FC0
3FF0
7FF8
787C
F03C
F01E
FFFE
FFFE
F01E
F03C
787C
7FF8
3FF0
0FC0
ENDCHAR
STARTCHAR 04EA
ENCODING 1258
SWIDTH 840 0
DWIDTH 21 0
BBX 19 22 1 0
BITMAP
079C00
07BC00
031800
000000
03F800
0FFE00
1FFF00
3FBF80
7C07C0
7803C0
F803E0
F001E0
FFFFE0
FFFFE0
FFFFE0
F001E0
7803C0
7C07C0
3FBF80
1FFF00
0FFE00
03F800
ENDCHAR
STARTCHAR 04EB
ENCODING 1259
SWIDTH 680 0
DWIDTH 17 0
BBX 15 19 1 0
BITMAP
1C60
1CF0
1CE0
0000
0000
0FC0
3FF0
7FF8
787C
F03C
F01E
FFFE
FFFE
F01E
F03C
787C
7FF8
3FF0
0FC0
ENDCHAR
STARTCHAR 04EC
ENCODING 1260
SWIDTH 720 0
DWIDTH 18 0
BBX 16 22 1 0
BITMAP
1CE0
1CE0
1CE0
0000
0FC0
7FF0
FFF8
FDFC
603E
001E
001F
0FFF
0FFF
0FFF
001F
001E
001E
603E
FDFC
FFF8
7FF0
1FC0
ENDCHAR
STARTCHAR 04ED
ENCODING 1261
SWIDTH 600 0
DWIDTH 15 0
BBX 14 19 0 0
BITMAP
1CE0
1CE0
1CE0
0000
0000
1F80
7FE0
FFF0
70F8
003C
07FC
07FC
07FC
003C
203C
70F8
FFF0
7FE0
1F80
ENDCHAR
STARTCHAR 04EE
ENCODING 1262
SWIDTH 720 0
DWIDTH 18 0
BBX 18 22 0 0
BITMAP
0FFC00
0FFC00
000000
000000
F803C0
780780
3C0780
3C0F00
1E0F00
1E1E00
0F1C00
0F3C00
07B800
07F800
03F000
03F000
01E000
01E000
17C000
3F8000
3F8000
3E0000
ENDCHAR
STARTCHAR 04EF
ENCODING 1263
SWIDTH 600 0
DWIDTH 15 0
BBX 15 24 0 -5
BITMAP
1FF0
1FF0
0000
0000
0000
F01E
781E
781C
783C
3C38
3C78
1E78
1E70
0EF0
0FE0
0FE0
07E0
07C0
03C0
0380
4780
7F00
FF00
7C00
ENDCHAR
STARTCHAR 04F0
ENCODING 1264
SWIDTH 720 0
DWIDTH 18 0
BBX 18 23 0 0
BITMAP
073800
073800
073800
000000
000000
F803C0
780780
3C0780
3C0F00
1E0F00
1E1E00
0F1C00
0F3C00
07B800
07F800
03F000
03F000
01E000
01E000
17C000
3F8000
3F8000
3E0000
ENDCHAR
STARTCHAR 04F1
ENCODING 1265
SWIDTH 600 0
DWIDTH 15 0
BBX 15 24 0 -5
BITMAP
0C60
1EF0
1CE0
0000
0000
F01E
781E
781C
783C
3C38
3C78
1E78
1E70
0EF0
0FE0
0FE0
07E0
07C0
03C0
0380
4780
7F00
FF00
7C00
ENDCHAR
STARTCHAR 04F2
ENCODING 1266
SWIDTH 720 0
DWIDTH 18 0
BBX 18 23 0 0
BITMAP
01CE00
039C00
039C00
073800
000000
F803C0
780780
3C0780
3C0F00
1E0F00
1E1E00
0F1C00
0F3C00
07B800
07F800
03F000
03F000
01E000
01E000
17C000
3F8000
3F8000
3E0000
ENDCHAR
STARTCHAR 04F3
ENCODING 1267
SWIDTH 600 0
DWIDTH 15 0
BBX 15 24 0 -5
BITMAP
07BC
0F38
0E70
1C60
0000
F01E
781E
781C
783C
3C38
3C78
1E78
1E70
0EF0
0FE0
0FE0
07E0
07C0
03C0
0380
4780
7F00
FF00
7C00
ENDCHAR
STARTCHAR 04F4
ENCODING 1268
SWIDTH 760 0
DWIDTH 19 0
BBX 16 23 1 0
BITMAP
0E70
0E70
0E70
0000
0000
F00F
F00F
F00F
F00F
F00F
F00F
F00F
F80F
FC1F
7FFF
3FFF
1FFF
000F
000F
000F
000F
000F
000F
ENDCHAR
STARTCHAR 04F5
ENCODING 1269
SWIDTH 640 0
DWIDTH 16 0
BBX 13 19 1 0
BITMAP
18C0
3DE0
39C0
0000
0000
F078
F078
F078
F078
F078
F078
F878
FFF8
7FF8
3F78
0078
0078
0078
0078
ENDCHAR
STARTCHAR 04F6
ENCODING 1270
SWIDTH 600 0
DWIDTH 15 0
BBX 13 22 2 -4
BITMAP
FFF8
FFF0
FFF0
F000
F000
F000
F000
F000
F000
F000
F000
F000
F000
F000
F000
FE00
FE00
FE00
1E00
1E00
1E00
1E00
ENDCHAR
STARTCHAR 04F7
ENCODING 1271
SWIDTH 520 0
DWIDTH 13 0
BBX 11 17 2 -3
BITMAP
FFE0
FFE0
FFE0
F000
F000
F000
F000
F000
F000
F000
F000
FC00
FC00
FC00
3C00
3C00
3C00
ENDCHAR
STARTCHAR 04F8
ENCODING 1272
SWIDTH 1040 0
DWIDTH 26 0
BBX 22 23 2 0
BITMAP
01CE00
01CE00
01CE00
000000
000000
F0007C
F0007C
F0007C
F0007C
F0007C
F0007C
FFF07C
FFFC7C
FFFC7C
F03E7C
F01E7C
F01E7C
F01E7C
F01E7C
F03E7C
FFFC7C
FFF87C
FFE07C
ENDCHAR
STARTCHAR 04F9
ENCODING 1273
SWIDTH 840 0
DWIDTH 21 0
BBX 18 19 2 0
BITMAP
073800
073800
073800
000000
000000
F003C0
F003C0
F003C0
F003C0
F003C0
FFE3C0
FFF3C0
F0F3C0
F0F3C0
F0F3C0
F0F3C0
FFF3C0
FFE3C0
FF83C0
ENDCHAR
STARTCHAR 04FA
ENCODING 1274
SWIDTH 640 0
DWIDTH 16 0
BBX 15 23 0 -5
BITMAP
1FFE
1FFE
1FFE
1E00
1E00
1E00
1E00
1E00
FFFC
FFFC
FFFC
1E00
1E00
1E00
1E00
1F80
1F80
1F80
0780
0780
3F80
7F00
3E00
ENDCHAR
STARTCHAR 04FB
ENCODING 1275
SWIDTH 520 0
DWIDTH 13 0
BBX 12 19 1 -5
BITMAP
3FF0
3FF0
3FF0
3C00
3C00
3C00
FFC0
FFC0
3C00
3C00
3C00
3F00
3F00
3F00
0F00
1E00
FE00
FC00
F800
ENDCHAR
STARTCHAR 04FC
ENCODING 1276
SWIDTH 720 0
DWIDTH 18 0
BBX 16 23 1 -5
BITMAP
F00F
F81E
7C3E
3E3C
1E78
1FF8
0FF0
07E0
07C0
07E0
0FF0
0FF8
1E7C
3E7C
3C3E
781F
F81F
F00F
000F
001F
007F
00FE
007C
ENDCHAR
STARTCHAR 04FD
ENCODING 1277
SWIDTH 600 0
DWIDTH 15 0
BBX 15 19 0 -5
BITMAP
783C
7C7C
3C78
1EF0
1FE0
0FE0
07C0
07E0
0FE0
1FF0
1EF8
3C7C
783C
F83E
001E
003E
01FC
01FC
01F0
ENDCHAR
STARTCHAR 04FE
ENCODING 1278
SWIDTH 720 0
DWIDTH 18 0
BBX 17 18 1 0
BITMAP
F81F00
781E00
7C3E00
3E7C00
1E7800
1FF800
0FF000
7FFE00
7FFE00
7FFE00
0FF000
0FF800
1FF800
3E7C00
3C3E00
7C3E00
F81F00
F00F80
ENDCHAR
STARTCHAR 04FF
ENCODING 1279
SWIDTH 600 0
DWIDTH 15 0
BBX 14 14 1 0
BITMAP
F078
F878
7CF0
3DE0
1FE0
1FC0
7FF0
7FF0
1FC0
1FE0
3DE0
78F0
F8F8
F07C
ENDCHAR
STARTCHAR 0510
ENCODING 1296
SWIDTH 640 0
DWIDTH 16 0
BBX 14 18 1 0
BITMAP
07F0
1FFC
3FFC
7E38
7800
7800
7C00
3FE0
1FE0
7FE0
7800
F000
F000
F804
FE3C
7FFC
3FFC
0FF0
ENDCHAR
STARTCHAR 0511
ENCODING 1297
SWIDTH 560 0
DWIDTH 14 0
BBX 12 14 1 0
BITMAP
1FC0
7FF0
7FF0
F820
F000
7C00
3F80
7F80
F000
F000
F830
FFF0
7FF0
1FC0
ENDCHAR
STARTCHAR 0512
ENCODING 1298
SWIDTH 800 0
DWIDTH 20 0
BBX 18 23 0 -5
BITMAP
0FFFC0
0FFFC0
0FFFC0
0F03C0
0F03C0
0F03C0
0F03C0
0F03C0
0F03C0
0F03C0
0E03C0
0E03C0
1E03C0
1E03C0
7E03C0
FC03C0
FC03C0
F003C0
0003C0
0027C0
003F80
003F80
003E00
ENDCHAR
STARTCHAR 0513
ENCODING 1299
SWIDTH 680 0
DWIDTH 17 0
BBX 15 19 0 -5
BITMAP
1FFE
1FFE
1FFE
1E1E
1E1E
1E1E
1C1E
1C1E
1C1E
1C1E
7C1E
FC1E
F81E
F01E
001E
003E
01FC
01FC
01F0
ENDCHAR
STARTCHAR 051A
ENCODING 1306
SWIDTH 840 0
DWIDTH 21 0
BBX 20 22 1 -4
BITMAP
03F800
0FFE00
1FFF00
3FBF80
7C07C0
7803C0
F803E0
F001E0
F001E0
F001E0
F001E0
F801E0
7803E0
7C07C0
3F1F80
3FFF80
0FFE00
07FC00
00FC60
007FF0
001FE0
000FC0
ENDCHAR
STARTCHAR 051B
ENCODING 1307
SWIDTH 680 0
DWIDTH 17 0
BBX 14 19 1 -5
BITMAP
0F9C
3FFC
7FFC
7C7C
F83C
F03C
F01C
F01C
F03C
F83C
7C7C
7FFC
3FDC
0F9C
001C
001C
001C
001C
001C
ENDCHAR
STARTCHAR 051C
ENCODING 1308
SWIDTH 1120 0
DWIDTH 28 0
BBX 28 18 0 0
BITMAP
F80F00F0
780F81E0
780F81E0
7C1F81E0
3C1F81C0
3C1FC3C0
3E3FC3C0
1E3DC380
1E39E780
1E79E780
0F78E780
0F70FF00
0FF0FF00
07F0FF00
07E07E00
07E07E00
03E07E00
03C03C00
ENDCHAR
STARTCHAR 051D
ENCODING 1309
SWIDTH 960 0
DWIDTH 24 0
BBX 24 14 0 0
BITMAP
F03C0F
783E0F
783E0E
787E1E
3C7F1E
3C7F3C
3CF73C
1EE7B8
1FE7F8
1FE3F8
0FC3F0
0FC3F0
0FC1F0
0781E0
ENDCHAR
STARTCHAR 0524
ENCODING 1316
SWIDTH 840 0
DWIDTH 21 0
BBX 19 22 2 -4
BITMAP
FFFF00
FFFF00
FFFF00
F00F00
F00F00
F00F00
F00F00
F00F00
F00F00
F00F00
F00F00
F00F00
F00F00
F00F00
F00F00
F00FE0
F00FE0
F00FE0
0001E0
0001E0
0001E0
0001E0
ENDCHAR
STARTCHAR 0525
ENCODING 1317
SWIDTH 680 0
DWIDTH 17 0
BBX 15 17 2 -3
BITMAP
FFF8
FFF8
FFF8
F078
F078
F078
F078
F078
F078
F078
F078
F07E
F07E
F07E
000E
000E
000E
ENDCHAR
STARTCHAR 0526
ENCODING 1318
SWIDTH 840 0
DWIDTH 21 0
BBX 18 22 2 -4
BITMAP
F00000
F00000
F00000
F00000
F00000
F00000
FFF800
FFFC00
FFFE00
F83E00
F01F00
F01F00
F00F00
F00F00
F00F00
F00FC0
F00FC0
F00FC0
0003C0
0003C0
0003C0
0003C0
ENDCHAR
STARTCHAR 0527
ENCODING 1319
SWIDTH 720 0
DWIDTH 18 0
BBX 16 22 2 -3
BITMAP
F000
F000
F000
F000
F000
F3E0
FFF0
FFF8
FFF8
F87C
F03C
F03C
F03C
F03C
F03C
F03C
F03F
F03F
F03F
000F
000F
000F
ENDCHAR
STARTCHAR 0528
ENCODING 1320
SWIDTH 800 0
DWIDTH 20 0
BBX 20 23 -2 -5
BITMAP
0F00F0
0F00F0
0F00F0
0F00F0
0F00F0
0F00F0
0F00F0
0F00F0
0FFFF0
0FFFF0
0FFFF0
0F00F0
0F00F0
0F00F0
0F00F0
0F00F0
0F00F0
0F00F0
0F0000
1F0000
7F0000
FE0000
780000
ENDCHAR
STARTCHAR 0529
ENCODING 1321
SWIDTH 680 0
DWIDTH 17 0
BBX 18 19 -2 -5
BITMAP
0F03C0
0F03C0
0F03C0
0F03C0
0F03C0
0F03C0
0FFFC0
0FFFC0
0FFFC0
0F03C0
0F03C0
0F03C0
0F03C0
0F03C0
0F0000
1F0000
FE0000
FE0000
F80000
ENDCHAR
STARTCHAR 052E
ENCODING 1326
SWIDTH 840 0
DWIDTH 21 0
BBX 20 21 0 -3
BITMAP
0FFFC0
0FFFC0
0FFFC0
0F03C0
0F03C0
0F03C0
0F03C0
0F03C0
0F03C0
0F03C0
0E03C0
0E03C0
1E03C0
1E03C0
7E03C0
7C03F0
FC03F0
F003F0
000070
000070
000070
ENDCHAR
STARTCHAR 052F
ENCODING 1327
SWIDTH 680 0
DWIDTH 17 0
BBX 17 17 0 -3
BITMAP
1FFE00
1FFE00
1FFE00
1E1E00
1E1E00
1E1E00
1C1E00
1C1E00
1C1E00
1C1E00
7C1E00
FC1F80
F81F80
F01F80
000780
000780
000780
ENDCHAR
STARTCHAR 1E08
ENCODING 7688
SWIDTH 720 0
DWIDTH 18 0
BBX 16 29 1 -6
BITMAP
003E
0078
00F0
00E0
0000
03F8
0FFE
1FFF
3FBF
7C06
7800
F800
F000
F000
F000
F000
F800
7800
7C06
3FBF
1FFF
0FFE
03F8
00C0
01E0
0070
0070
03E0
03C0
ENDCHAR
STARTCHAR 1E09
ENCODING 7689
SWIDTH 600 0
DWIDTH 15 0
BBX 13 25 1 -6
BITMAP
01F0
01C0
0380
0700
0000
0FC0
1FF0
7FF8
7CF8
F820
F000
F000
F000
F000
F820
7CF8
7FF8
3FF0
0FC0
0600
0780
0180
01C0
0F80
0F00
ENDCHAR
STARTCHAR 1E0C
ENCODING 7692
SWIDTH 840 0
DWIDTH 21 0
BBX 18 23 2 -5
BITMAP
FFF000
FFFC00
FFFE00
F07F00
F00F80
F00780
F00780
F007C0
F003C0
F003C0
F007C0
F00780
F00780
F00F80
F07F00
FFFE00
FFFC00
FFE000
000000
000000
038000
038000
038000
ENDCHAR
STARTCHAR 1E0D
ENCODING 7693
SWIDTH 680 0
DWIDTH 17 0
BBX 14 24 1 -5
BITMAP
001C
001C
001C
001C
001C
0F9C
3FDC
7FFC
7C7C
F83C
F03C
F01C
F01C
F03C
F83C
7C7C
7FFC
3FFC
0F9C
0000
0000
01C0
03C0
0180
ENDCHAR
STARTCHAR 1E0E
ENCODING 7694
SWIDTH 840 0
DWIDTH 21 0
BBX 18 22 2 -4
BITMAP
FFF000
FFFC00
FFFE00
F07F00
F00F80
F00780
F00780
F007C0
F003C0
F003C0
F007C0
F00780
F00780
F00F80
F07F00
FFFE00
FFFC00
FFE000
000000
000000
1FF000
1FF000
ENDCHAR
STARTCHAR 1E0F
ENCODING 7695
SWIDTH 680 0
DWIDTH 17 0
BBX 14 23 1 -4
BITMAP
001C
001C
001C
001C
001C
0F9C
3FDC
7FFC
7C7C
F83C
F03C
F01C
F01C
F03C
F83C
7C7C
7FFC
3FFC
0F9C
0000
0000
1FF8
1FF8
ENDCHAR
STARTCHAR 1E14
ENCODING 7700
SWIDTH 680 0
DWIDTH 17 0
BBX 14 26 2 0
BITMAP
1E00
0E00
0700
0000
3FE0
3FE0
0000
0000
FFF8
FFF8
FFF8
F000
F000
F000
F000
FFF0
FFF0
FFF0
F000
F000
F000
F000
F000
FFFC
FFFC
FFFC
ENDCHAR
STARTCHAR 1E15
ENCODING 7701
SWIDTH 640 0
DWIDTH 16 0
BBX 14 23 1 0
BITMAP
1E00
0F00
0380
0000
0000
3FF0
3FF0
0000
0000
0FC0
3FF0
7FF8
7878
F03C
F03C
FFFC
FFFC
F000
F000
7C30
7FF8
3FF0
0FC0
ENDCHAR
STARTCHAR 1E16
ENCODING 7702
SWIDTH 680 0
DWIDTH 17 0
BBX 14 26 2 0
BITMAP
01E0
0380
0700
0000
3FE0
3FE0
0000
0000
FFF8
FFF8
FFF8
F000
F000
F000
F000
FFF0
FFF0
FFF0
F000
F000
F000
F000
F000
FFFC
FFFC
FFFC
ENDCHAR
STARTCHAR 1E17
ENCODING 7703
SWIDTH 640 0
DWIDTH 16 0
BBX 14 23 1 0
BITMAP
01E0
03C0
0700
0000
0000
3FF0
3FF0
0000
0000
0FC0
3FF0
7FF8
7878
F03C
F03C
FFFC
FFFC
F000
F000
7C30
7FF8
3FF0
0FC0
ENDCHAR
STARTCHAR 1E1C
ENCODING 7708
SWIDTH 680 0
DWIDTH 17 0
BBX 14 29 2 -6
BITMAP
3860
38E0
1FC0
0F80
0000
FFF8
FFF8
FFF8
F000
F000
F000
F000
FFF0
FFF0
FFF0
F000
F000
F000
F000
F000
FFFC
FFFC
FFFC
0300
0780
01C0
01C0
0F80
0F00
ENDCHAR
STARTCHAR 1E1D
ENCODING 7709
SWIDTH 640 0
DWIDTH 16 0
BBX 14 25 1 -6
BITMAP
3860
1CE0
1FC0
0780
0000
0FC0
3FF0
7FF8
7878
F03C
F03C
FFFC
FFFC
F000
F000
7C30
7FF8
3FF0
0FC0
0300
0780
01C0
01C0
0F80
0F00
ENDCHAR
STARTCHAR 1E20
ENCODING 7712
SWIDTH 760 0
DWIDTH 19 0
BBX 17 22 1 0
BITMAP
07FC00
07FC00
000000
000000
03F800
0FFE00
1FFF00
3FFF00
7C0600
780000
F80000
F00000
F00000
F00780
F00780
F80780
780780
7C0780
3FBF80
1FFF80
0FFE00
03F800
ENDCHAR
STARTCHAR 1E21
ENCODING 7713
SWIDTH 720 0
DWIDTH 18 0
BBX 15 23 1 -5
BITMAP
1FF0
1FF0
0000
0000
0F9E
3FFE
7FFE
7C7E
F03E
F01E
F01E
F01E
F03E
F87E
7FFE
3FFE
1FDE
001E
003C
787C
7FF8
7FF0
1FC0
ENDCHAR
STARTCHAR 1E24
ENCODING 7716
SWIDTH 800 0
DWIDTH 20 0
BBX 16 23 2 -5
BITMAP
F00F
F00F
F00F
F00F
F00F
F00F
F00F
FFFF
FFFF
FFFF
F00F
F00F
F00F
F00F
F00F
F00F
F00F
F00F
0000
0000
01C0
03C0
0180
ENDCHAR
STARTCHAR 1E25
ENCODING 7717
SWIDTH 680 0
DWIDTH 17 0
BBX 14 24 2 -5
BITMAP
F000
F000
F000
F000
F000
F7E0
FFF0
FFF8
FCF8
F078
F03C
F03C
F03C
F03C
F03C
F03C
F03C
F03C
F03C
0000
0000
0700
0700
0700
ENDCHAR
STARTCHAR 1E2A
ENCODING 7722
SWIDTH 800 0
DWIDTH 20 0
BBX 16 23 2 -5
BITMAP
F00F
F00F
F00F
F00F
F00F
F00F
F00F
FFFF
FFFF
FFFF
F00F
F00F
F00F
F00F
F00F
F00F
F00F
F00F
0000
0000
0C38
0FF0
03C0
ENDCHAR
STARTCHAR 1E2B
ENCODING 7723
SWIDTH 680 0
DWIDTH 17 0
BBX 14 24 2 -5
BITMAP
F000
F000
F000
F000
F000
F7E0
FFF0
FFF8
FCF8
F078
F03C
F03C
F03C
F03C
F03C
F03C
F03C
F03C
F03C
0000
0000
3860
1FE0
0F80
ENDCHAR
STARTCHAR 1E2E
ENCODING 7726
SWIDTH 320 0
DWIDTH 8 0
BBX 8 26 0 0
BITMAP
0F
1E
38
00
E7
E7
E7
00
3C
3C
3C
3C
3C
3C
3C
3C
3C
3C
3C
3C
3C
3C
3C
3C
3C
3C
ENDCHAR
STARTCHAR 1E2F
ENCODING 7727
SWIDTH 320 0
DWIDTH 8 0
BBX 8 23 0 0
BITMAP
0F
1C
38
00
E6
E7
E7
00
00
3C
3C
3C
3C
3C
3C
3C
3C
3C
3C
3C
3C
3C
3C
ENDCHAR
STARTCHAR 1E36
ENCODING 7734
SWIDTH 600 0
DWIDTH 15 0
BBX 13 23 2 -5
BITMAP
F000
F000
F000
F000
F000
F000
F000
F000
F000
F000
F000
F000
F000
F000
F000
FFF8
FFF8
FFF8
0000
0000
0700
0700
0700
ENDCHAR
STARTCHAR 1E37
ENCODING 7735
SWIDTH 320 0
DWIDTH 8 0
BBX 4 24 2 -5
BITMAP
F0
F0
F0
F0
F0
F0
F0
F0
F0
F0
F0
F0
F0
F0
F0
F0
F0
F0
F0
00
00
E0
E0
E0
ENDCHAR
STARTCHAR 1E3A
ENCODING 7738
SWIDTH 600 0
DWIDTH 15 0
BBX 13 22 2 -4
BITMAP
F000
F000
F000
F000
F000
F000
F000
F000
F000
F000
F000
F000
F000
F000
F000
FFF8
FFF8
FFF8
0000
0000
3FE0
3FE0
ENDCHAR
STARTCHAR 1E3B
ENCODING 7739
SWIDTH 320 0
DWIDTH 8 0
BBX 9 23 -1 -4
BITMAP
1E00
1E00
1E00
1E00
1E00
1E00
1E00
1E00
1E00
1E00
1E00
1E00
1E00
1E00
1E00
1E00
1E00
1E00
1E00
0000
0000
FF80
FF80
ENDCHAR
STARTCHAR 1E42
ENCODING 7746
SWIDTH 960 0
DWIDTH 24 0
BBX 20 23 2 -5
BITMAP
F000F0
F000F0
F801F0
F803F0
FC03F0
FE07F0
FE07F0
FF0FF0
FF0EF0
F79EF0
F3FCF0
F3F8F0
F1F8F0
F1F0F0
F0F0F0
F060F0
F000F0
F000F0
000000
000000
00E000
00F000
006000
ENDCHAR
STARTCHAR 1E43
ENCODING 7747
SWIDTH 1040 0
DWIDTH 26 0
BBX 23 19 2 -5
BITMAP
F7C1F0
FFF7F8
FFFFFC
FDFE7C
F07C3C
F0781E
F0781E
F0781E
F0781E
F0781E
F0781E
F0781E
F0781E
F0781E
000000
000000
003800
007800
003000
ENDCHAR
STARTCHAR 1E44
ENCODING 7748
SWIDTH 800 0
DWIDTH 20 0
BBX 16 24 2 0
BITMAP
0180
03C0
03C0
03C0
0000
0000
F00F
F80F
F80F
FC0F
FE0F
FF0F
FF8F
FF8F
F7CF
F3EF
F1FF
F0FF
F0FF
F07F
F03F
F01F
F00F
F00F
ENDCHAR
STARTCHAR 1E45
ENCODING 7749
SWIDTH 680 0
DWIDTH 17 0
BBX 14 20 2 0
BITMAP
0700
0780
0780
0700
0000
0000
F7E0
FFF0
FFF8
FCF8
F078
F03C
F03C
F03C
F03C
F03C
F03C
F03C
F03C
F03C
ENDCHAR
STARTCHAR 1E46
ENCODING 7750
SWIDTH 800 0
DWIDTH 20 0
BBX 16 23 2 -5
BITMAP
F00F
F80F
F80F
FC0F
FE0F
FF0F
FF8F
FF8F
F7CF
F3EF
F1FF
F0FF
F0FF
F07F
F03F
F01F
F00F
F00F
0000
0000
01C0
03C0
0180
ENDCHAR
STARTCHAR 1E47
ENCODING 7751
SWIDTH 680 0
DWIDTH 17 0
BBX 14 19 2 -5
BITMAP
F7E0
FFF0
FFF8
FCF8
F078
F03C
F03C
F03C
F03C
F03C
F03C
F03C
F03C
F03C
0000
0000
0700
0700
0700
ENDCHAR
STARTCHAR 1E48
ENCODING 7752
SWIDTH 800 0
DWIDTH 20 0
BBX 16 22 2 -4
BITMAP
F00F
F80F
F80F
FC0F
FE0F
FF0F
FF8F
FF8F
F7CF
F3EF
F1FF
F0FF
F0FF
F07F
F03F
F01F
F00F
F00F
0000
0000
1FF8
1FF8
ENDCHAR
STARTCHAR 1E49
ENCODING 7753
SWIDTH 680 0
DWIDTH 17 0
BBX 14 18 2 -4
BITMAP
F7E0
FFF0
FFF8
FCF8
F078
F03C
F03C
F03C
F03C
F03C
F03C
F03C
F03C
F03C
0000
0000
3FE0
3FE0
ENDCHAR
STARTCHAR 1E4C
ENCODING 7756
SWIDTH 840 0
DWIDTH 21 0
BBX 19 26 1 0
BITMAP
003C00
007000
00E000
000000
03CC00
07FC00
063800
000000
03F800
0FFE00
1FFF00
3FBF80
7C07C0
7803C0
F803E0
F001E0
F001E0
F001E0
F001E0
F801E0
7803C0
7C07C0
3FBF80
1FFF00
0FFE00
03F800
ENDCHAR
STARTCHAR 1E4D
ENCODING 7757
SWIDTH 640 0
DWIDTH 16 0
BBX 15 23 1 0
BITMAP
01E0
03C0
0780
0000
0E30
1F30
1BE0
01E0
0000
0FC0
1FF0
7FF8
7C7C
F03C
F03C
F01E
F01E
F03C
F83C
7C7C
7FF8
3FF0
0FC0
ENDCHAR
STARTCHAR 1E4E
ENCODING 7758
SWIDTH 840 0
DWIDTH 21 0
BBX 19 26 1 0
BITMAP
039800
07BC00
031800
000000
03CC00
07FC00
063800
000000
03F800
0FFE00
1FFF00
3FBF80
7C07C0
7803C0
F803E0
F001E0
F001E0
F001E0
F001E0
F801E0
7803C0
7C07C0
3FBF80
1FFF00
0FFE00
03F800
ENDCHAR
STARTCHAR 1E4F
ENCODING 7759
SWIDTH 640 0
DWIDTH 16 0
BBX 15 23 1 0
BITMAP
0CE0
1CE0
1CE0
0000
0E00
1F30
1BE0
01E0
0000
0FC0
1FF0
7FF8
7C7C
F03C
F03C
F01E
F01E
F03C
F83C
7C7C
7FF8
3FF0
0FC0
ENDCHAR
STARTCHAR 1E50
ENCODING 7760
SWIDTH 840 0
DWIDTH 21 0
BBX 19 26 1 0
BITMAP
038000
01C000
00E000
000000
07FC00
07FC00
000000
000000
03F800
0FFE00
1FFF00
3FBF80
7C07C0
7803C0
F803E0
F001E0
F001E0
F001E0
F001E0
F801E0
7803C0
7C07C0
3FBF80
1FFF00
0FFE00
03F800
ENDCHAR
STARTCHAR 1E51
ENCODING 7761
SWIDTH 640 0
DWIDTH 16 0
BBX 15 23 1 0
BITMAP
1E00
0F00
0380
0000
0000
1FF0
1FF0
0000
0000
0FC0
1FF0
7FF8
7C7C
F03C
F03C
F01E
F01E
F03C
F83C
7C7C
7FF8
3FF0
0FC0
ENDCHAR
STARTCHAR 1E52
ENCODING 7762
SWIDTH 840 0
DWIDTH 21 0
BBX 19 26 1 0
BITMAP
003C00
007000
00E000
000000
07FC00
07FC00
000000
000000
03F800
0FFE00
1FFF00
3FBF80
7C07C0
7803C0
F803E0
F001E0
F001E0
F001E0
F001E0
F801E0
7803C0
7C07C0
3FBF80
1FFF00
0FFE00
03F800
ENDCHAR
STARTCHAR 1E53
ENCODING 7763
SWIDTH 640 0
DWIDTH 16 0
BBX 15 23 1 0
BITMAP
01E0
03C0
0780
0000
0000
1FF0
1FF0
0000
0000
0FC0
1FF0
7FF8
7C7C
F03C
F03C
F01E
F01E
F03C
F83C
7C7C
7FF8
3FF0
0FC0
ENDCHAR
STARTCHAR 1E5A
ENCODING 7770
SWIDTH 720 0
DWIDTH 18 0
BBX 15 23 2 -5
BITMAP
FFE0
FFF8
FFFC
F07E
F03E
F01E
F01E
F01E
F01E
F07E
FFFC
FFF8
FFF0
F0F0
F078
F03C
F03E
F01E
0000
0000
0380
0380
0380
ENDCHAR
STARTCHAR 1E5B
ENCODING 7771
SWIDTH 440 0
DWIDTH 11 0
BBX 8 19 2 -5
BITMAP
F7
FF
FF
FF
F8
F0
F0
F0
F0
F0
F0
F0
F0
F0
00
00
E0
E0
E0
ENDCHAR
STARTCHAR 1E5E
ENCODING 7774
SWIDTH 720 0
DWIDTH 18 0
BBX 15 22 2 -4
BITMAP
FFE0
FFF8
FFFC
F07E
F03E
F01E
F01E
F01E
F01E
F07E
FFFC
FFF8
FFF0
F0F0
F078
F03C
F03E
F01E
0000
0000
1FF0
1FF0
ENDCHAR
STARTCHAR 1E5F
ENCODING 7775
SWIDTH 440 0
DWIDTH 11 0
BBX 11 18 -1 -4
BITMAP
1EE0
1FE0
1FE0
1FE0
1F00
1E00
1E00
1E00
1E00
1E00
1E00
1E00
1E00
1E00
0000
0000
FF80
FF80
ENDCHAR
STARTCHAR 1E60
ENCODING 7776
SWIDTH 640 0
DWIDTH 16 0
BBX 14 23 1 0
BITMAP
0380
0780
0780
0300
0000
0FE0
3FF8
7FF8
FC78
F000
F000
F800
FE00
7FE0
3FF8
0FFC
00FC
003C
403C
F8FC
FFF8
FFF0
1FC0
ENDCHAR
STARTCHAR 1E61
ENCODING 7777
SWIDTH 520 0
DWIDTH 13 0
BBX 12 20 1 0
BITMAP
0E00
0F00
1F00
0E00
0000
0000
1FC0
7FE0
FFE0
F040
F000
F800
FF80
7FE0
0FE0
00F0
C0F0
FFE0
FFC0
3F80
ENDCHAR
STARTCHAR 1E62
ENCODING 7778
SWIDTH 640 0
DWIDTH 16 0
BBX 14 23 1 -5
BITMAP
0FE0
3FF8
7FF8
FC78
F000
F000
F800
FE00
7FE0
3FF8
0FFC
00FC
003C
403C
F8FC
FFF8
FFF0
1FC0
0000
0000
0380
0780
0300
ENDCHAR
STARTCHAR 1E63
ENCODING 7779
SWIDTH 520 0
DWIDTH 13 0
BBX 12 19 1 -5
BITMAP
1FC0
7FE0
FFE0
F040
F000
F800
FF80
7FE0
0FE0
00F0
C0F0
FFE0
FFC0
3F80
0000
0000
0E00
0E00
0E00
ENDCHAR
STARTCHAR 1E64
ENCODING 7780
SWIDTH 640 0
DWIDTH 16 0
BBX 14 26 1 0
BITMAP
0380
0780
0300
0000
01E0
03C0
0700
0000
0FE0
3FF8
7FF8
FC78
F000
F000
F800
FE00
7FE0
3FF8
0FFC
00FC
003C
403C
F8FC
FFF8
FFF0
1FC0
ENDCHAR
STARTCHAR 1E65
ENCODING 7781
SWIDTH 520 0
DWIDTH 13 0
BBX 12 23 1 0
BITMAP
0E00
0E00
0E00
0000
0380
0700
0E00
0000
0000
1FC0
7FE0
FFE0
F040
F000
F800
FF80
7FE0
0FE0
00F0
C0F0
FFE0
FFC0
3F80
ENDCHAR
STARTCHAR 1E66
ENCODING 7782
SWIDTH 640 0
DWIDTH 16 0
BBX 14 26 1 0
BITMAP
0300
0780
0380
0000
1C70
0FC0
0780
0000
0FE0
3FF8
7FF8
FC78
F000
F000
F800
FE00
7FE0
3FF8
0FFC
00FC
003C
403C
F8FC
FFF8
FFF0
1FC0
ENDCHAR
STARTCHAR 1E67
ENCODING 7783
SWIDTH 520 0
DWIDTH 13 0
BBX 12 22 1 0
BITMAP
0E00
0E00
0E00
0000
71C0
3F80
1F00
0000
1FC0
7FE0
FFE0
F040
F000
F800
FF80
7FE0
0FE0
00F0
C0F0
FFE0
FFC0
3F80
ENDCHAR
STARTCHAR 1E68
ENCODING 7784
SWIDTH 640 0
DWIDTH 16 0
BBX 14 28 1 -5
BITMAP
0380
0780
0780
0300
0000
0FE0
3FF8
7FF8
FC78
F000
F000
F800
FE00
7FE0
3FF8
0FFC
00FC
003C
403C
F8FC
FFF8
FFF0
1FC0
0000
0000
0380
0780
0300
ENDCHAR
STARTCHAR 1E69
ENCODING 7785
SWIDTH 520 0
DWIDTH 13 0
BBX 12 25 1 -5
BITMAP
0E00
0F00
1F00
0E00
0000
0000
1FC0
7FE0
FFE0
F040
F000
F800
FF80
7FE0
0FE0
00F0
C0F0
FFE0
FFC0
3F80
0000
0000
0E00
0E00
0E00
ENDCHAR
STARTCHAR 1E6C
ENCODING 7788
SWIDTH 600 0
DWIDTH 15 0
BBX 15 23 0 -5
BITMAP
FFFE
FFFE
FFFE
03C0
03C0
03C0
03C0
03C0
03C0
03C0
03C0
03C0
03C0
03C0
03C0
03C0
03C0
03C0
0000
0000
0380
0380
0380
ENDCHAR
STARTCHAR 1E6D
ENCODING 7789
SWIDTH 440 0
DWIDTH 11 0
BBX 10 21 0 -5
BITMAP
3C00
3C00
3C00
FFC0
FFC0
FFC0
3C00
3C00
3C00
3C00
3C00
3C00
3E00
1FC0
1FC0
07C0
0000
0000
0700
0700
0700
ENDCHAR
STARTCHAR 1E6E
ENCODING 7790
SWIDTH 600 0
DWIDTH 15 0
BBX 15 22 0 -4
BITMAP
FFFE
FFFE
FFFE
03C0
03C0
03C0
03C0
03C0
03C0
03C0
03C0
03C0
03C0
03C0
03C0
03C0
03C0
03C0
0000
0000
1FF0
1FF0
ENDCHAR
STARTCHAR 1E6F
ENCODING 7791
SWIDTH 440 0
DWIDTH 11 0
BBX 11 20 0 -4
BITMAP
3C00
3C00
3C00
FFC0
FFC0
FFC0
3C00
3C00
3C00
3C00
3C00
3C00
3E00
1FC0
1FC0
07C0
0000
0000
3FE0
3FE0
ENDCHAR
STARTCHAR 1E78
ENCODING 7800
SWIDTH 800 0
DWIDTH 20 0
BBX 16 26 2 0
BITMAP
00F0
01E0
0380
0000
0F38
0FF0
18E0
0000
F00F
F00F
F00F
F00F
F00F
F00F
F00F
F00F
F00F
F00F
F00F
F00F
F01F
F81E
7FFE
3FFC
1FF8
07E0
ENDCHAR
STARTCHAR 1E79
ENCODING 7801
SWIDTH 680 0
DWIDTH 17 0
BBX 13 23 2 0
BITMAP
01C0
0380
0700
0000
1C60
3FE0
31C0
0000
0000
F078
F078
F078
F078
F078
F078
F078
F078
F078
F078
FDF8
7FF8
7FB8
1F38
ENDCHAR
STARTCHAR 1E7A
ENCODING 7802
SWIDTH 800 0
DWIDTH 20 0
BBX 16 27 2 0
BITMAP
0E70
0E70
0E70
0000
0000
1FF0
1FF0
0000
0000
F00F
F00F
F00F
F00F
F00F
F00F
F00F
F00F
F00F
F00F
F00F
F00F
F01F
F81E
7FFE
3FFC
1FF8
07E0
ENDCHAR
STARTCHAR 1E7B
ENCODING 7803
SWIDTH 680 0
DWIDTH 17 0
BBX 13 23 2 0
BITMAP
18C0
3DE0
1CC0
0000
0000
3FE0
3FE0
0000
0000
F078
F078
F078
F078
F078
F078
F078
F078
F078
F078
FDF8
7FF8
7FB8
1F38
ENDCHAR
STARTCHAR 1E80
ENCODING 7808
SWIDTH 1160 0
DWIDTH 29 0
BBX 27 23 1 0
BITMAP
00780000
003C0000
001E0000
00070000
00000000
F00F01E0
F01F01E0
F81F01E0
781F81C0
783F83C0
783F83C0
3C3BC380
3C7BC780
3C7BC780
1E71E700
1EF1EF00
1EF1EF00
0FE0EF00
0FE0FE00
0FE0FE00
0FC07E00
07C07C00
07C07C00
ENDCHAR
STARTCHAR 1E81
ENCODING 7809
SWIDTH 920 0
DWIDTH 23 0
BBX 23 19 0 0
BITMAP
01E000
00F000
007800
001C00
000000
F03C0E
703C1E
787C1E
787E1C
387E3C
3CFE38
3CEF38
1CEF78
1DE770
1FC7F0
0FC3F0
0FC3E0
0F83E0
0781E0
ENDCHAR
STARTCHAR 1E82
ENCODING 7810
SWIDTH 1160 0
DWIDTH 29 0
BBX 27 23 1 0
BITMAP
0003C000
00078000
000F0000
001C0000
00000000
F00F01E0
F01F01E0
F81F01E0
781F81C0
783F83C0
783F83C0
3C3BC380
3C7BC780
3C7BC780
1E71E700
1EF1EF00
1EF1EF00
0FE0EF00
0FE0FE00
0FE0FE00
0FC07E00
07C07C00
07C07C00
ENDCHAR
STARTCHAR 1E83
ENCODING 7811
SWIDTH 920 0
DWIDTH 23 0
BBX 23 19 0 0
BITMAP
000F00
001E00
003C00
007800
000000
F03C0E
703C1E
787C1E
787E1C
387E3C
3CFE38
3CEF38
1CEF78
1DE770
1FC7F0
0FC3F0
0FC3E0
0F83E0
0781E0
ENDCHAR
STARTCHAR 1E84
ENCODING 7812
SWIDTH 1160 0
DWIDTH 29 0
BBX 27 23 1 0
BITMAP
00318000
007BC000
007BC000
00000000
00000000
F00F01E0
F01F01E0
F81F01E0
781F81C0
783F83C0
783F83C0
3C3BC380
3C7BC780
3C7BC780
1E71E700
1EF1EF00
1EF1EF00
0FE0EF00
0FE0FE00
0FE0FE00
0FC07E00
07C07C00
07C07C00
ENDCHAR
STARTCHAR 1E85
ENCODING 7813
SWIDTH 920 0
DWIDTH 23 0
BBX 23 19 0 0
BITMAP
00C600
01E700
00E700
000000
000000
F03C0E
703C1E
787C1E
787E1C
387E3C
3CFE38
3CEF38
1CEF78
1DE770
1FC7F0
0FC3F0
0FC3E0
0F83E0
0781E0
ENDCHAR
STARTCHAR 1E8E
ENCODING 7822
SWIDTH 680 0
DWIDTH 17 0
BBX 17 24 0 0
BITMAP
01C000
03C000
03E000
01C000
000000
000000
F00780
780F00
780F00
3C1E00
3E1E00
1E3C00
1F7800
0F7800
07F000
07F000
03E000
03E000
03C000
03C000
03C000
03C000
03C000
03C000
ENDCHAR
STARTCHAR 1E8F
ENCODING 7823
SWIDTH 600 0
DWIDTH 15 0
BBX 15 25 0 -5
BITMAP
0380
0780
0780
0380
0000
0000
F01E
F01E
783C
783C
3C38
3C78
3C70
1EF0
1EF0
0FE0
0FE0
07C0
07C0
07C0
0780
4780
FF00
FE00
7C00
ENDCHAR
STARTCHAR 1E92
ENCODING 7826
SWIDTH 680 0
DWIDTH 17 0
BBX 15 23 1 -5
BITMAP
FFFE
FFFE
FFFE
007C
0078
00F8
01F0
03E0
07C0
0780
0F80
1F00
3E00
7C00
7800
FFFE
FFFE
FFFE
0000
0000
0380
0380
0380
ENDCHAR
STARTCHAR 1E93
ENCODING 7827
SWIDTH 560 0
DWIDTH 14 0
BBX 12 19 1 -5
BITMAP
FFF0
FFF0
FFF0
03E0
03C0
0780
0F00
1F00
3E00
3C00
7800
FFF0
FFF0
FFF0
0000
0000
0F00
0F00
0600
ENDCHAR
STARTCHAR 1E97
ENCODING 7831
SWIDTH 440 0
DWIDTH 11 0
BBX 10 22 0 0
BITMAP
E300
E700
E700
0000
0000
0000
3C00
3C00
3C00
FFC0
FFC0
FFC0
3C00
3C00
3C00
3C00
3C00
3C00
3E00
1FC0
1FC0
07C0
ENDCHAR
STARTCHAR 1E9E
ENCODING 7838
SWIDTH 760 0
DWIDTH 19 0
BBX 16 18 2 0
BITMAP
07F0
1FFC
3FFE
7E3E
783C
F83C
F078
F0F8
F1FE
F1FF
F01F
F00F
F00F
F00F
F11F
F1FF
F3FE
F1F8
ENDCHAR
STARTCHAR 1EA0
ENCODING 7840
SWIDTH 760 0
DWIDTH 19 0
BBX 19 23 0 -5
BITMAP
01F000
01F000
03F800
03F800
03BC00
07BC00
07BC00
0F1E00
0F1E00
1E0F00
1E0F00
1FFF80
3FFF80
3FFF80
7803C0
7803C0
F801E0
F001E0
000000
000000
00E000
00E000
00E000
ENDCHAR
STARTCHAR 1EA1
ENCODING 7841
SWIDTH 600 0
DWIDTH 15 0
BBX 13 19 1 -5
BITMAP
1F80
7FE0
7FF0
60F0
0078
0078
3FF8
7FF8
F078
F078
F0F8
FFF8
7FF8
3E78
0000
0000
0700
0700
0700
ENDCHAR
STARTCHAR 1EA2
ENCODING 7842
SWIDTH 760 0
DWIDTH 19 0
BBX 19 25 0 0
BITMAP
00E000
01F000
003800
003800
007000
002000
000000
01F000
01F000
03F800
03F800
03BC00
07BC00
07BC00
0F1E00
0F1E00
1E0F00
1E0F00
1FFF80
3FFF80
3FFF80
7803C0
7803C0
F801E0
F001E0
ENDCHAR
STARTCHAR 1EA3
ENCODING 7843
SWIDTH 600 0
DWIDTH 15 0
BBX 13 21 1 0
BITMAP
0780
0F80
01C0
01C0
0380
0100
0000
1F80
7FE0
7FF0
60F0
0078
0078
3FF8
7FF8
F078
F078
F0F8
FFF8
7FF8
3E78
ENDCHAR
STARTCHAR 1EA4
ENCODING 7844
SWIDTH 760 0
DWIDTH 19 0
BBX 19 25 0 0
BITMAP
0001E0
000380
000700
01F000
03B800
071C00
000000
01F000
01F000
03F800
03F800
03BC00
07BC00
07BC00
0F1E00
0F1E00
1E0F00
1E0F00
1FFF80
3FFF80
3FFF80
7803C0
7803C0
F801E0
F001E0
ENDCHAR
STARTCHAR 1EA5
ENCODING 7845
SWIDTH 600 0
DWIDTH 15 0
BBX 16 21 1 0
BITMAP
000F
001C
0038
0F80
1FC0
38E0
0000
1F80
7FE0
7FF0
60F0
0078
0078
3FF8
7FF8
F078
F078
F0F8
FFF8
7FF8
3E78
ENDCHAR
STARTCHAR 1EA6
ENCODING 7846
SWIDTH 760 0
DWIDTH 19 0
BBX 19 25 0 0
BITMAP
001E00
000E00
000700
01F000
03B800
071C00
000000
01F000
01F000
03F800
03F800
03BC00
07BC00
07BC00
0F1E00
0F1E00
1E0F00
1E0F00
1FFF80
3FFF80
3FFF80
7803C0
7803C0
F801E0
F001E0
ENDCHAR
STARTCHAR 1EA7
ENCODING 7847
SWIDTH 600 0
DWIDTH 15 0
BBX 13 21 1 0
BITMAP
00F0
0078
0038
0F80
1FC0
38E0
0000
1F80
7FE0
7FF0
60F0
0078
0078
3FF8
7FF8
F078
F078
F0F8
FFF8
7FF8
3E78
ENDCHAR
STARTCHAR 1EA8
ENCODING 7848
SWIDTH 760 0
DWIDTH 19 0
BBX 19 25 0 0
BITMAP
000F00
000300
000300
01F200
03B800
071C00
000000
01F000
01F000
03F800
03F800
03BC00
07BC00
07BC00
0F1E00
0F1E00
1E0F00
1E0F00
1FFF80
3FFF80
3FFF80
7803C0
7803C0
F801E0
F001E0
ENDCHAR
STARTCHAR 1EA9
ENCODING 7849
SWIDTH 600 0
DWIDTH 15 0
BBX 13 21 1 0
BITMAP
0078
0018
0018
0F90
1FC0
38E0
0000
1F80
7FE0
7FF0
60F0
0078
0078
3FF8
7FF8
F078
F078
F0F8
FFF8
7FF8
3E78
ENDCHAR
STARTCHAR 1EAA
ENCODING 7850
SWIDTH 760 0
DWIDTH 19 0
BBX 19 26 0 0
BITMAP
03CC00
07FC00
063800
000000
01F000
03B800
071C00
000000
01F000
01F000
03F800
03F800
03BC00
07BC00
07BC00
0F1E00
0F1E00
1E0F00
1E0F00
1FFF80
3FFF80
3FFF80
7803C0
7803C0
F801E0
F001E0
ENDCHAR
STARTCHAR 1EAB
ENCODING 7851
SWIDTH 600 0
DWIDTH 15 0
BBX 13 23 1 0
BITMAP
1E00
3F60
33E0
31C0
0000
0F80
1FC0
38E0
0000
1F80
7FE0
7FF0
60F0
0078
0078
3FF8
7FF8
F078
F078
F0F8
FFF8
7FF8
3E78
ENDCHAR
STARTCHAR 1EAC
ENCODING 7852
SWIDTH 760 0
DWIDTH 19 0
BBX 19 28 0 -5
BITMAP
01F000
03F800
03BC00
070E00
000000
01F000
01F000
03F800
03F800
03BC00
07BC00
07BC00
0F1E00
0F1E00
1E0F00
1E0F00
1FFF80
3FFF80
3FFF80
7803C0
7803C0
F801E0
F001E0
000000
000000
00E000
00E000
00E000
ENDCHAR
STARTCHAR 1EAD
ENCODING 7853
SWIDTH 600 0
DWIDTH 15 0
BBX 13 24 1 -5
BITMAP
0F80
0FC0
1CE0
3870
0000
1F80
7FE0
7FF0
60F0
0078
0078
3FF8
7FF8
F078
F078
F0F8
FFF8
7FF8
3E78
0000
0000
0700
0700
0700
ENDCHAR
STARTCHAR 1EAE
ENCODING 7854
SWIDTH 760 0
DWIDTH 19 0
BBX 19 26 0 0
BITMAP
003C00
007000
00E000
000000
071C00
03F800
01F000
000000
01F000
01F000
03F800
03F800
03BC00
07BC00
07BC00
0F1E00
0F1E00
1E0F00
1E0F00
1FFF80
3FFF80
3FFF80
7803C0
7803C0
F801E0
F001E0
ENDCHAR
STARTCHAR 1EAF
ENCODING 7855
SWIDTH 600 0
DWIDTH 15 0
BBX 13 22 1 0
BITMAP
01E0
0380
0700
0000
38E0
1FC0
0F80
0000
1F80
7FE0
7FF0
60F0
0078
0078
3FF8
7FF8
F078
F078
F0F8
FFF8
7FF8
3E78
ENDCHAR
STARTCHAR 1EB0
ENCODING 7856
SWIDTH 760 0
DWIDTH 19 0
BBX 19 26 0 0
BITMAP
038000
01C000
00E000
000000
071C00
03F800
01F000
000000
01F000
01F000
03F800
03F800
03BC00
07BC00
07BC00
0F1E00
0F1E00
1E0F00
1E0F00
1FFF80
3FFF80
3FFF80
7803C0
7803C0
F801E0
F001E0
ENDCHAR
STARTCHAR 1EB1
ENCODING 7857
SWIDTH 600 0
DWIDTH 15 0
BBX 13 22 1 0
BITMAP
1E00
0E00
0700
0000
38E0
1FC0
0F80
0000
1F80
7FE0
7FF0
60F0
0078
0078
3FF8
7FF8
F078
F078
F0F8
FFF8
7FF8
3E78
ENDCHAR
STARTCHAR 1EB2
ENCODING 7858
SWIDTH 760 0
DWIDTH 19 0
BBX 19 26 0 0
BITMAP
00F000
003000
003000
002000
071C00
03F800
01F000
000000
01F000
01F000
03F800
03F800
03BC00
07BC00
07BC00
0F1E00
0F1E00
1E0F00
1E0F00
1FFF80
3FFF80
3FFF80
7803C0
7803C0
F801E0
F001E0
ENDCHAR
STARTCHAR 1EB3
ENCODING 7859
SWIDTH 600 0
DWIDTH 15 0
BBX 13 22 1 0
BITMAP
0780
0180
0180
0100
38E0
1FC0
0F80
0000
1F80
7FE0
7FF0
60F0
0078
0078
3FF8
7FF8
F078
F078
F0F8
FFF8
7FF8
3E78
ENDCHAR
STARTCHAR 1EB4
ENCODING 7860
SWIDTH 760 0
DWIDTH 19 0
BBX 19 26 0 0
BITMAP
03CC00
07FC00
063800
000000
071C00
03F800
01F000
000000
01F000
01F000
03F800
03F800
03BC00
07BC00
07BC00
0F1E00
0F1E00
1E0F00
1E0F00
1FFF80
3FFF80
3FFF80
7803C0
7803C0
F801E0
F001E0
ENDCHAR
STARTCHAR 1EB5
ENCODING 7861
SWIDTH 600 0
DWIDTH 15 0
BBX 13 22 1 0
BITMAP
1E60
3FE0
31C0
0000
38E0
1FC0
0F80
0000
1F80
7FE0
7FF0
60F0
0078
0078
3FF8
7FF8
F078
F078
F0F8
FFF8
7FF8
3E78
ENDCHAR
STARTCHAR 1EB6
ENCODING 7862
SWIDTH 760 0
DWIDTH 19 0
BBX 19 28 0 -5
BITMAP
070C00
071C00
03F800
01F000
000000
01F000
01F000
03F800
03F800
03BC00
07BC00
07BC00
0F1E00
0F1E00
1E0F00
1E0F00
1FFF80
3FFF80
3FFF80
7803C0
7803C0
F801E0
F001E0
000000
000000
00E000
00E000
00E000
ENDCHAR
STARTCHAR 1EB7
ENCODING 7863
SWIDTH 600 0
DWIDTH 15 0
BBX 13 24 1 -5
BITMAP
3860
38E0
1FC0
0700
0000
1F80
7FE0
7FF0
60F0
0078
0078
3FF8
7FF8
F078
F078
F0F8
FFF8
7FF8
3E78
0000
0000
0700
0700
0700
ENDCHAR
STARTCHAR 1EB8
ENCODING 7864
SWIDTH 680 0
DWIDTH 17 0
BBX 14 23 2 -5
BITMAP
FFF8
FFF8
FFF8
F000
F000
F000
F000
FFF0
FFF0
FFF0
F000
F000
F000
F000
F000
FFFC
FFFC
FFFC
0000
0000
0700
0780
0300
ENDCHAR
STARTCHAR 1EB9
ENCODING 7865
SWIDTH 640 0
DWIDTH 16 0
BBX 14 19 1 -5
BITMAP
0FC0
3FF0
7FF8
7878
F03C
F03C
FFFC
FFFC
F000
F000
7C30
7FF8
3FF0
0FC0
0000
0000
0700
0780
0300
ENDCHAR
STARTCHAR 1EBA
ENCODING 7866
SWIDTH 680 0
DWIDTH 17 0
BBX 14 25 2 0
BITMAP
0780
0FC0
01C0
01C0
0380
0100
0000
FFF8
FFF8
FFF8
F000
F000
F000
F000
FFF0
FFF0
FFF0
F000
F000
F000
F000
F000
FFFC
FFFC
FFFC
ENDCHAR
STARTCHAR 1EBB
ENCODING 7867
SWIDTH 640 0
DWIDTH 16 0
BBX 14 21 1 0
BITMAP
0780
07C0
00C0
00C0
0380
0100
0000
0FC0
3FF0
7FF8
7878
F03C
F03C
FFFC
FFFC
F000
F000
7C30
7FF8
3FF0
0FC0
ENDCHAR
STARTCHAR 1EBC
ENCODING 7868
SWIDTH 680 0
DWIDTH 17 0
BBX 14 23 2 0
BITMAP
1E20
3F60
33E0
01C0
0000
FFF8
FFF8
FFF8
F000
F000
F000
F000
FFF0
FFF0
FFF0
F000
F000
F000
F000
F000
FFFC
FFFC
FFFC
ENDCHAR
STARTCHAR 1EBD
ENCODING 7869
SWIDTH 640 0
DWIDTH 16 0
BBX 14 19 1 0
BITMAP
1E30
1FE0
3BE0
3080
0000
0FC0
3FF0
7FF8
7878
F03C
F03C
FFFC
FFFC
F000
F000
7C30
7FF8
3FF0
0FC0
ENDCHAR
STARTCHAR 1EBE
ENCODING 7870
SWIDTH 680 0
DWIDTH 17 0
BBX 16 25 2 0
BITMAP
000F
001C
0038
0F80
1FC0
38E0
0000
FFF8
FFF8
FFF8
F000
F000
F000
F000
FFF0
FFF0
FFF0
F000
F000
F000
F000
F000
FFFC
FFFC
FFFC
ENDCHAR
STARTCHAR 1EBF
ENCODING 7871
SWIDTH 640 0
DWIDTH 16 0
BBX 16 21 1 0
BITMAP
000F
001E
0038
0780
1FC0
38E0
0000
0FC0
3FF0
7FF8
7878
F03C
F03C
FFFC
FFFC
F000
F000
7C30
7FF8
3FF0
0FC0
ENDCHAR
STARTCHAR 1EC0
ENCODING 7872
SWIDTH 680 0
DWIDTH 17 0
BBX 14 25 2 0
BITMAP
00F0
0078
003C
0F80
1FC0
38E0
0000
FFF8
FFF8
FFF8
F000
F000
F000
F000
FFF0
FFF0
FFF0
F000
F000
F000
F000
F000
FFFC
FFFC
FFFC
ENDCHAR
STARTCHAR 1EC1
ENCODING 7873
SWIDTH 640 0
DWIDTH 16 0
BBX 14 21 1 0
BITMAP
00F0
0078
001C
0780
1FC0
38E0
0000
0FC0
3FF0
7FF8
7878
F03C
F03C
FFFC
FFFC
F000
F000
7C30
7FF8
3FF0
0FC0
ENDCHAR
STARTCHAR 1EC2
ENCODING 7874
SWIDTH 680 0
DWIDTH 17 0
BBX 14 25 2 0
BITMAP
0078
0018
0018
0F90
1FC0
38E0
0000
FFF8
FFF8
FFF8
F000
F000
F000
F000
FFF0
FFF0
FFF0
F000
F000
F000
F000
F000
FFFC
FFFC
FFFC
ENDCHAR
STARTCHAR 1EC3
ENCODING 7875
SWIDTH 640 0
DWIDTH 16 0
BBX 14 21 1 0
BITMAP
0078
0018
0018
0790
1FC0
38E0
0000
0FC0
3FF0
7FF8
7878
F03C
F03C
FFFC
FFFC
F000
F000
7C30
7FF8
3FF0
0FC0
ENDCHAR
STARTCHAR 1EC4
ENCODING 7876
SWIDTH 680 0
DWIDTH 17 0
BBX 14 26 2 0
BITMAP
1E60
3FE0
31C0
0000
0F80
1FC0
38E0
0000
FFF8
FFF8
FFF8
F000
F000
F000
F000
FFF0
FFF0
FFF0
F000
F000
F000
F000
F000
FFFC
FFFC
FFFC
ENDCHAR
STARTCHAR 1EC5
ENCODING 7877
SWIDTH 640 0
DWIDTH 16 0
BBX 14 23 1 0
BITMAP
1E00
1F70
33E0
31C0
0000
0780
1FC0
38E0
0000
0FC0
3FF0
7FF8
7878
F03C
F03C
FFFC
FFFC
F000
F000
7C30
7FF8
3FF0
0FC0
ENDCHAR
STARTCHAR 1EC6
ENCODING 7878
SWIDTH 680 0
DWIDTH 17 0
BBX 14 28 2 -5
BITMAP
0780
0FC0
1CE0
3870
0000
FFF8
FFF8
FFF8
F000
F000
F000
F000
FFF0
FFF0
FFF0
F000
F000
F000
F000
F000
FFFC
FFFC
FFFC
0000
0000
0700
0780
0300
ENDCHAR
STARTCHAR 1EC7
ENCODING 7879
SWIDTH 640 0
DWIDTH 16 0
BBX 14 24 1 -5
BITMAP
0780
0FC0
1CE0
3870
0000
0FC0
3FF0
7FF8
7878
F03C
F03C
FFFC
FFFC
F000
F000
7C30
7FF8
3FF0
0FC0
0000
0000
0700
0780
0300
ENDCHAR
STARTCHAR 1EC8
ENCODING 7880
SWIDTH 320 0
DWIDTH 8 0
BBX 5 25 2 0
BITMAP
F0
F8
18
18
38
00
00
F0
F0
F0
F0
F0
F0
F0
F0
F0
F0
F0
F0
F0
F0
F0
F0
F0
F0
ENDCHAR
STARTCHAR 1EC9
ENCODING 7881
SWIDTH 320 0
DWIDTH 8 0
BBX 6 21 1 0
BITMAP
78
FC
1C
1C
38
10
00
78
78
78
78
78
78
78
78
78
78
78
78
78
78
ENDCHAR
STARTCHAR 1ECA
ENCODING 7882
SWIDTH 320 0
DWIDTH 8 0
BBX 4 23 2 -5
BITMAP
F0
F0
F0
F0
F0
F0
F0
F0
F0
F0
F0
F0
F0
F0
F0
F0
F0
F0
00
00
70
F0
60
ENDCHAR
STARTCHAR 1ECB
ENCODING 7883
SWIDTH 320 0
DWIDTH 8 0
BBX 5 25 1 -5
BITMAP
78
F8
F8
70
00
00
78
78
78
78
78
78
78
78
78
78
78
78
78
78
00
00
70
70
70
ENDCHAR
STARTCHAR 1ECC
ENCODING 7884
SWIDTH 840 0
DWIDTH 21 0
BBX 19 23 1 -5
BITMAP
03F800
0FFE00
1FFF00
3FBF80
7C07C0
7803C0
F803E0
F001E0
F001E0
F001E0
F001E0
F801E0
7803C0
7C07C0
3FBF80
1FFF00
0FFE00
03F800
000000
000000
00E000
00E000
00E000
ENDCHAR
STARTCHAR 1ECD
ENCODING 7885
SWIDTH 640 0
DWIDTH 16 0
BBX 15 19 1 -5
BITMAP
0FC0
1FF0
7FF8
7C7C
F03C
F03C
F01E
F01E
F03C
F83C
7C7C
7FF8
3FF0
0FC0
0000
0000
0380
0780
0300
ENDCHAR
STARTCHAR 1ECE
ENCODING 7886
SWIDTH 840 0
DWIDTH 21 0
BBX 19 25 1 0
BITMAP
00E000
01F000
003800
003800
007000
002000
000000
03F800
0FFE00
1FFF00
3FBF80
7C07C0
7803C0
F803E0
F001E0
F001E0
F001E0
F001E0
F801E0
7803C0
7C07C0
3FBF80
1FFF00
0FFE00
03F800
ENDCHAR
STARTCHAR 1ECF
ENCODING 7887
SWIDTH 640 0
DWIDTH 16 0
BBX 15 21 1 0
BITMAP
0780
07C0
00C0
00C0
01C0
0000
0000
0FC0
1FF0
7FF8
7C7C
F03C
F03C
F01E
F01E
F03C
F83C
7C7C
7FF8
3FF0
0FC0
ENDCHAR
STARTCHAR 1ED0
ENCODING 7888
SWIDTH 840 0
DWIDTH 21 0
BBX 19 25 1 0
BITMAP
0001E0
000380
000700
01F000
03B800
071C00
000000
03F800
0FFE00
1FFF00
3FBF80
7C07C0
7803C0
F803E0
F001E0
F001E0
F001E0
F001E0
F801E0
7803C0
7C07C0
3FBF80
1FFF00
0FFE00
03F800
ENDCHAR
STARTCHAR 1ED1
ENCODING 7889
SWIDTH 640 0
DWIDTH 16 0
BBX 16 21 1 0
BITMAP
000F
000E
001C
0780
0FE0
1C70
0000
0FC0
1FF0
7FF8
7C7C
F03C
F03C
F01E
F01E
F03C
F83C
7C7C
7FF8
3FF0
0FC0
ENDCHAR
STARTCHAR 1ED2
ENCODING 7890
SWIDTH 840 0
DWIDTH 21 0
BBX 19 25 1 0
BITMAP
001E00
000E00
000700
01F000
03B800
071C00
000000
03F800
0FFE00
1FFF00
3FBF80
7C07C0
7803C0
F803E0
F001E0
F001E0
F001E0
F001E0
F801E0
7803C0
7C07C0
3FBF80
1FFF00
0FFE00
03F800
ENDCHAR
STARTCHAR 1ED3
ENCODING 7891
SWIDTH 640 0
DWIDTH 16 0
BBX 15 21 1 0
BITMAP
00F0
0038
001C
0780
0FE0
1C70
0000
0FC0
1FF0
7FF8
7C7C
F03C
F03C
F01E
F01E
F03C
F83C
7C7C
7FF8
3FF0
0FC0
ENDCHAR
STARTCHAR 1ED4
ENCODING 7892
SWIDTH 840 0
DWIDTH 21 0
BBX 19 25 1 0
BITMAP
001E00
000F00
000300
01F200
03B800
071C00
000000
03F800
0FFE00
1FFF00
3FBF80
7C07C0
7803C0
F803E0
F001E0
F001E0
F001E0
F001E0
F801E0
7803C0
7C07C0
3FBF80
1FFF00
0FFE00
03F800
ENDCHAR
STARTCHAR 1ED5
ENCODING 7893
SWIDTH 640 0
DWIDTH 16 0
BBX 15 21 1 0
BITMAP
0078
0008
0018
0790
0FE0
1C70
0000
0FC0
1FF0
7FF8
7C7C
F03C
F03C
F01E
F01E
F03C
F83C
7C7C
7FF8
3FF0
0FC0
ENDCHAR
STARTCHAR 1ED6
ENCODING 7894
SWIDTH 840 0
DWIDTH 21 0
BBX 19 26 1 0
BITMAP
03CC00
07FC00
063800
000000
01F000
03B800
071C00
000000
03F800
0FFE00
1FFF00
3FBF80
7C07C0
7803C0
F803E0
F001E0
F001E0
F001E0
F001E0
F801E0
7803C0
7C07C0
3FBF80
1FFF00
0FFE00
03F800
ENDCHAR
STARTCHAR 1ED7
ENCODING 7895
SWIDTH 640 0
DWIDTH 16 0
BBX 15 23 1 0
BITMAP
0E00
1F30
1BF0
31E0
0000
0780
0FE0
1C70
0000
0FC0
1FF0
7FF8
7C7C
F03C
F03C
F01E
F01E
F03C
F83C
7C7C
7FF8
3FF0
0FC0
ENDCHAR
STARTCHAR 1ED8
ENCODING 7896
SWIDTH 840 0
DWIDTH 21 0
BBX 19 28 1 -5
BITMAP
00E000
01F000
03B800
071C00
000000
03F800
0FFE00
1FFF00
3FBF80
7C07C0
7803C0
F803E0
F001E0
F001E0
F001E0
F001E0
F801E0
7803C0
7C07C0
3FBF80
1FFF00
0FFE00
03F800
000000
000000
00E000
00E000
00E000
ENDCHAR
STARTCHAR 1ED9
ENCODING 7897
SWIDTH 640 0
DWIDTH 16 0
BBX 15 24 1 -5
BITMAP
0780
0FC0
1CE0
3870
0000
0FC0
1FF0
7FF8
7C7C
F03C
F03C
F01E
F01E
F03C
F83C
7C7C
7FF8
3FF0
0FC0
0000
0000
0380
0780
0300
ENDCHAR
STARTCHAR 1EDA
ENCODING 7898
SWIDTH 840 0
DWIDTH 21 0
BBX 19 23 1 0
BITMAP
001E00
003800
0070E0
00E0E0
0000E0
03FFE0
0FFFC0
1FFF80
3FBF80
7C07C0
7803C0
F803E0
F001E0
F001E0
F001E0
F001E0
F801E0
7803C0
7C07C0
3FBF80
1FFF00
0FFE00
03F800
ENDCHAR
STARTCHAR 1EDB
ENCODING 7899
SWIDTH 640 0
DWIDTH 16 0
BBX 15 19 1 0
BITMAP
00F0
01E4
039C
070C
000C
0FFC
1FF8
7FF8
7C7C
F03C
F03C
F01E
F01E
F03C
F83C
7C7C
7FF8
3FF0
0FC0
ENDCHAR
STARTCHAR 1EDC
ENCODING 7900
SWIDTH 840 0
DWIDTH 21 0
BBX 19 23 1 0
BITMAP
0F8000
038000
01C0E0
00E0E0
0000E0
03FFE0
0FFFC0
1FFF80
3FBF80
7C07C0
7803C0
F803E0
F001E0
F001E0
F001E0
F001E0
F801E0
7803C0
7C07C0
3FBF80
1FFF00
0FFE00
03F800
ENDCHAR
STARTCHAR 1EDD
ENCODING 7901
SWIDTH 640 0
DWIDTH 16 0
BBX 15 19 1 0
BITMAP
1E00
0F04
071C
038C
000C
0FFC
1FF8
7FF8
7C7C
F03C
F03C
F01E
F01E
F03C
F83C
7C7C
7FF8
3FF0
0FC0
ENDCHAR
STARTCHAR 1EDE
ENCODING 7902
SWIDTH 840 0
DWIDTH 21 0
BBX 19 25 1 0
BITMAP
00E000
01F000
003800
003840
0070E0
0020E0
0000E0
03FFE0
0FFFC0
1FFF80
3FBF80
7C07C0
7803C0
F803E0
F001E0
F001E0
F001E0
F001E0
F801E0
7803C0
7C07C0
3FBF80
1FFF00
0FFE00
03F800
ENDCHAR
STARTCHAR 1EDF
ENCODING 7903
SWIDTH 640 0
DWIDTH 16 0
BBX 15 21 1 0
BITMAP
0780
07C0
00C0
00C4
01DC
000C
000C
0FFC
1FF8
7FF8
7C7C
F03C
F03C
F01E
F01E
F03C
F83C
7C7C
7FF8
3FF0
0FC0
ENDCHAR
STARTCHAR 1EE0
ENCODING 7904
SWIDTH 840 0
DWIDTH 21 0
BBX 19 23 1 0
BITMAP
038C00
07EC00
06FCE0
0638E0
0000E0
03FFE0
0FFFC0
1FFF80
3FBF80
7C07C0
7803C0
F803E0
F001E0
F001E0
F001E0
F001E0
F801E0
7803C0
7C07C0
3FBF80
1FFF00
0FFE00
03F800
ENDCHAR
STARTCHAR 1EE1
ENCODING 7905
SWIDTH 640 0
DWIDTH 16 0
BBX 15 19 1 0
BITMAP
0E60
1FE0
1BDC
188C
000C
0FFC
1FF8
7FF8
7C7C
F03C
F03C
F01E
F01E
F03C
F83C
7C7C
7FF8
3FF0
0FC0
ENDCHAR
STARTCHAR 1EE2
ENCODING 7906
SWIDTH 840 0
DWIDTH 21 0
BBX 19 26 1 -4
BITMAP
0000E0
0000E0
0000E0
03FFE0
0FFFC0
1FFF80
3FBF80
7C07C0
7803C0
F803E0
F001E0
F001E0
F001E0
F001E0
F801E0
7803C0
7C07C0
3FBF80
1FFF00
0FFE00
03F800
000000
000000
00E000
00E000
00E000
ENDCHAR
STARTCHAR 1EE3
ENCODING 7907
SWIDTH 640 0
DWIDTH 16 0
BBX 15 23 1 -5
BITMAP
0004
001C
000C
000C
0FFC
1FF8
7FF8
7C7C
F03C
F03C
F01E
F01E
F03C
F83C
7C7C
7FF8
3FF0
0FC0
0000
0000
0380
0780
0300
ENDCHAR
STARTCHAR 1EE4
ENCODING 7908
SWIDTH 800 0
DWIDTH 20 0
BBX 16 23 2 -5
BITMAP
F00F
F00F
F00F
F00F
F00F
F00F
F00F
F00F
F00F
F00F
F00F
F00F
F01F
F81E
7FFE
3FFC
1FF8
07E0
0000
0000
0380
03C0
0180
ENDCHAR
STARTCHAR 1EE5
ENCODING 7909
SWIDTH 680 0
DWIDTH 17 0
BBX 13 19 2 -5
BITMAP
F078
F078
F078
F078
F078
F078
F078
F078
F078
F078
FDF8
7FF8
7FB8
1F38
0000
0000
0700
0700
0700
ENDCHAR
STARTCHAR 1EE6
ENCODING 7910
SWIDTH 800 0
DWIDTH 20 0
BBX 16 25 2 0
BITMAP
03C0
03E0
0060
0060
01C0
0080
0000
F00F
F00F
F00F
F00F
F00F
F00F
F00F
F00F
F00F
F00F
F00F
F00F
F01F
F81E
7FFE
3FFC
1FF8
07E0
ENDCHAR
STARTCHAR 1EE7
ENCODING 7911
SWIDTH 680 0
DWIDTH 17 0
BBX 13 21 2 0
BITMAP
0F00
0F80
01C0
0180
0380
0000
0000
F078
F078
F078
F078
F078
F078
F078
F078
F078
F078
FDF8
7FF8
7FB8
1F38
ENDCHAR
STARTCHAR 1EE8
ENCODING 7912
SWIDTH 800 0
DWIDTH 20 0
BBX 18 23 2 0
BITMAP
00F800
00E040
01C0C0
0380C0
0000C0
F00FC0
F00F80
F00F00
F00F00
F00F00
F00F00
F00F00
F00F00
F00F00
F00F00
F00F00
F00F00
F01F00
F81E00
7FFE00
3FFC00
1FF800
07E000
ENDCHAR
STARTCHAR 1EE9
ENCODING 7913
SWIDTH 720 0
DWIDTH 18 0
BBX 16 19 2 0
BITMAP
01E0
03C0
0786
0E07
0007
F07E
F07E
F078
F078
F078
F078
F078
F078
F078
F078
FDF8
7FF8
7FB8
1F38
ENDCHAR
STARTCHAR 1EEA
ENCODING 7914
SWIDTH 800 0
DWIDTH 20 0
BBX 18 23 2 0
BITMAP
1E0000
0F0040
0380C0
01C0C0
0000C0
F00FC0
F00F80
F00F00
F00F00
F00F00
F00F00
F00F00
F00F00
F00F00
F00F00
F00F00
F00F00
F01F00
F81E00
7FFE00
3FFC00
1FF800
07E000
ENDCHAR
STARTCHAR 1EEB
ENCODING 7915
SWIDTH 720 0
DWIDTH 18 0
BBX 16 19 2 0
BITMAP
3C00
1E00
0F06
0387
0007
F07E
F07E
F078
F078
F078
F078
F078
F078
F078
F078
FDF8
7FF8
7FB8
1F38
ENDCHAR
STARTCHAR 1EEC
ENCODING 7916
SWIDTH 800 0
DWIDTH 20 0
BBX 18 25 2 0
BITMAP
03C000
03E000
006000
006040
01C0C0
0080C0
0000C0
F00FC0
F00F80
F00F00
F00F00
F00F00
F00F00
F00F00
F00F00
F00F00
F00F00
F00F00
F00F00
F01F00
F81E00
7FFE00
3FFC00
1FF800
07E000
ENDCHAR
STARTCHAR 1EED
ENCODING 7917
SWIDTH 720 0
DWIDTH 18 0
BBX 16 21 2 0
BITMAP
0F00
0F80
01C0
0182
0386
0007
0007
F07E
F07E
F078
F078
F078
F078
F078
F078
F078
F078
FDF8
7FF8
7FB8
1F38
ENDCHAR
STARTCHAR 1EEE
ENCODING 7918
SWIDTH 800 0
DWIDTH 20 0
BBX 18 23 2 0
BITMAP
0F1800
0FB840
19F1C0
00E0C0
0000C0
F00FC0
F00F80
F00F00
F00F00
F00F00
F00F00
F00F00
F00F00
F00F00
F00F00
F00F00
F00F00
F01F00
F81E00
7FFE00
3FFC00
1FF800
07E000
ENDCHAR
STARTCHAR 1EEF
ENCODING 7919
SWIDTH 720 0
DWIDTH 18 0
BBX 16 19 2 0
BITMAP
1C60
3FE0
33E6
3087
0007
F07E
F07E
F078
F078
F078
F078
F078
F078
F078
F078
FDF8
7FF8
7FB8
1F38
ENDCHAR
STARTCHAR 1EF0
ENCODING 7920
SWIDTH 800 0
DWIDTH 20 0
BBX 18 27 2 -5
BITMAP
000040
0000C0
0000C0
0000C0
F00FC0
F00F80
F00F00
F00F00
F00F00
F00F00
F00F00
F00F00
F00F00
F00F00
F00F00
F00F00
F01F00
F81E00
7FFE00
3FFC00
1FF800
07E000
000000
000000
038000
03C000
018000
ENDCHAR
STARTCHAR 1EF1
ENCODING 7921
SWIDTH 720 0
DWIDTH 18 0
BBX 16 23 2 -5
BITMAP
0002
0007
0007
0007
F07E
F07E
F078
F078
F078
F078
F078
F078
F078
F078
FDF8
7FF8
7FB8
1F38
0000
0000
0700
0700
0700
ENDCHAR
STARTCHAR 1EF2
ENCODING 7922
SWIDTH 680 0
DWIDTH 17 0
BBX 17 23 0 0
BITMAP
0F0000
078000
03C000
00E000
000000
F00780
780F00
780F00
3C1E00
3E1E00
1E3C00
1F7800
0F7800
07F000
07F000
03E000
03E000
03C000
03C000
03C000
03C000
03C000
03C000
ENDCHAR
STARTCHAR 1EF3
ENCODING 7923
SWIDTH 600 0
DWIDTH 15 0
BBX 15 24 0 -5
BITMAP
1E00
0F00
0700
0380
0000
F01E
F01E
783C
783C
3C38
3C78
3C70
1EF0
1EF0
0FE0
0FE0
07C0
07C0
07C0
0780
4780
FF00
FE00
7C00
ENDCHAR
STARTCHAR 1EF4
ENCODING 7924
SWIDTH 680 0
DWIDTH 17 0
BBX 17 23 0 -5
BITMAP
F00780
780F00
780F00
3C1E00
3E1E00
1E3C00
1F7800
0F7800
07F000
07F000
03E000
03E000
03C000
03C000
03C000
03C000
03C000
03C000
000000
000000
01C000
01C000
01C000
ENDCHAR
STARTCHAR 1EF5
ENCODING 7925
SWIDTH 600 0
DWIDTH 15 0
BBX 15 19 0 -5
BITMAP
F01E
F01E
783C
783C
3C38
3C78
3C70
1EF0
1EF0
0FE0
0FE0
07C0
07C0
07C0
0780
4780
FF38
FE38
7C38
ENDCHAR
STARTCHAR 1EF6
ENCODING 7926
SWIDTH 680 0
DWIDTH 17 0
BBX 17 25 0 0
BITMAP
03C000
03E000
006000
006000
00E000
004000
000000
F00780
780F00
780F00
3C1E00
3E1E00
1E3C00
1F7800
0F7800
07F000
07F000
03E000
03E000
03C000
03C000
03C000
03C000
03C000
03C000
ENDCHAR
STARTCHAR 1EF7
ENCODING 7927
SWIDTH 600 0
DWIDTH 15 0
BBX 15 26 0 -5
BITMAP
0780
07C0
00C0
00C0
01C0
0000
0000
F01E
F01E
783C
783C
3C38
3C78
3C70
1EF0
1EF0
0FE0
0FE0
07C0
07C0
07C0
0780
4780
FF00
FE00
7C00
ENDCHAR
STARTCHAR 1EF8
ENCODING 7928
SWIDTH 680 0
DWIDTH 17 0
BBX 17 23 0 0
BITMAP
079800
0FD800
0DF800
007000
000000
F00780
780F00
780F00
3C1E00
3E1E00
1E3C00
1F7800
0F7800
07F000
07F000
03E000
03E000
03C000
03C000
03C000
03C000
03C000
03C000
ENDCHAR
STARTCHAR 1EF9
ENCODING 7929
SWIDTH 600 0
DWIDTH 15 0
BBX 15 24 0 -5
BITMAP
0E30
1FF0
19E0
3000
0000
F01E
F01E
783C
783C
3C38
3C78
3C70
1EF0
1EF0
0FE0
0FE0
07C0
07C0
07C0
0780
4780
FF00
FE00
7C00
ENDCHAR
STARTCHAR 2007
ENCODING 8199
SWIDTH 720 0
DWIDTH 18 0
BBX 0 0 0 0
BITMAP
ENDCHAR
STARTCHAR 2008
ENCODING 8200
SWIDTH 280 0
DWIDTH 7 0
BBX 0 0 0 0
BITMAP
ENDCHAR
STARTCHAR 2009
ENCODING 8201
SWIDTH 160 0
DWIDTH 4 0
BBX 0 0 0 0
BITMAP
ENDCHAR
STARTCHAR 200A
ENCODING 8202
SWIDTH 120 0
DWIDTH 3 0
BBX 0 0 0 0
BITMAP
ENDCHAR
STARTCHAR 200B
ENCODING 8203
SWIDTH 0 0
DWIDTH 0 0
BBX 0 0 0 0
BITMAP
ENDCHAR
STARTCHAR 2010
ENCODING 8208
SWIDTH 400 0
DWIDTH 10 0
BBX 7 3 1 6
BITMAP
FE
FE
FE
ENDCHAR
STARTCHAR 2012
ENCODING 8210
SWIDTH 720 0
DWIDTH 18 0
BBX 15 2 1 8
BITMAP
FFFE
FFFE
ENDCHAR
STARTCHAR 2013
ENCODING 8211
SWIDTH 520 0
DWIDTH 13 0
BBX 12 2 0 6
BITMAP
FFF0
FFF0
ENDCHAR
STARTCHAR 2014
ENCODING 8212
SWIDTH 1000 0
DWIDTH 25 0
BBX 25 2 0 6
BITMAP
FFFFFF80
FFFFFF80
ENDCHAR
STARTCHAR 2015
ENCODING 8213
SWIDTH 1000 0
DWIDTH 25 0
BBX 25 2 0 6
BITMAP
FFFFFF80
FFFFFF80
ENDCHAR
STARTCHAR 2018
ENCODING 8216
SWIDTH 280 0
DWIDTH 7 0
BBX 5 8 1 11
BITMAP
30
70
70
60
F0
F8
F8
F0
ENDCHAR
STARTCHAR 2019
ENCODING 8217
SWIDTH 280 0
DWIDTH 7 0
BBX 5 8 1 11
BITMAP
70
F8
F8
F8
70
70
60
E0
ENDCHAR
STARTCHAR 201A
ENCODING 8218
SWIDTH 280 0
DWIDTH 7 0
BBX 5 8 1 -4
BITMAP
F0
F8
F8
F0
70
70
60
E0
ENDCHAR
STARTCHAR 201C
ENCODING 8220
SWIDTH 480 0
DWIDTH 12 0
BBX 11 8 1 11
BITMAP
30C0
71C0
71C0
6380
F3C0
FBE0
FBE0
F3C0
ENDCHAR
STARTCHAR 201D
ENCODING 8221
SWIDTH 480 0
DWIDTH 12 0
BBX 11 8 1 11
BITMAP
71C0
FBC0
FBE0
FBC0
71C0
71C0
6180
E380
ENDCHAR
STARTCHAR 201E
ENCODING 8222
SWIDTH 480 0
DWIDTH 12 0
BBX 11 8 1 -4
BITMAP
F3C0
FBE0
FBE0
F3C0
71C0
7180
6380
E380
ENDCHAR
STARTCHAR 2020
ENCODING 8224
SWIDTH 600 0
DWIDTH 15 0
BBX 13 23 1 -5
BITMAP
0F00
0F00
0F00
0F00
0F00
0F00
FFF8
FFF8
FFF8
0F00
0F00
0F00
0F00
0F00
0F00
0F00
0F00
0F00
0F00
0F00
0F00
0F00
0F00
ENDCHAR
STARTCHAR 2021
ENCODING 8225
SWIDTH 600 0
DWIDTH 15 0
BBX 13 23 1 -5
BITMAP
0F00
0F00
0F00
0F00
0F00
0F00
FFF8
FFF8
FFF8
0F00
0F00
0F00
0F00
0F00
FFF8
FFF8
FFF8
0F00
0F00
0F00
0F00
0F00
0F00
ENDCHAR
STARTCHAR 2022
ENCODING 8226
SWIDTH 360 0
DWIDTH 9 0
BBX 7 6 1 4
BITMAP
38
7C
FE
FE
7C
7C
ENDCHAR
STARTCHAR 2026
ENCODING 8230
SWIDTH 800 0
DWIDTH 20 0
BBX 18 5 1 0
BITMAP
70C380
F9E7C0
F9E7C0
F9E7C0
71C380
ENDCHAR
STARTCHAR 2030
ENCODING 8240
SWIDTH 1240 0
DWIDTH 31 0
BBX 30 18 1 0
BITMAP
3C038000
7E070000
E7070000
C30E0000
C31C0000
C31C0000
C3380000
E7700000
7E73C1F0
3CE7E3F8
01CE7338
01CC371C
038C371C
070C371C
070C371C
0E0E7318
1C07E3F8
1C03C1E0
ENDCHAR
STARTCHAR 2032
ENCODING 8242
SWIDTH 240 0
DWIDTH 6 0
BBX 4 7 1 11
BITMAP
F0
E0
E0
E0
E0
E0
E0
ENDCHAR
STARTCHAR 2033
ENCODING 8243
SWIDTH 440 0
DWIDTH 11 0
BBX 9 7 1 11
BITMAP
F780
E780
E780
E780
E380
E300
E300
ENDCHAR
STARTCHAR 2039
ENCODING 8249
SWIDTH 360 0
DWIDTH 9 0
BBX 7 10 1 2
BITMAP
1E
1C
38
78
F0
F0
70
38
3C
1E
ENDCHAR
STARTCHAR 203A
ENCODING 8250
SWIDTH 360 0
DWIDTH 9 0
BBX 6 10 1 2
BITMAP
E0
F0
78
38
1C
1C
3C
78
70
E0
ENDCHAR
STARTCHAR 2044
ENCODING 8260
SWIDTH 200 0
DWIDTH 5 0
BBX 14 18 -5 0
BITMAP
001C
001C
0038
0070
0070
00E0
01C0
01C0
0380
0700
0700
0E00
1C00
1C00
3800
3000
7000
E000
ENDCHAR
STARTCHAR 2052
ENCODING 8274
SWIDTH 600 0
DWIDTH 15 0
BBX 12 18 1 0
BITMAP
70E0
F0E0
F1C0
71C0
0180
0380
0380
0300
0700
0700
0E00
0E00
0E00
1C00
1C70
1CF0
38F0
3870
ENDCHAR
STARTCHAR 2070
ENCODING 8304
SWIDTH 440 0
DWIDTH 11 0
BBX 10 11 0 8
BITMAP
1F00
3F80
73C0
71C0
61C0
E0C0
61C0
71C0
73C0
3F80
1F00
ENDCHAR
STARTCHAR 2074
ENCODING 8308
SWIDTH 440 0
DWIDTH 11 0
BBX 10 10 0 9
BITMAP
0700
0E00
1C00
3800
3B80
7380
FFC0
FFC0
0380
0380
ENDCHAR
STARTCHAR 2075
ENCODING 8309
SWIDTH 440 0
DWIDTH 11 0
BBX 9 11 1 8
BITMAP
7F00
7F00
6000
6000
FE00
FF00
0380
0380
C780
FF00
7E00
ENDCHAR
STARTCHAR 2076
ENCODING 8310
SWIDTH 440 0
DWIDTH 11 0
BBX 9 11 1 8
BITMAP
1F00
7F00
7100
E000
DF00
FF80
E380
E180
E380
7F00
3E00
ENDCHAR
STARTCHAR 2077
ENCODING 8311
SWIDTH 440 0
DWIDTH 11 0
BBX 9 10 1 9
BITMAP
FF80
FF80
C380
C700
0700
0E00
0E00
1C00
1C00
3800
ENDCHAR
STARTCHAR 2078
ENCODING 8312
SWIDTH 440 0
DWIDTH 11 0
BBX 9 11 1 8
BITMAP
3E00
FF00
E380
E380
FF00
FF00
E380
C380
E380
FF80
3E00
ENDCHAR
STARTCHAR 2079
ENCODING 8313
SWIDTH 440 0
DWIDTH 11 0
BBX 9 11 1 8
BITMAP
3E00
FF00
E380
C380
E380
FF80
7F80
0380
4700
FE00
FC00
ENDCHAR
STARTCHAR 2080
ENCODING 8320
SWIDTH 440 0
DWIDTH 11 0
BBX 10 11 0 -3
BITMAP
1F00
3F80
73C0
71C0
61C0
E0C0
61C0
71C0
73C0
3F80
1F00
ENDCHAR
STARTCHAR 2081
ENCODING 8321
SWIDTH 440 0
DWIDTH 11 0
BBX 7 11 2 -3
BITMAP
F8
F8
38
38
38
38
38
38
38
FE
FE
ENDCHAR
STARTCHAR 2082
ENCODING 8322
SWIDTH 440 0
DWIDTH 11 0
BBX 9 11 1 -3
BITMAP
7E00
FF00
C700
0300
0700
0E00
1E00
3800
7000
FF80
FF80
ENDCHAR
STARTCHAR 2083
ENCODING 8323
SWIDTH 440 0
DWIDTH 11 0
BBX 9 11 1 -3
BITMAP
FF00
FF00
0700
0C00
1E00
1F00
0380
0380
C780
FF00
7E00
ENDCHAR
STARTCHAR 2084
ENCODING 8324
SWIDTH 440 0
DWIDTH 11 0
BBX 10 11 0 -3
BITMAP
0E00
0E00
1C00
3800
3B80
7380
FFC0
FFC0
0380
0380
0380
ENDCHAR
STARTCHAR 2085
ENCODING 8325
SWIDTH 440 0
DWIDTH 11 0
BBX 9 11 1 -3
BITMAP
7F00
7F00
6000
6000
FE00
FF00
0380
0380
C780
FF00
7E00
ENDCHAR
STARTCHAR 2086
ENCODING 8326
SWIDTH 440 0
DWIDTH 11 0
BBX 9 11 1 -3
BITMAP
1F00
7F00
7100
E000
DF00
FF80
E380
E180
E380
7F00
3E00
ENDCHAR
STARTCHAR 2087
ENCODING 8327
SWIDTH 440 0
DWIDTH 11 0
BBX 9 11 1 -3
BITMAP
FF80
FF80
C380
C700
0700
0E00
0E00
1C00
1C00
3800
3800
ENDCHAR
STARTCHAR 2088
ENCODING 8328
SWIDTH 440 0
DWIDTH 11 0
BBX 9 11 1 -3
BITMAP
3E00
FF00
E380
E380
FF00
7F00
E380
C380
E380
FF80
3E00
ENDCHAR
STARTCHAR 2089
ENCODING 8329
SWIDTH 440 0
DWIDTH 11 0
BBX 9 11 1 -3
BITMAP
3E00
FF00
E380
C380
E380
FF80
7F80
0380
4700
FE00
FC00
ENDCHAR
STARTCHAR 20A1
ENCODING 8353
SWIDTH 720 0
DWIDTH 18 0
BBX 16 24 1 -3
BITMAP
0066
00EE
00EC
03FC
0FFE
1FFF
3FDF
7D9E
7998
FBB8
F3B0
F330
F330
F770
FF60
7E60
7E66
3FFF
1FFF
0FFE
0FF8
1DC0
1D80
1980
ENDCHAR
STARTCHAR 20A3
ENCODING 8355
SWIDTH 680 0
DWIDTH 17 0
BBX 15 18 1 0
BITMAP
3FFE
3FFE
3FFE
3C00
3C00
3C00
3C00
3C00
3FFC
3FFC
3FFC
3C00
3C00
3C00
FFF0
FFF0
3C00
3C00
ENDCHAR
STARTCHAR 20A4
ENCODING 8356
SWIDTH 680 0
DWIDTH 17 0
BBX 15 18 1 0
BITMAP
01FC
07FE
0FFE
1FDC
1E00
3E00
FFF0
FFF0
3C00
3C00
FFF0
FFF0
3C00
3C00
3C00
FFFE
FFFE
FFFE
ENDCHAR
STARTCHAR 20A6
ENCODING 8358
SWIDTH 920 0
DWIDTH 23 0
BBX 21 18 1 0
BITMAP
3C03C0
3E03C0
3F03C0
3F03C0
3F83C0
3FC3C0
FFE3F8
FDE3F8
3DF3C0
3CFBC0
FC7FF8
FC3FF8
3C1FC0
3C1FC0
3C0FC0
3C07C0
3C03C0
3C01C0
ENDCHAR
STARTCHAR 20A7
ENCODING 8359
SWIDTH 1720 0
DWIDTH 43 0
BBX 40 18 2 0
BITMAP
FFE0000000
FFF81E0000
FFFC1E0000
F07E1E0000
F01E7FC1FC
F01E7FC3FE
F01E7FC7FE
F01E1E0F04
F03E1E0F00
F07E1E0F80
FFFC1E07FC
FFF81E07FE
FFE01E00FF
F0001E000F
F0001E060F
F0001FCFFF
F0000FEFFE
F00007C3F8
ENDCHAR
STARTCHAR 20A9
ENCODING 8361
SWIDTH 1240 0
DWIDTH 31 0
BBX 29 18 1 0
BITMAP
F8078078
780F8078
780F80F0
780FC0F0
3C1FC0F0
3C1FC1E0
FC1DE1F8
FE3DE1F8
1E3CE3C0
1E38F3C0
FF78F3F8
FF7877F8
0F707F80
07F07F80
07F03F00
07E03F00
03E03F00
03E01E00
ENDCHAR
STARTCHAR 20AB
ENCODING 8363
SWIDTH 680 0
DWIDTH 17 0
BBX 16 22 1 -3
BITMAP
001C
001C
03FF
03FF
001C
0F9C
3FDC
7FFC
7C7C
F83C
F03C
F01C
F01C
F03C
F83C
7C7C
7FFC
3FFC
0F9C
0000
FFFE
FFFE
ENDCHAR
STARTCHAR 20AC
ENCODING 8364
SWIDTH 840 0
DWIDTH 21 0
BBX 18 18 1 0
BITMAP
00FE00
03FF80
07FFC0
0FEFC0
1F0180
1E0000
FFF800
FFF800
3C0000
3C0000
FFF800
FFF800
1E0000
1F0180
0FEFC0
07FFC0
03FF80
00FE00
ENDCHAR
STARTCHAR 20AD
ENCODING 8365
SWIDTH 720 0
DWIDTH 18 0
BBX 17 18 1 0
BITMAP
3C0780
3C0F80
3C1F00
3C3E00
3C7C00
3C7800
3CF800
3DF000
FFFF00
FFFF00
3DF000
3CF800
3C7C00
3C3C00
3C3E00
3C1F00
3C0F80
3C0780
ENDCHAR
STARTCHAR 20AE
ENCODING 8366
SWIDTH 720 0
DWIDTH 18 0
BBX 15 18 1 0
BITMAP
FFFE
FFFE
FFFE
03C0
03C0
03C8
03F8
03F0
03C0
0FD8
3FF8
33F0
07C0
1FC0
3FC0
33C0
03C0
03C0
ENDCHAR
STARTCHAR 20B1
ENCODING 8369
SWIDTH 880 0
DWIDTH 22 0
BBX 20 18 1 0
BITMAP
3FF800
3FFE00
3FFF00
3C1F80
FC07F0
FC07F0
3C0780
FC07F0
FC07F0
3C1F80
3FFF00
3FFE00
3FF800
3C0000
3C0000
3C0000
3C0000
3C0000
ENDCHAR
STARTCHAR 20B2
ENCODING 8370
SWIDTH 760 0
DWIDTH 19 0
BBX 17 24 1 -3
BITMAP
00E000
00E000
00E000
03F800
0FFE00
1FFF00
3FFF00
7CE600
78E000
F8E000
F0E000
F0E000
F0E780
F0E780
F8E780
78E780
7CE780
3FFF80
1FFF80
0FFF00
03F800
00E000
00E000
00E000
ENDCHAR
STARTCHAR 20B4
ENCODING 8372
SWIDTH 840 0
DWIDTH 21 0
BBX 17 18 2 0
BITMAP
0FE000
3FF800
3FFC00
1C3E00
001E00
001E00
FFFF80
FFFF80
000000
000000
FFFF80
FFFF80
780000
780200
7E1E00
3FFE00
1FFE00
07F000
ENDCHAR
STARTCHAR 20B5
ENCODING 8373
SWIDTH 720 0
DWIDTH 18 0
BBX 16 24 1 -3
BITMAP
00E0
00E0
00E0
03F8
0FFE
1FFF
3FFF
7CE6
78E0
F8E0
F0E0
F0E0
F0E0
F0E0
F8E0
78E0
7CE6
3FFF
1FFF
0FFE
03F8
00E0
00E0
00E0
ENDCHAR
STARTCHAR 20B8
ENCODING 8376
SWIDTH 720 0
DWIDTH 18 0
BBX 15 18 2 0
BITMAP
FFFE
FFFE
0000
0000
FFFE
FFFE
0780
0780
0780
0780
0780
0780
0780
0780
0780
0780
0780
0780
ENDCHAR
STARTCHAR 20B9
ENCODING 8377
SWIDTH 720 0
DWIDTH 18 0
BBX 16 18 1 0
BITMAP
FFFF
FFFF
00F8
0078
FFFF
FFFF
003C
007C
00F8
7FF8
7FF0
7FC0
03E0
01E0
00F0
00F8
0078
007C
ENDCHAR
STARTCHAR 20BA
ENCODING 8378
SWIDTH 760 0
DWIDTH 19 0
BBX 17 18 1 0
BITMAP
3C0000
3C3000
3C7000
3DE000
3F9000
3E3000
3CF000
FFC000
FF0000
3E0780
7C0780
FC0F80
BC0F00
3C1F00
3C7E00
3FFC00
3FF800
3FC000
ENDCHAR
STARTCHAR 20BC
ENCODING 8380
SWIDTH 920 0
DWIDTH 23 0
BBX 19 21 2 0
BITMAP
00E000
00E000
00E000
03F800
0FFE00
1FFF00
3FFF80
7CE7C0
78E3C0
70E3C0
F0E1E0
F0E1E0
F0E1E0
F0E1E0
F0E1E0
F0E1E0
F0E1E0
F0E1E0
F001E0
F001E0
F001E0
ENDCHAR
STARTCHAR 20BD
ENCODING 8381
SWIDTH 760 0
DWIDTH 19 0
BBX 17 18 1 0
BITMAP
3FF800
3FFE00
3FFF00
3C1F80
3C0780
3C0780
3C0780
3C0780
3C0F80
3FFF00
3FFE00
3FFC00
3C0000
3C0000
FFF000
FFF000
3C0000
3C0000
ENDCHAR
STARTCHAR 2113
ENCODING 8467
SWIDTH 480 0
DWIDTH 12 0
BBX 11 18 0 0
BITMAP
03C0
07E0
0E60
0E60
0C60
1CE0
1CC0
1DC0
1F80
1F00
1E00
3C00
7800
F800
3860
3FC0
1F80
0F00
ENDCHAR
STARTCHAR 2116
ENCODING 8470
SWIDTH 1200 0
DWIDTH 30 0
BBX 27 18 2 0
BITMAP
F00F0F80
F80F1FC0
F80F38E0
FC0F3860
FE0F3860
FF0F38E0
FF8F1FC0
F78F0F80
F7CF0000
F3EF0000
F1FF3FE0
F0FF3FE0
F0FF0000
F07F0000
F03F0000
F01F0000
F00F0000
F00F0000
ENDCHAR
STARTCHAR 2122
ENCODING 8482
SWIDTH 1040 0
DWIDTH 26 0
BBX 24 10 0 8
BITMAP
FFDC07
FFDE07
0C1E0F
0C1F1F
0C1F9F
0C1FBF
0C1DF7
0C1CE7
0C1CE7
0C1C07
ENDCHAR
STARTCHAR 2126
ENCODING 8486
SWIDTH 880 0
DWIDTH 22 0
BBX 22 18 0 0
BITMAP
00FC00
03FF80
0FFFC0
1FFFE0
1F03F0
3E01F0
3C00F0
3C00F8
3C0078
3C0078
3C00F0
3C00F0
3E00F0
1E01E0
0F83C0
FF87FC
FF87FC
FF87FC
ENDCHAR
STARTCHAR 212A
ENCODING 8490
SWIDTH 760 0
DWIDTH 19 0
BBX 16 18 2 0
BITMAP
F01F
F03E
F03C
F078
F0F0
F1E0
F3C0
F7C0
FF80
FFC0
FFE0
FDF0
F8F8
F0F8
F07C
F03E
F01F
F00F
ENDCHAR
STARTCHAR 212B
ENCODING 8491
SWIDTH 760 0
DWIDTH 19 0
BBX 19 25 0 0
BITMAP
01F000
011800
031800
011800
01F000
000000
000000
01F000
01F000
03F800
03F800
03BC00
07BC00
07BC00
0F1E00
0F1E00
1E0F00
1E0F00
1FFF80
3FFF80
3FFF80
7803C0
7803C0
F801E0
F001E0
ENDCHAR
STARTCHAR 212E
ENCODING 8494
SWIDTH 880 0
DWIDTH 22 0
BBX 20 18 1 0
BITMAP
03F800
0C0600
100180
3000C0
7000C0
7000E0
F000E0
F000E0
F000F0
FFFF00
F00000
F00000
700000
700000
300080
180100
0C0200
03FC00
ENDCHAR
STARTCHAR 2153
ENCODING 8531
SWIDTH 1040 0
DWIDTH 26 0
BBX 23 18 2 0
BITMAP
F801C0
F801C0
380380
380700
380700
380E00
381C00
381FFE
FE3BFE
FE701C
007038
00E070
01C07C
01C07E
03800E
07030E
0703FE
0E01F8
ENDCHAR
STARTCHAR 2154
ENCODING 8532
SWIDTH 1040 0
DWIDTH 26 0
BBX 24 18 1 0
BITMAP
7E00E0
FF00E0
C701C0
030380
070380
0E0700
1E0E00
380FFF
701DFF
FFB80E
FFB81C
007038
00E03E
00E03F
01C007
038187
0381FF
0700FC
ENDCHAR
STARTCHAR 215B
ENCODING 8539
SWIDTH 1040 0
DWIDTH 26 0
BBX 24 18 2 0
BITMAP
F801C0
F801C0
380380
380700
380700
380E00
381C00
381CF8
FE39FE
FE738E
00738E
00E1FE
01C1FE
01C38E
038387
07038E
0703FE
0E00F8
ENDCHAR
STARTCHAR 215C
ENCODING 8540
SWIDTH 1040 0
DWIDTH 26 0
BBX 25 18 1 0
BITMAP
FF00E000
FF00E000
0701C000
0C038000
1E038000
1F070000
038E0000
038E7C00
C79CFF00
FF39C700
7E39C300
0071C700
00E0FE00
00E0FF00
01C1C380
0381C380
0381FF00
07007C00
ENDCHAR
STARTCHAR 215D
ENCODING 8541
SWIDTH 1040 0
DWIDTH 26 0
BBX 25 18 1 0
BITMAP
7F00E000
7F00E000
6001C000
60038000
FE038000
FF070000
038E0000
038E7C00
C79CFF00
FF39C700
7E39C300
0071C700
00E0FE00
00E0FF00
01C1C380
0381C380
0381FF00
07007C00
ENDCHAR
STARTCHAR 215E
ENCODING 8542
SWIDTH 1040 0
DWIDTH 26 0
BBX 25 18 1 0
BITMAP
FF80E000
FF80E000
C381C000
C7038000
07038000
0E070000
0E0E0000
1C0E7C00
1C1CFF00
3839C700
0039C700
0070FF00
00E0FF00
00E1C700
01C1C380
0381C700
0381FF00
07007C00
ENDCHAR
STARTCHAR 2190
ENCODING 8592
SWIDTH 600 0
DWIDTH 15 0
BBX 12 11 2 1
BITMAP
1C00
3C00
3800
7800
FFF0
FFF0
7FF0
7800
3800
1C00
1E00
ENDCHAR
STARTCHAR 2191
ENCODING 8593
SWIDTH 600 0
DWIDTH 15 0
BBX 11 12 2 1
BITMAP
0400
1F00
3F80
FFE0
FFE0
CE60
0E00
0E00
0E00
0E00
0E00
0E00
ENDCHAR
STARTCHAR 2192
ENCODING 8594
SWIDTH 600 0
DWIDTH 15 0
BBX 12 11 1 1
BITMAP
0380
03C0
01C0
01E0
FFF0
FFF0
FFE0
01E0
01C0
0380
0780
ENDCHAR
STARTCHAR 2193
ENCODING 8595
SWIDTH 600 0
DWIDTH 15 0
BBX 11 12 2 1
BITMAP
0E00
0E00
0E00
0E00
0E00
0E00
CE60
FEE0
FFE0
3F80
1F00
0400
ENDCHAR
STARTCHAR 2194
ENCODING 8596
SWIDTH 840 0
DWIDTH 21 0
BBX 18 11 1 1
BITMAP
1E0E00
1C0700
3C0780
780380
7FFFC0
FFFFC0
7FFFC0
380380
3C0700
1C0F00
0E0E00
ENDCHAR
STARTCHAR 2195
ENCODING 8597
SWIDTH 600 0
DWIDTH 15 0
BBX 11 17 2 0
BITMAP
0400
1F00
3F80
FFE0
FFE0
CE60
0E00
0E00
0E00
0E00
8E20
CE60
FFE0
7FC0
3F80
0E00
0400
ENDCHAR
STARTCHAR 2196
ENCODING 8598
SWIDTH 600 0
DWIDTH 15 0
BBX 11 11 2 2
BITMAP
0380
3FC0
7F80
7C00
7E00
7F00
6F80
E7C0
63E0
41C0
0080
ENDCHAR
STARTCHAR 2197
ENCODING 8599
SWIDTH 600 0
DWIDTH 15 0
BBX 10 11 3 2
BITMAP
3000
7F80
7F80
0780
0F80
1FC0
3DC0
79C0
F0C0
E080
4000
ENDCHAR
STARTCHAR 2198
ENCODING 8600
SWIDTH 600 0
DWIDTH 15 0
BBX 10 11 3 1
BITMAP
4000
E080
F0C0
79C0
3DC0
1FC0
0F80
0780
7F80
7F80
3000
ENDCHAR
STARTCHAR 2199
ENCODING 8601
SWIDTH 600 0
DWIDTH 15 0
BBX 11 11 2 2
BITMAP
0080
41C0
63E0
E7C0
EF80
7F00
7E00
7C00
7F80
7FC0
0380
ENDCHAR
STARTCHAR 2202
ENCODING 8706
SWIDTH 720 0
DWIDTH 18 0
BBX 15 19 1 0
BITMAP
3F80
3FE0
3FF8
21F8
007C
003C
001E
001E
0F9E
3FFE
7FFE
787E
F83E
F01E
F83C
7C7C
7FF8
3FF0
0FC0
ENDCHAR
STARTCHAR 2205
ENCODING 8709
SWIDTH 600 0
DWIDTH 15 0
BBX 13 12 1 2
BITMAP
0008
1FD8
3FF0
78F0
71F0
6330
6630
7C30
7870
3DE0
7FC0
CF80
ENDCHAR
STARTCHAR 2206
ENCODING 8710
SWIDTH 760 0
DWIDTH 19 0
BBX 19 18 0 0
BITMAP
01F000
01F000
03F800
03F800
03BC00
07BC00
071C00
0F1E00
0F1E00
1E0F00
1E0F00
1C0780
3C0780
3C0780
7803C0
7FFFC0
FFFFE0
FFFFE0
ENDCHAR
STARTCHAR 220F
ENCODING 8719
SWIDTH 800 0
DWIDTH 20 0
BBX 16 23 2 -5
BITMAP
FFFF
FFFF
FFFF
F00F
F00F
F00F
F00F
F00F
F00F
F00F
F00F
F00F
F00F
F00F
F00F
F00F
F00F
F00F
F00F
F00F
F00F
F00F
F00F
ENDCHAR
STARTCHAR 2211
ENCODING 8721
SWIDTH 680 0
DWIDTH 17 0
BBX 15 23 1 -5
BITMAP
FFFE
FFFE
FFFE
7C00
3E00
1F00
1F00
0F80
07C0
03E0
01E0
00E0
01E0
03E0
07C0
0F80
1F00
3E00
3C00
7C00
FFFE
FFFE
FFFE
ENDCHAR
STARTCHAR 2212
ENCODING 8722
SWIDTH 600 0
DWIDTH 15 0
BBX 11 3 2 7
BITMAP
FFE0
FFE0
FFE0
ENDCHAR
STARTCHAR 2215
ENCODING 8725
SWIDTH 400 0
DWIDTH 10 0
BBX 12 24 -1 -3
BITMAP
00F0
00F0
00E0
01E0
01C0
01C0
03C0
0380
0380
0780
0700
0700
0F00
0E00
1E00
1E00
1C00
3C00
3C00
3800
7800
7800
7000
F000
ENDCHAR
STARTCHAR 2219
ENCODING 8729
SWIDTH 320 0
DWIDTH 8 0
BBX 4 5 2 6
BITMAP
70
F0
F0
F0
60
ENDCHAR
STARTCHAR 221A
ENCODING 8730
SWIDTH 840 0
DWIDTH 21 0
BBX 19 24 2 -5
BITMAP
0001E0
0001C0
0003C0
0003C0
000380
000780
000780
000700
000F00
FC0F00
FC0E00
FE1E00
1E1E00
1E1C00
0F1C00
0F3C00
0F3800
07B800
07F800
07F000
03F000
03F000
03F000
01E000
ENDCHAR
STARTCHAR 221E
ENCODING 8734
SWIDTH 920 0
DWIDTH 23 0
BBX 21 11 1 3
BITMAP
1F03C0
7F8FF0
7FDFF8
F1FC38
E0F838
E07038
E0F838
F1FC78
7FDFF8
3F8FF0
1E03C0
ENDCHAR
STARTCHAR 222B
ENCODING 8747
SWIDTH 440 0
DWIDTH 11 0
BBX 12 24 -1 -5
BITMAP
01F0
03F0
07F0
0790
0F00
0F00
0F00
0F00
0F00
0F00
0F00
0F00
0F00
0F00
0F00
0F00
0F00
0F00
0F00
0F00
0F00
7F00
FE00
7C00
ENDCHAR
STARTCHAR 2248
ENCODING 8776
SWIDTH 600 0
DWIDTH 15 0
BBX 13 11 1 3
BITMAP
3C38
7E38
7FF0
E3F0
E1E0
0000
3C38
7E38
7FF0
E3F0
E1E0
ENDCHAR
STARTCHAR 2260
ENCODING 8800
SWIDTH 600 0
DWIDTH 15 0
BBX 11 15 2 1
BITMAP
00E0
01C0
01C0
FFE0
FFE0
FFE0
0F00
0E00
1E00
FFE0
FFE0
FFE0
7000
7000
E000
ENDCHAR
STARTCHAR 2264
ENCODING 8804
SWIDTH 600 0
DWIDTH 15 0
BBX 11 16 2 0
BITMAP
0060
03E0
0FE0
7F80
FE00
F000
FC00
7F80
1FE0
03E0
0060
0000
0000
FFE0
FFE0
FFE0
ENDCHAR
STARTCHAR 2265
ENCODING 8805
SWIDTH 600 0
DWIDTH 15 0
BBX 11 16 2 0
BITMAP
C000
F800
FE00
3FC0
0FE0
01E0
07E0
3FC0
FF00
F800
C000
0000
0000
FFE0
FFE0
FFE0
ENDCHAR
STARTCHAR 25A0
ENCODING 9632
SWIDTH 600 0
DWIDTH 15 0
BBX 9 10 3 2
BITMAP
FF80
FF80
FF80
FF80
FF80
FF80
FF80
FF80
FF80
FF80
ENDCHAR
STARTCHAR 25A1
ENCODING 9633
SWIDTH 600 0
DWIDTH 15 0
BBX 9 9 3 2
BITMAP
FF80
FF80
C180
C180
C180
C180
C180
FF80
FF80
ENDCHAR
STARTCHAR 25B2
ENCODING 9650
SWIDTH 600 0
DWIDTH 15 0
BBX 11 11 2 1
BITMAP
0400
0400
0E00
0E00
1F00
1F00
3F80
3F80
7FC0
7FC0
FFE0
ENDCHAR
STARTCHAR 25B3
ENCODING 9651
SWIDTH 600 0
DWIDTH 15 0
BBX 11 11 2 1
BITMAP
0400
0400
0E00
0E00
1B00
1B00
3180
3180
60C0
7FC0
FFE0
ENDCHAR
STARTCHAR 25B6
ENCODING 9654
SWIDTH 600 0
DWIDTH 15 0
BBX 10 10 3 1
BITMAP
8000
E000
F800
FE00
FF80
FFC0
FF00
FC00
F000
C000
ENDCHAR
STARTCHAR 25B7
ENCODING 9655
SWIDTH 600 0
DWIDTH 15 0
BBX 10 10 3 1
BITMAP
8000
E000
F800
9E00
8780
81C0
8F00
BC00
F000
C000
ENDCHAR
STARTCHAR 25BC
ENCODING 9660
SWIDTH 600 0
DWIDTH 15 0
BBX 11 11 2 1
BITMAP
FFE0
7FC0
7FC0
3F80
3F80
1F00
1F00
0E00
0E00
0400
0400
ENDCHAR
STARTCHAR 25BD
ENCODING 9661
SWIDTH 600 0
DWIDTH 15 0
BBX 11 11 2 1
BITMAP
FFE0
7FC0
60C0
3180
3180
1B00
1B00
0E00
0E00
0400
0400
ENDCHAR
STARTCHAR 25C0
ENCODING 9664
SWIDTH 600 0
DWIDTH 15 0
BBX 10 10 2 1
BITMAP
0040
01C0
07C0
1FC0
7FC0
FFC0
3FC0
0FC0
03C0
00C0
ENDCHAR
STARTCHAR 25C1
ENCODING 9665
SWIDTH 600 0
DWIDTH 15 0
BBX 10 10 2 1
BITMAP
0040
01C0
07C0
1EC0
78C0
E0C0
38C0
0FC0
03C0
00C0
ENDCHAR
STARTCHAR 25C6
ENCODING 9670
SWIDTH 600 0
DWIDTH 15 0
BBX 13 14 1 0
BITMAP
0200
0700
0F80
1FC0
3FE0
7FF0
FFF8
FFF8
7FF0
3FE0
1FC0
0F80
0700
0200
ENDCHAR
STARTCHAR 25C7
ENCODING 9671
SWIDTH 600 0
DWIDTH 15 0
BBX 13 14 1 0
BITMAP
0200
0700
0F80
1DC0
38E0
7070
E038
E038
7070
38E0
1DC0
0F80
0700
0200
ENDCHAR
STARTCHAR 25CA
ENCODING 9674
SWIDTH 480 0
DWIDTH 12 0
BBX 10 16 1 0
BITMAP
0400
0C00
1E00
1F00
3B00
7380
61C0
E0C0
E0C0
61C0
3380
3B00
1F00
0E00
0C00
0400
ENDCHAR
STARTCHAR 27E8
ENCODING 10216
SWIDTH 360 0
DWIDTH 9 0
BBX 7 24 1 -5
BITMAP
0E
1E
1E
1C
3C
3C
38
78
78
F0
F0
F0
F0
F0
F0
78
78
78
3C
3C
1C
1E
1E
0E
ENDCHAR
STARTCHAR 27E9
ENCODING 10217
SWIDTH 360 0
DWIDTH 9 0
BBX 7 24 1 -5
BITMAP
F0
F0
70
78
78
38
3C
3C
1C
1E
1E
0E
0E
1E
1E
1C
3C
3C
38
78
78
70
F0
E0
ENDCHAR
STARTCHAR A78B
ENCODING 42891
SWIDTH 280 0
DWIDTH 7 0
BBX 4 10 2 8
BITMAP
F0
F0
F0
F0
E0
E0
E0
E0
E0
E0
ENDCHAR
STARTCHAR A78C
ENCODING 42892
SWIDTH 280 0
DWIDTH 7 0
BBX 4 10 2 7
BITMAP
F0
E0
E0
E0
E0
E0
E0
E0
E0
E0
ENDCHAR
STARTCHAR FB01
ENCODING 64257
SWIDTH 760 0
DWIDTH 19 0
BBX 18 20 0 0
BITMAP
000380
07C7C0
1FC7C0
1FC780
3C0000
3C0000
FFC780
FFC780
FFC780
3C0780
3C0780
3C0780
3C0780
3C0780
3C0780
3C0780
3C0780
3C0780
3C0780
3C0780
ENDCHAR
STARTCHAR FB02
ENCODING 64258
SWIDTH 680 0
DWIDTH 17 0
BBX 15 19 0 0
BITMAP
07DE
0FDE
1FDE
1E1E
3C1E
3C1E
FFDE
FFDE
FFDE
3C1E
3C1E
3C1E
3C1E
3C1E
3C1E
3C1E
3C1E
3C1E
3C1E
ENDCHAR
ENDFONT
